<svg xmlns="http://www.w3.org/2000/svg" viewBox="0 0 149.76 201.15"><defs><style>.cls-1{stroke:#fff;stroke-miterlimit:10;}.cls-2{fill:#fff;}</style></defs><title>cuboAberto</title><g id="Camada_3" data-name="Camada 3"><rect class="cls-1" x="51.64" y="148.09" width="46.8" height="46.8" transform="translate(150.08 342.98) rotate(180)"/><rect class="cls-1" x="51.64" y="7.67" width="46.8" height="46.8" transform="translate(150.08 62.15) rotate(180)"/><rect class="cls-1" x="98.3" y="101.28" width="46.8" height="46.8" transform="translate(243.4 249.37) rotate(180)"/><rect class="cls-1" x="51.64" y="54.48" width="46.8" height="46.8" transform="translate(150.08 155.76) rotate(180)"/><rect class="cls-1" x="51.64" y="101.28" width="46.8" height="46.8" transform="translate(150.08 249.37) rotate(180)"/><rect class="cls-1" x="4.66" y="101.28" width="46.8" height="46.8" transform="translate(56.12 249.37) rotate(180)"/><path class="cls-2" d="M64.41,24.26v4.43c0,1,.31,1.3.65,1.3s.66-.27.66-1.3V24.26H67v4.19c0,1.75-.65,2.71-2,2.71s-2-1-2-2.7v-4.2Z"/><path class="cls-2" d="M68.05,27.7c0-.6,0-1.11,0-1.57h1.16l.07.56h0a1.12,1.12,0,0,1,1-.64c1.09,0,1.54,1.17,1.54,2.55,0,1.76-.78,2.56-1.61,2.56a1,1,0,0,1-.82-.49h0V33H68.05Zm1.33,1.56a1,1,0,0,0,.07.43c.1.3.27.38.42.38.47,0,.63-.69.63-1.46,0-.94-.22-1.45-.62-1.45a.51.51,0,0,0-.44.42.88.88,0,0,0-.06.36Z"/><path class="cls-2" d="M72.59,24.07h1.32v7H72.59Z"/><path class="cls-2" d="M78.47,28.59c0,2.06-1.14,2.57-1.89,2.57-1.18,0-1.89-.94-1.89-2.54,0-1.79.93-2.57,1.91-2.57C77.76,26.05,78.47,27,78.47,28.59Zm-2.47,0c0,.85.14,1.55.61,1.55s.54-.83.54-1.55-.11-1.54-.56-1.54S76,27.91,76,28.59Z"/><path class="cls-2" d="M81.44,31.07l-.08-.48h0a1.29,1.29,0,0,1-1.09.57A1.37,1.37,0,0,1,79,29.65c0-1.3,1.14-1.83,2.26-1.84V27.7a.63.63,0,0,0-.69-.67,1.9,1.9,0,0,0-1,.28l-.24-.89a3.24,3.24,0,0,1,1.54-.37c1.51,0,1.75,1.05,1.75,2.05v1.84a6.6,6.6,0,0,0,.08,1.13Zm-.19-2.4c-.44,0-1,.15-1,.84,0,.49.27.67.48.67a.57.57,0,0,0,.54-.42.85.85,0,0,0,0-.23Z"/><path class="cls-2" d="M87.08,24.07v5.54c0,.47,0,1,0,1.46H86l-.08-.55h0a1.23,1.23,0,0,1-1,.64c-1,0-1.54-1.17-1.54-2.55,0-1.72.75-2.56,1.59-2.56a.84.84,0,0,1,.83.49h0V24.07Zm-1.33,4c0-.09,0-.19,0-.29,0-.31-.21-.58-.47-.58-.47,0-.64.68-.64,1.48s.25,1.43.63,1.43c.16,0,.35-.09.45-.43a.86.86,0,0,0,0-.31Z"/><path class="cls-2" d="M67.33,34.47a7.25,7.25,0,0,1,1.51-.13,2.54,2.54,0,0,1,1.73.49,1.55,1.55,0,0,1,.51,1.23,1.58,1.58,0,0,1-1,1.49v0a1.63,1.63,0,0,1,1.22,1.63,1.84,1.84,0,0,1-.51,1.33,2.85,2.85,0,0,1-2.24.69,9.73,9.73,0,0,1-1.23-.07Zm1.33,2.7h.28a.88.88,0,0,0,.84-1c0-.49-.23-.88-.78-.88a1.05,1.05,0,0,0-.34,0Zm0,3a1.23,1.23,0,0,0,.29,0,.93.93,0,0,0,1-1,1,1,0,0,0-1-1.05h-.28Z"/><path class="cls-2" d="M74.31,41.19l-.07-.49h0a1.29,1.29,0,0,1-1.09.57,1.38,1.38,0,0,1-1.31-1.51c0-1.29,1.14-1.83,2.27-1.84v-.11a.63.63,0,0,0-.7-.67,1.84,1.84,0,0,0-1,.28l-.25-.88a3.15,3.15,0,0,1,1.54-.38c1.51,0,1.75,1.05,1.75,2.05v1.85a6.75,6.75,0,0,0,.08,1.13Zm-.18-2.41c-.45,0-1.06.15-1.06.84,0,.5.28.68.48.68a.58.58,0,0,0,.55-.43.85.85,0,0,0,0-.23Z"/><path class="cls-2" d="M79.1,41.11a2.33,2.33,0,0,1-.84.14c-1.25,0-2.07-.87-2.07-2.49a2.32,2.32,0,0,1,2.27-2.59,2,2,0,0,1,.73.13l-.18,1a1.38,1.38,0,0,0-.49-.09c-.64,0-1,.61-1,1.47s.37,1.45,1,1.45a1.07,1.07,0,0,0,.49-.1Z"/><path class="cls-2" d="M80.94,38.41h0c.1-.29.17-.49.26-.69l.63-1.48h1.43l-1.19,2.08,1.26,2.87H81.87l-.7-2-.23.42v1.61H79.62v-7h1.32Z"/><path class="cls-2" d="M64.41,71.06v4.43c0,1,.31,1.31.65,1.31s.66-.28.66-1.31V71.06H67v4.2c0,1.75-.65,2.7-2,2.7s-2-1-2-2.69V71.06Z"/><path class="cls-2" d="M68.05,74.5c0-.6,0-1.1,0-1.57h1.16l.07.57h0a1.11,1.11,0,0,1,1-.65c1.09,0,1.54,1.17,1.54,2.55,0,1.76-.78,2.56-1.61,2.56a.94.94,0,0,1-.82-.49h0v2.35H68.05Zm1.33,1.57a1,1,0,0,0,.07.42c.1.31.27.39.43.39.46,0,.62-.69.62-1.47,0-.94-.22-1.45-.61-1.45a.52.52,0,0,0-.45.43.81.81,0,0,0-.06.35Z"/><path class="cls-2" d="M72.59,70.88h1.32v7H72.59Z"/><path class="cls-2" d="M78.47,75.39c0,2.06-1.14,2.57-1.89,2.57-1.18,0-1.89-.93-1.89-2.54,0-1.78.93-2.57,1.91-2.57C77.77,72.85,78.47,73.83,78.47,75.39Zm-2.47,0c0,.85.14,1.56.61,1.56s.54-.83.54-1.56-.11-1.54-.56-1.54S76,74.71,76,75.39Z"/><path class="cls-2" d="M81.44,77.88l-.07-.49h0a1.3,1.3,0,0,1-1.1.57A1.37,1.37,0,0,1,79,76.45c0-1.29,1.14-1.83,2.26-1.84V74.5a.63.63,0,0,0-.69-.67,1.82,1.82,0,0,0-1,.29l-.24-.89a3.11,3.11,0,0,1,1.54-.38c1.51,0,1.75,1.05,1.75,2.05v1.85a6.75,6.75,0,0,0,.08,1.13Zm-.19-2.41c-.44,0-1,.15-1,.84,0,.5.28.68.48.68a.57.57,0,0,0,.54-.43.85.85,0,0,0,0-.23Z"/><path class="cls-2" d="M87.08,70.88v5.53c0,.48,0,1,0,1.47H86l-.07-.56h0a1.21,1.21,0,0,1-1,.64c-1,0-1.53-1.16-1.53-2.55,0-1.72.74-2.56,1.58-2.56a.83.83,0,0,1,.83.5h0V70.88Zm-1.33,4c0-.09,0-.19,0-.29,0-.3-.21-.58-.47-.58-.47,0-.64.68-.64,1.48s.25,1.44.63,1.44c.16,0,.35-.09.45-.44a.84.84,0,0,0,0-.3Z"/><path class="cls-2" d="M70.17,82.4H69V81.17h3.74V82.4H71.5V88H70.17Z"/><path class="cls-2" d="M76.44,85.5c0,2.07-1.15,2.57-1.9,2.57-1.18,0-1.89-.93-1.89-2.53,0-1.79.93-2.58,1.91-2.58C75.73,83,76.44,84,76.44,85.5ZM74,85.5c0,.85.13,1.56.6,1.56s.54-.83.54-1.56S75,84,74.55,84,74,84.83,74,85.5Z"/><path class="cls-2" d="M77.17,84.61c0-.59,0-1.1,0-1.56h1.16l.07.56h0a1.13,1.13,0,0,1,1-.65C80.5,83,81,84.14,81,85.51c0,1.76-.78,2.56-1.61,2.56a1,1,0,0,1-.82-.48h0v2.35H77.17Zm1.33,1.57a1,1,0,0,0,.07.43c.1.3.27.38.42.38.47,0,.63-.69.63-1.47,0-.94-.22-1.44-.62-1.44a.51.51,0,0,0-.44.42.85.85,0,0,0-.06.36Z"/><path class="cls-2" d="M64.41,117.87v4.43c0,1,.31,1.3.65,1.3s.66-.27.66-1.3v-4.43H67v4.19c0,1.75-.65,2.71-2,2.71s-2-1-2-2.7v-4.2Z"/><path class="cls-2" d="M68.05,121.31c0-.6,0-1.11,0-1.57h1.16l.07.56h0a1.12,1.12,0,0,1,1-.64c1.09,0,1.54,1.17,1.54,2.55,0,1.76-.78,2.56-1.61,2.56a1,1,0,0,1-.82-.49h0v2.35H68.05Zm1.33,1.56a1,1,0,0,0,.07.43c.1.3.27.38.42.38.47,0,.63-.68.63-1.46,0-.94-.22-1.45-.62-1.45a.51.51,0,0,0-.44.42.88.88,0,0,0-.06.36Z"/><path class="cls-2" d="M72.59,117.68h1.32v7H72.59Z"/><path class="cls-2" d="M78.47,122.2c0,2.06-1.14,2.57-1.89,2.57-1.18,0-1.89-.94-1.89-2.54,0-1.78.93-2.57,1.91-2.57C77.76,119.66,78.47,120.64,78.47,122.2Zm-2.47,0c0,.85.14,1.55.61,1.55s.54-.83.54-1.55-.11-1.54-.56-1.54S76,121.52,76,122.2Z"/><path class="cls-2" d="M81.44,124.68l-.08-.48h0a1.29,1.29,0,0,1-1.09.57,1.37,1.37,0,0,1-1.3-1.51c0-1.3,1.14-1.83,2.26-1.84v-.11a.63.63,0,0,0-.69-.67,1.9,1.9,0,0,0-1,.28l-.24-.89a3.24,3.24,0,0,1,1.54-.37c1.51,0,1.75,1,1.75,2v1.84a6.6,6.6,0,0,0,.08,1.13Zm-.19-2.4c-.44,0-1,.15-1,.84,0,.49.27.67.48.67a.57.57,0,0,0,.54-.42.85.85,0,0,0,0-.23Z"/><path class="cls-2" d="M87.08,117.68v5.54c0,.47,0,1,0,1.46H86l-.08-.55h0a1.23,1.23,0,0,1-1,.64c-1,0-1.54-1.17-1.54-2.55,0-1.72.75-2.56,1.59-2.56a.84.84,0,0,1,.83.49h0v-2.47Zm-1.33,4c0-.09,0-.19,0-.29,0-.31-.21-.58-.47-.58-.47,0-.64.68-.64,1.48s.25,1.43.63,1.43c.16,0,.35-.09.45-.43a.86.86,0,0,0,0-.31Z"/><path class="cls-2" d="M66.15,128h3v1.15H67.47v1.75H69V132H67.47v2.81H66.15Z"/><path class="cls-2" d="M69.91,131.34c0-.5,0-1,0-1.49H71l.07.72h0a1.09,1.09,0,0,1,1.27-.78v1.32a1.23,1.23,0,0,0-.29,0,.87.87,0,0,0-.8.7,2.14,2.14,0,0,0,0,.5v2.51H69.91Z"/><path class="cls-2" d="M76.47,132.31c0,2.06-1.15,2.57-1.9,2.57-1.18,0-1.89-.93-1.89-2.54,0-1.78.93-2.57,1.91-2.57C75.76,129.77,76.47,130.75,76.47,132.31Zm-2.47,0c0,.85.13,1.56.6,1.56s.54-.83.54-1.56-.11-1.54-.56-1.54S74,131.63,74,132.31Z"/><path class="cls-2" d="M77.21,131.34c0-.55,0-1,0-1.49h1.15l.06.57h0a1.39,1.39,0,0,1,1.2-.65c.94,0,1.32.75,1.32,1.85v3.18H79.59v-3.1c0-.42-.1-.82-.49-.82-.22,0-.4.16-.49.45a1.28,1.28,0,0,0-.07.45v3H77.21Z"/><path class="cls-2" d="M83.4,128.52v1.33h1v.94h-1v2.26c0,.58.25.72.51.72a1.79,1.79,0,0,0,.34,0v1a3.12,3.12,0,0,1-.81.09,1.35,1.35,0,0,1-1-.31,1.81,1.81,0,0,1-.42-1.42v-2.34h-.59v-.94h.59v-1Z"/><path class="cls-2" d="M64.41,164.67v4.43c0,1,.31,1.31.65,1.31s.66-.28.66-1.31v-4.43H67v4.2c0,1.75-.65,2.7-2,2.7s-2-1-2-2.69v-4.21Z"/><path class="cls-2" d="M68.05,168.11c0-.6,0-1.1,0-1.57h1.16l.07.57h0a1.11,1.11,0,0,1,1-.65c1.09,0,1.54,1.17,1.54,2.55,0,1.76-.78,2.56-1.61,2.56a.94.94,0,0,1-.82-.49h0v2.35H68.05Zm1.33,1.57a1,1,0,0,0,.07.42c.1.31.27.39.42.39.47,0,.63-.69.63-1.47,0-.94-.22-1.45-.62-1.45a.52.52,0,0,0-.44.43.81.81,0,0,0-.06.35Z"/><path class="cls-2" d="M72.59,164.49h1.32v7H72.59Z"/><path class="cls-2" d="M78.47,169c0,2.06-1.14,2.57-1.89,2.57-1.18,0-1.89-.93-1.89-2.54,0-1.78.93-2.57,1.91-2.57C77.76,166.46,78.47,167.44,78.47,169ZM76,169c0,.85.14,1.56.61,1.56s.54-.83.54-1.56-.11-1.54-.56-1.54S76,168.32,76,169Z"/><path class="cls-2" d="M81.44,171.49l-.08-.49h0a1.27,1.27,0,0,1-1.09.57,1.37,1.37,0,0,1-1.3-1.51c0-1.29,1.14-1.83,2.26-1.84v-.11a.63.63,0,0,0-.69-.67,1.82,1.82,0,0,0-1,.29l-.24-.89a3.11,3.11,0,0,1,1.54-.38c1.51,0,1.75,1,1.75,2v1.85a6.68,6.68,0,0,0,.08,1.13Zm-.19-2.41c-.44,0-1,.15-1,.84,0,.5.27.68.48.68a.57.57,0,0,0,.54-.43.85.85,0,0,0,0-.23Z"/><path class="cls-2" d="M87.08,164.49V170c0,.48,0,1,0,1.47H86l-.08-.56h0a1.21,1.21,0,0,1-1,.64c-1,0-1.54-1.16-1.54-2.55,0-1.72.75-2.56,1.59-2.56a.83.83,0,0,1,.83.5h0v-2.47Zm-1.33,3.95c0-.09,0-.19,0-.29,0-.3-.21-.58-.47-.58-.47,0-.64.68-.64,1.48s.25,1.44.63,1.44c.16,0,.35-.09.45-.44a.84.84,0,0,0,0-.3Z"/><path class="cls-2" d="M62.27,174.89a6.63,6.63,0,0,1,1.51-.14,2.58,2.58,0,0,1,1.73.49,1.54,1.54,0,0,1,.52,1.23A1.59,1.59,0,0,1,65,178v0a1.63,1.63,0,0,1,1.21,1.63,1.82,1.82,0,0,1-.51,1.34,2.87,2.87,0,0,1-2.23.68,9.91,9.91,0,0,1-1.24-.07Zm1.33,2.7h.28a.88.88,0,0,0,.84-1c0-.5-.23-.88-.78-.88a1.05,1.05,0,0,0-.34,0Zm0,3a1.23,1.23,0,0,0,.29,0,.92.92,0,0,0,1-1,1,1,0,0,0-1-1H63.6Z"/><path class="cls-2" d="M70.65,179.12c0,2.06-1.14,2.56-1.89,2.56-1.19,0-1.9-.93-1.9-2.53,0-1.79.94-2.57,1.92-2.57C69.94,176.58,70.65,177.56,70.65,179.12Zm-2.47,0c0,.84.13,1.55.61,1.55s.53-.83.53-1.55-.11-1.54-.55-1.54S68.18,178.44,68.18,179.12Z"/><path class="cls-2" d="M73,175.32v1.34h1v.94H73v2.25c0,.58.25.72.51.72a1.79,1.79,0,0,0,.34,0v1a3.09,3.09,0,0,1-.8.09,1.37,1.37,0,0,1-1-.31,1.8,1.8,0,0,1-.42-1.42V177.6H71v-.94h.59v-1Z"/><path class="cls-2" d="M76.1,175.32v1.34h1v.94h-1v2.25c0,.58.24.72.51.72a1.79,1.79,0,0,0,.34,0v1a3.17,3.17,0,0,1-.81.09,1.35,1.35,0,0,1-1-.31,1.8,1.8,0,0,1-.43-1.42V177.6h-.58v-.94h.58v-1Z"/><path class="cls-2" d="M81.24,179.12c0,2.06-1.15,2.56-1.89,2.56-1.19,0-1.9-.93-1.9-2.53,0-1.79.93-2.57,1.92-2.57C80.53,176.58,81.24,177.56,81.24,179.12Zm-2.47,0c0,.84.13,1.55.61,1.55s.53-.83.53-1.55-.11-1.54-.55-1.54S78.77,178.44,78.77,179.12Z"/><path class="cls-2" d="M82,178.14c0-.54,0-1,0-1.48H83.1l.06.57h0a1.43,1.43,0,0,1,1.18-.65,1.07,1.07,0,0,1,1.08.66h0a1.64,1.64,0,0,1,.49-.49,1.48,1.48,0,0,1,.7-.17c.88,0,1.27.69,1.27,1.89v3.13H86.62v-2.91c0-.57-.06-1-.47-1-.23,0-.4.16-.49.45a1.53,1.53,0,0,0,0,.35v3.13H84.3v-3.1c0-.36,0-.83-.45-.83a.55.55,0,0,0-.5.44,1.35,1.35,0,0,0,0,.38v3.11H82Z"/><path class="cls-2" d="M111.31,116.57V121c0,1,.31,1.31.65,1.31s.66-.28.66-1.31v-4.43h1.32v4.2c0,1.75-.65,2.7-2,2.7s-2-1-2-2.69v-4.21Z"/><path class="cls-2" d="M115,120c0-.6,0-1.1,0-1.57h1.16l.07.57h0a1.11,1.11,0,0,1,1-.65c1.09,0,1.54,1.17,1.54,2.55,0,1.76-.78,2.56-1.61,2.56a1,1,0,0,1-.82-.49h0v2.35H115Zm1.33,1.57a1,1,0,0,0,.07.42c.1.31.27.39.43.39.46,0,.62-.69.62-1.47,0-.94-.22-1.45-.61-1.45a.52.52,0,0,0-.45.43.81.81,0,0,0-.06.35Z"/><path class="cls-2" d="M119.49,116.39h1.32v7h-1.32Z"/><path class="cls-2" d="M125.37,120.9c0,2.06-1.14,2.57-1.89,2.57-1.18,0-1.89-.93-1.89-2.54,0-1.78.93-2.57,1.91-2.57C124.67,118.36,125.37,119.34,125.37,120.9Zm-2.47,0c0,.85.14,1.56.61,1.56s.54-.83.54-1.56-.11-1.54-.56-1.54S122.9,120.22,122.9,120.9Z"/><path class="cls-2" d="M128.34,123.39l-.07-.49h0a1.3,1.3,0,0,1-1.1.57,1.37,1.37,0,0,1-1.3-1.51c0-1.29,1.14-1.83,2.26-1.84V120a.63.63,0,0,0-.69-.67,1.9,1.9,0,0,0-1,.28l-.24-.89a3.28,3.28,0,0,1,1.54-.37c1.51,0,1.75,1,1.75,2v1.84a6.8,6.8,0,0,0,.08,1.14Zm-.19-2.41c-.44,0-1.05.15-1.05.84,0,.5.28.68.48.68a.57.57,0,0,0,.54-.43.85.85,0,0,0,0-.23Z"/><path class="cls-2" d="M134,116.39v5.53c0,.48,0,1,0,1.47h-1.14l-.07-.56h0a1.23,1.23,0,0,1-1,.64c-1.05,0-1.53-1.16-1.53-2.55,0-1.72.75-2.56,1.59-2.56a.82.82,0,0,1,.82.5h0v-2.47Zm-1.33,4v-.29c-.06-.3-.22-.58-.48-.58-.47,0-.64.68-.64,1.48s.25,1.44.63,1.44c.16,0,.35-.1.45-.44a.66.66,0,0,0,0-.3Z"/><path class="cls-2" d="M112.86,126.78a8.06,8.06,0,0,1,1.45-.13,2.61,2.61,0,0,1,1.82.51,1.75,1.75,0,0,1,.54,1.42,1.84,1.84,0,0,1-1.06,1.71h0c.47.19.7.62.83,1.35a10.72,10.72,0,0,0,.44,1.85h-1.39a9.47,9.47,0,0,1-.33-1.63c-.12-.85-.34-1.09-.78-1.09h-.19v2.72h-1.33Zm1.33,3h.23a.94.94,0,0,0,.91-1.06c0-.58-.23-1-.83-1a.91.91,0,0,0-.31,0Z"/><path class="cls-2" d="M118.85,127.24a.68.68,0,1,1-.68-.72A.66.66,0,0,1,118.85,127.24Zm-1.33,6.26v-4.95h1.33v4.95Z"/><path class="cls-2" d="M123.43,128.55c0,.45-.05,1-.05,1.57V133a2.59,2.59,0,0,1-.6,2,2.24,2.24,0,0,1-1.6.55,3.22,3.22,0,0,1-1.24-.24l.24-1a2.39,2.39,0,0,0,1,.21c.66,0,.93-.44.93-1.2V133h0a1,1,0,0,1-.9.49c-1.11,0-1.54-1.21-1.54-2.4,0-1.65.75-2.6,1.67-2.6a1,1,0,0,1,.91.58h0l.07-.5Zm-1.36,1.81a1.32,1.32,0,0,0,0-.37c-.07-.21-.21-.4-.43-.4-.48,0-.67.64-.67,1.45s.27,1.39.64,1.39a.48.48,0,0,0,.45-.35,1.34,1.34,0,0,0,.06-.4Z"/><path class="cls-2" d="M124.3,126.5h1.33v2.57h0a1.53,1.53,0,0,1,.42-.42,1.37,1.37,0,0,1,.67-.18c.91,0,1.26.77,1.26,2v3h-1.32v-3c0-.49-.09-.91-.49-.91-.22,0-.41.13-.51.46a2.06,2.06,0,0,0-.05.38v3.07H124.3Z"/><path class="cls-2" d="M130.49,127.22v1.33h1v.95h-1v2.25c0,.58.24.72.51.72a1.79,1.79,0,0,0,.34,0v1a3.12,3.12,0,0,1-.81.09,1.35,1.35,0,0,1-.95-.31,1.8,1.8,0,0,1-.42-1.42V129.5h-.59v-.95h.59v-1Z"/><path class="cls-2" d="M17.51,116.57V121c0,1,.3,1.31.65,1.31s.66-.28.66-1.31v-4.43h1.32v4.2c0,1.75-.66,2.7-2,2.7s-2-1-2-2.69v-4.21Z"/><path class="cls-2" d="M21.15,120c0-.6,0-1.1,0-1.57h1.16l.07.57h0a1.11,1.11,0,0,1,1-.65c1.09,0,1.54,1.17,1.54,2.55,0,1.76-.78,2.56-1.61,2.56a.94.94,0,0,1-.82-.49h0v2.35H21.15Zm1.33,1.57a1,1,0,0,0,.07.42c.1.31.27.39.42.39.47,0,.63-.69.63-1.47,0-.94-.22-1.45-.62-1.45a.52.52,0,0,0-.44.43.81.81,0,0,0-.06.35Z"/><path class="cls-2" d="M25.68,116.39H27v7H25.68Z"/><path class="cls-2" d="M31.57,120.9c0,2.06-1.14,2.57-1.89,2.57-1.18,0-1.89-.93-1.89-2.54,0-1.78.93-2.57,1.91-2.57C30.86,118.36,31.57,119.34,31.57,120.9Zm-2.47,0c0,.85.13,1.56.61,1.56s.54-.83.54-1.56-.12-1.54-.56-1.54S29.1,120.22,29.1,120.9Z"/><path class="cls-2" d="M34.53,123.39l-.07-.49h0a1.27,1.27,0,0,1-1.09.57,1.37,1.37,0,0,1-1.3-1.51c0-1.29,1.14-1.83,2.26-1.84V120a.63.63,0,0,0-.7-.67,1.89,1.89,0,0,0-1,.28l-.24-.89a3.24,3.24,0,0,1,1.54-.37c1.5,0,1.75,1,1.75,2v1.84a6.8,6.8,0,0,0,.08,1.14ZM34.35,121c-.44,0-1.05.15-1.05.84,0,.5.27.68.47.68a.57.57,0,0,0,.55-.43.85.85,0,0,0,0-.23Z"/><path class="cls-2" d="M40.18,116.39v5.53c0,.48,0,1,0,1.47H39.07l-.07-.56h0a1.2,1.2,0,0,1-1,.64c-1.05,0-1.54-1.16-1.54-2.55,0-1.72.75-2.56,1.59-2.56a.83.83,0,0,1,.83.5h0v-2.47Zm-1.33,4c0-.09,0-.19,0-.29-.05-.3-.21-.58-.47-.58-.47,0-.64.68-.64,1.48s.25,1.44.63,1.44c.16,0,.35-.1.45-.44a.84.84,0,0,0,0-.3Z"/><path class="cls-2" d="M21.67,126.68H23v5.7h1.75v1.12H21.67Z"/><path class="cls-2" d="M26.44,131.5a1,1,0,0,0,1,1.05,3,3,0,0,0,1-.16l.18,1a4.18,4.18,0,0,1-1.37.22c-1.34,0-2.08-.89-2.08-2.43s.86-2.66,2-2.66,1.68.84,1.68,2.34a3.53,3.53,0,0,1,0,.69Zm1.19-.93c0-.64-.17-1.13-.56-1.13s-.61.63-.62,1.13Z"/><path class="cls-2" d="M29.81,133.5v-4h-.67v-.95h.67v-.2a2,2,0,0,1,.51-1.47,1.57,1.57,0,0,1,1.18-.46,2.69,2.69,0,0,1,.8.11l-.15,1a1.18,1.18,0,0,0-.41-.06c-.44,0-.6.39-.6.82v.23H32v.95h-.85v4Z"/><path class="cls-2" d="M34.08,127.22v1.33h1v.95h-1v2.25c0,.58.24.72.5.72a1.83,1.83,0,0,0,.35,0v1a3.17,3.17,0,0,1-.81.09,1.33,1.33,0,0,1-1-.31,1.76,1.76,0,0,1-.43-1.42V129.5h-.58v-.95h.58v-1Z"/></g></svg>