<svg xmlns="http://www.w3.org/2000/svg" viewBox="0 0 39.97 40.11"><defs><style>.cls-1,.cls-2{fill:#fff;}.cls-1{fill-rule:evenodd;}</style></defs><title>icoApp</title><g id="Camada_3" data-name="Camada 3"><rect x="-1.31" y="-1.23" width="42.15" height="42.83" transform="translate(-0.42 39.95) rotate(-90)"/><path class="cls-1" d="M14.89,39.94c-.11-.2-.2-.4-.31-.6l-.24-.45-.56-1.14c-.21-.45-.43-.9-.64-1.34l-.32-.66a.31.31,0,0,0-.28-.19,3.71,3.71,0,0,0-1.37.11,3.36,3.36,0,0,0-1.39.78,1.35,1.35,0,0,0-.35.47,2.4,2.4,0,0,1-.11.23c-.27-.06-.51-.13-.77-.18a4.13,4.13,0,0,0-.78-.08,5.15,5.15,0,0,0-1.56.26c-.27.1-.54.22-.8.34a.75.75,0,0,0-.2.15c-.12.12-.12.16,0,.3l.19.34a1.74,1.74,0,0,0-.2.13c-.18.12-.2.17-.09.37s.12.23.18.35L5,39.28c-.18.1-.18.14-.08.31s.37.59.54.9a7.09,7.09,0,0,0,.72,1.09c.2.25.41.5.6.77a10.48,10.48,0,0,0,1,1.27c.1.11.14.1.21,0A6.63,6.63,0,0,1,8.3,43a2.08,2.08,0,0,1,.77-.73,4,4,0,0,1,1.37-.56l.64-.1a1.32,1.32,0,0,0,.65-.21l.09-.05a7.52,7.52,0,0,1,2.1-.36,4.14,4.14,0,0,1,1.05.08c.18,0,.24,0,.17-.21L15,40.51l.17-.11Zm-.28-.2H14L13.54,39l.62-.07Zm-.79-1.52.3.62-.65.08c-.1-.17-.21-.36-.35-.58ZM10.31,39a1.79,1.79,0,0,1,.61-.67,6.89,6.89,0,0,1,1.45-.81l.15-.05h.07l.37.76-.12,0-.44.12a3.33,3.33,0,0,0-1.77,1.17l-.05,0Zm.09.63a5.15,5.15,0,0,0-2.69.42c-.1-.19-.19-.38-.29-.59a7.76,7.76,0,0,1,.89-.3A4,4,0,0,1,9.4,39a4.91,4.91,0,0,1,.65.06.16.16,0,0,1,.12.08C10.25,39.32,10.31,39.48,10.4,39.67Zm1.74-2.13a6.09,6.09,0,0,0-1.57,1,2.6,2.6,0,0,0-.33.39L10,38.52a.16.16,0,0,1,0-.21,3.58,3.58,0,0,1,.69-.6,5.72,5.72,0,0,1,.48-.32,5.59,5.59,0,0,1,1.12-.49,1.47,1.47,0,0,1,.23.47Zm-2.23.75a1,1,0,0,1-.2-.37.29.29,0,0,1,0-.16,2.14,2.14,0,0,1,.84-.82,5.29,5.29,0,0,1,1.3-.55l.16,0h.08c.06.14.11.28.17.43A5.66,5.66,0,0,0,9.91,38.29Zm-.12.19.28.49a3.13,3.13,0,0,0-1.4.06l-1.32.36L7,38.77a4.32,4.32,0,0,1,1.4-.29A4.17,4.17,0,0,1,9.79,38.48Zm-2.88.19c-.15-.22-.29-.44-.43-.66a1.87,1.87,0,0,1,.71-.21,11,11,0,0,1,1.62,0,3.44,3.44,0,0,1,.64.12.2.2,0,0,1,.1.08c.06.12.11.24.16.36A8.58,8.58,0,0,0,6.91,38.67Zm-.13,0L6,39c-.09-.18-.19-.36-.29-.54a1.16,1.16,0,0,1,.7-.41Zm.08.12c.13.21.26.42.38.63l-.82.44c-.13-.25-.27-.48-.41-.74A2.35,2.35,0,0,1,6.86,38.8Zm.45.74c.1.21.19.4.29.59l-.74.48a.76.76,0,0,1-.08-.11L6.49,40A3,3,0,0,1,7.31,39.54Zm.33.68.35.66-.35.2a3.73,3.73,0,0,0-.34.24l-.38-.58A2.22,2.22,0,0,1,7.64,40.22ZM8,41l.46.74-.67.41-.47-.73A2.27,2.27,0,0,1,8,41Zm-.28-.82a4.48,4.48,0,0,1,2.72-.35l.29.64c-.46,0-.91,0-1.35.07s-.88.2-1.32.3Zm2.93-.3a.25.25,0,0,1,.07-.25,2.54,2.54,0,0,1,.69-.62A3.86,3.86,0,0,1,13,38.39l.33.56a3.84,3.84,0,0,0-1.34.53,2.87,2.87,0,0,0-1,1A2.86,2.86,0,0,1,10.68,39.87Zm2.76-2.43c.11.22.22.43.33.67l-.7.13-.39-.78.66-.07A.14.14,0,0,1,13.44,37.44Zm-.1-.17-.68.08-.2-.47a2.28,2.28,0,0,1,.64-.13A3.64,3.64,0,0,1,13.34,37.27Zm-.28-.64-.66.14-.18-.45.69-.06Zm-.45-.9a.2.2,0,0,1,.09.07l.16.35-.69.07a1.75,1.75,0,0,1-.26-.49Zm-3.14,1.5a.9.9,0,0,1,.29-.56,5.37,5.37,0,0,1,.44-.37,3.07,3.07,0,0,1,1.52-.57s0,0,.07,0l.24.49-.5.16a4.63,4.63,0,0,0-1.44.76,2,2,0,0,0-.3.35c0,.06-.09.14-.17.25A1.55,1.55,0,0,1,9.47,37.23Zm-3.24.07A5.86,5.86,0,0,1,7.79,37a3,3,0,0,1,.66.07c.26.06.51.14.77.21a.18.18,0,0,1,.1.07l.15.37a2,2,0,0,1-.28,0,2,2,0,0,0-.78-.07c-.24,0-.48,0-.71,0a3,3,0,0,0-1.28.25l-.32-.57Zm-1,.52A1.58,1.58,0,0,1,6,37.39l.3.54-.7.41Zm-.11.79.32-.2.29.53c.17.31.32.62.49.93s.43.77.66,1.15.51.8.77,1.2c.09.14.14.15.28,0a1.55,1.55,0,0,1,.5-.3l-.68.76a3.36,3.36,0,0,1-.24-.29c-.39-.58-.77-1.16-1.15-1.75-.13-.2-.27-.39-.39-.6Zm5.38,2.91a2.71,2.71,0,0,0-1.13.38,4.24,4.24,0,0,0-.59.33,2.07,2.07,0,0,0-.77,1l-.13.28c-.08-.09-.15-.14-.21-.21l-.82-1.07L6.3,41.5a6.7,6.7,0,0,1-.7-1.06c-.17-.3-.36-.59-.54-.88L5,39.44l.34-.15c.39.63.75,1.26,1.14,1.87a11.32,11.32,0,0,0,1.26,1.76.87.87,0,0,0,.32-.31A2.18,2.18,0,0,1,9,41.87l.56-.22a3.41,3.41,0,0,1,.57-.16,2.32,2.32,0,0,1,.59,0Zm-1.91.15-.2-.27c-.09-.15-.17-.3-.27-.46.18,0,.35-.09.51-.15a3.46,3.46,0,0,1,1.24-.19c.26,0,.52,0,.77,0a.29.29,0,0,1,.31.19l.25.46A8.16,8.16,0,0,0,8.61,41.67Zm3.07-.83c-.08.11-.17.23-.28.36-.11-.21-.22-.39-.32-.59a.2.2,0,0,1,0-.16,2.38,2.38,0,0,1,.34-.43,4,4,0,0,1,1.31-.8c.21-.07.42-.12.65-.18l.43.72-.16.05a5.61,5.61,0,0,0-1.61.65A1.6,1.6,0,0,0,11.68,40.84Zm.1.17a1.14,1.14,0,0,1,.43-.44A5.71,5.71,0,0,1,13.62,40a3.32,3.32,0,0,1,1-.08.2.2,0,0,1,.19.14,1.42,1.42,0,0,0,.13.23A8.89,8.89,0,0,0,11.78,41Zm.17.13a6.8,6.8,0,0,1,2.88-.65l.15.38A6.79,6.79,0,0,0,12,41.14Z"/><path class="cls-1" d="M5.84,30.7c-.26-.47-.54-.93-.82-1.39s-.49-.8-.74-1.2c-.12-.2-.26-.39-.38-.58L3.52,27,3,26.13c-.12-.17-.26-.32-.37-.49l-.68-1a3.55,3.55,0,0,0-.23-.31c-.1-.12-.17-.11-.24,0a.3.3,0,0,0,0,.08c-.13.24-.26.49-.4.73S.66,25.68.5,26s-.18.37-.27.55l-.44.79c-.11.21-.21.42-.31.63s-.08.21-.13.32-.21.46-.3.69-.06.18.11.25l0,0L.85,30l1.7.74c.31.13.62.25.92.4s.82.39,1.25.56l1.56.6.21.07,0,0a.75.75,0,0,0,0-.26C6.27,31.58,6.07,31.13,5.84,30.7ZM6.29,32l-.37-.17,0-.18,0,0-.13.12-.14,0,0-.15c-.1,0-.09.07-.16.09l-.23-.09,0-.21c-.12,0-.1.1-.17.15L5,31.44l0-.2h0l-.09.14-.23-.09c0-.07.09-.15,0-.22l-.09.17-.23-.08,0-.2,0,0s0,0-.06.06l-.06.09L3.91,31l0-.22c-.12,0-.09.12-.17.16l-.3-.13c0-.1.08-.18,0-.27l-.11.21L3,30.6c0-.09.08-.15,0-.25l-.15.19-.24-.11,0-.2c-.12,0-.1.1-.18.14l-.27-.1,0-.21c-.13,0-.1.11-.18.15l-.25-.12.07-.23c-.13,0-.11.11-.19.17l-.2-.09,0-.23c-.1.05-.1.05-.15.17l-.22-.09,0-.28c-.11,0-.1.15-.16.22l-.23-.09a2,2,0,0,0,.05-.24c-.13,0-.11.11-.18.17l-.12-.06a1.85,1.85,0,0,1,0-.23c-.13,0-.1.12-.18.16l-.23-.09c0-.08.08-.16,0-.22l-.09.17-.2-.09c0-.1.1-.16.06-.27s-.11.13-.18.19a.82.82,0,0,1-.4-.19l0-.12c.09,0,.17.11.27,0l-.11-.07-.12-.07.11-.24.26.06c0-.14-.14-.12-.21-.18l.09-.18H0c0-.11-.13-.07-.19-.14l.12-.26c.09,0,.15.12.26,0L0,27.72l-.11-.07A2.56,2.56,0,0,1,0,27.41c.12,0,.2.13.34.1,0-.15-.18-.13-.27-.22l.12-.23c.11,0,.21.1.33.06,0-.07,0-.07-.27-.17l.13-.25.28.07c0-.09,0-.09-.22-.18l.16-.28c.1,0,.18.07.27,0s-.12-.1-.18-.16L.83,26l.28.11c0-.16-.14-.14-.21-.21L1,25.62a.67.67,0,0,0,.18.07s.05,0,.07,0,0-.06,0-.07l-.17-.07.13-.25.24.06c0-.12-.13-.11-.17-.2l.12-.23.23.09c0-.12-.12-.12-.17-.18s.11-.22.21-.33l.16.19-.12.08v0h.18l.11.14-.14.12,0,0,.19-.05.12.2L2,25.38c.09.07.14,0,.22,0l.13.2-.13.12c.08.07.12,0,.2,0l.11.18L2.4,26c.11,0,.16,0,.25,0l.14.15c0,.1-.14.09-.12.19s.13-.06.21-.06l.17.21a.63.63,0,0,0-.12.07.22.22,0,0,0-.05.08l0,0,.21-.07a2.14,2.14,0,0,0,.13.19l-.11.14v0l.19,0,.12.2c-.05.07-.18.06-.12.2l.19-.08.14.22-.14.12c.08.07.14,0,.22,0l.14.19-.15.08c0,.1,0,.1.22,0a.35.35,0,0,1,0,.08S4,28,4,28s-.16.07-.15.18.15-.05.23,0l.15.24-.17.13c.11.1.18,0,.28,0l.09.17-.16.15c.1.11.16,0,.24,0l.15.24a.67.67,0,0,0-.14.09.08.08,0,0,0,0,.07s0,0,.06,0l.16-.07.14.2a1.7,1.7,0,0,0-.14.1.25.25,0,0,0,0,.09s.06,0,.09,0L5,29.5l.13.22L5,29.91c.09,0,.14-.06.23-.06l.12.2a.73.73,0,0,0-.13.1s0,.05,0,.08,0,0,.07,0a.51.51,0,0,0,.15-.07l.17.27c0,.09-.18.06-.18.18s.16,0,.26,0l.11.21L5.57,31c.11.08.16,0,.25,0l.11.24-.11.1a.25.25,0,0,0,0,.09s.06,0,.08,0l.1-.06.08.17-.13.16.19,0,.18.38Z"/><path class="cls-1" d="M4.58,30.45a1.63,1.63,0,0,0-.11-.23c-.44-.8-1-1.56-1.45-2.33-.21-.32-.41-.64-.61-1L1.89,26l-.14-.18a1.92,1.92,0,0,0-.18.29c-.18.35-.34.7-.5,1.05a1.09,1.09,0,0,0-.08.15L.65,28c-.09.19-.16.39-.25.61a3.81,3.81,0,0,0,.34.22l1.69.8a19.54,19.54,0,0,1,1.91.9l.14.05h.1A.17.17,0,0,0,4.58,30.45ZM4,30.18l-.88-.41-2-.94-.26-.12-.23-.14c.28-.81.77-1.51,1.08-2.33a4.78,4.78,0,0,1,.32.44c.14.23.26.46.4.68.32.5.64,1,1,1.5.21.32.4.65.6,1,0,.09.12.17.17.25a1.74,1.74,0,0,1,.11.18l0,0Z"/><path class="cls-1" d="M16.14-.53A1.29,1.29,0,0,0,14.8.15a1.17,1.17,0,0,0,0,1.25,3,3,0,0,0,.35.45,1.84,1.84,0,0,0,.34.27.17.17,0,0,0,.2,0,1.36,1.36,0,0,0,.3-.33l-.11-.09A1.66,1.66,0,0,1,15.36,1a.56.56,0,0,1,.35-.77.85.85,0,0,1,.87.22l.17.15L17,.47a.12.12,0,0,0,.07-.16A1.23,1.23,0,0,0,16.14-.53Zm.66,1c-.13-.09-.25-.2-.38-.28A.86.86,0,0,0,15.29.4a.65.65,0,0,0,0,.62,1.81,1.81,0,0,0,.47.69l.1.09s0,0,0,0l-.2.22a1,1,0,0,1-.37-.26,2.42,2.42,0,0,1-.38-.51,1,1,0,0,1,0-1,1.19,1.19,0,0,1,.64-.59,1.09,1.09,0,0,1,1.4.71Z"/><path class="cls-1" d="M14.41-2.6a.26.26,0,0,0-.41,0c-.17.18-.35.36-.52.55s-.51.56-.76.85c-.09.09-.16.2-.25.3a6.2,6.2,0,0,0,.69.67,1.56,1.56,0,0,0,1,.42.65.65,0,0,0,.64-.55.86.86,0,0,0-.18-.6l-.1-.14a.57.57,0,0,0,.51-.8A1.94,1.94,0,0,0,14.41-2.6Zm.47,1.22a.42.42,0,0,1-.44.18l-.18,0v0l.27.35a.66.66,0,0,1,.14.47.49.49,0,0,1-.5.45,1.3,1.3,0,0,1-.91-.37l-.63-.58.24-.28,1.2-1.3c.13-.14.16-.14.31,0a2.07,2.07,0,0,1,.52.62A.41.41,0,0,1,14.88-1.38Z"/><path class="cls-1" d="M44.74,35.88a2.24,2.24,0,0,0-.1-.37.21.21,0,0,0-.17-.13c-.3,0-.59-.08-.89-.1a4.35,4.35,0,0,0-1.71.27,4.71,4.71,0,0,0-.69.31,2.88,2.88,0,0,0-.78.65l-.18.19-.17-.42L39.9,36c-.07-.09-.13-.08-.17,0s-.13.38-.19.58c0,0,0,.08,0,.13l-.58-.21-.17,0c-.07,0-.09,0-.07.11a.16.16,0,0,0,0,.09c.1.16.21.32.31.49l.1.13-.07.1-.37.54s0,.07,0,.09a.3.3,0,0,0,.1,0l.08,0,.49-.13.24-.05a3.13,3.13,0,0,0,.15.32,1.81,1.81,0,0,0,.19.29c.05.07.11.06.14,0a.7.7,0,0,0,.08-.2l.12-.43H41c.12,0,.15-.07.08-.17L41,37.61a1.54,1.54,0,0,1-.16-.18l.35,0a4.8,4.8,0,0,1,.85.07c.26.07.53.11.78.2s.64.29.95.44.29.1.44-.1a.54.54,0,0,0,.1-.16c.09-.17.18-.34.26-.51a2.3,2.3,0,0,0,.22-1.15A2.2,2.2,0,0,0,44.74,35.88Zm-4.07.5A3.48,3.48,0,0,1,42,35.64a4.55,4.55,0,0,1,1.59-.24c.26,0,.52.07.77.09a.24.24,0,0,1,.26.2,2.41,2.41,0,0,1,.05.5L44,36a2.6,2.6,0,0,0-1.11,0,6.16,6.16,0,0,0-1.48.36l-.73.34a.62.62,0,0,1-.36,0Zm.26,1.34a1.27,1.27,0,0,1-.32,0h-.34a.13.13,0,0,0-.14.12l-.15.5h0c-.14-.18-.18-.41-.31-.6-.27,0-.51.15-.79.18,0,0,0-.05,0-.07s.21-.32.33-.48,0-.1,0-.16l-.31-.44-.1-.17.1,0,.53.17c.13,0,.15,0,.19-.09l.17-.53,0-.1.15.32.12.31a.18.18,0,0,0,.21.13l.37,0h.18s-.07.07-.1.08l-.34.22c-.09.06-.09.09,0,.15s.13.09.19.15A3.8,3.8,0,0,1,40.93,37.72Zm3.16.26-.09.09s-.08,0-.1,0a3,3,0,0,1-.41-.19l-.56-.25-.21-.08a6,6,0,0,0-1.46-.23,4.87,4.87,0,0,1-.54,0,.56.56,0,0,1-.2-.08.53.53,0,0,1,.29-.16,5.52,5.52,0,0,1,1-.09c.21,0,.43,0,.65,0,.41,0,.83.06,1.24.12a2.58,2.58,0,0,1,.58.18.72.72,0,0,1,.15.11A3,3,0,0,1,44.09,38Zm.4-.74-.23-.12a4.19,4.19,0,0,0-1-.23,12.26,12.26,0,0,0-2,0l-.25,0c.15-.17.15-.18,0-.26.21-.09.4-.18.6-.25a6,6,0,0,1,1.87-.36,3.48,3.48,0,0,1,1.22.27A3.1,3.1,0,0,1,44.49,37.24Z"/><path class="cls-1" d="M12.63,2.53l-1.81.61c-.47.16-.94.34-1.41.52-.17.06-.33.13-.5.18l-1.38.43c-.25.08-.49.18-.74.27l-1.57.54a.18.18,0,0,1-.16,0,.7.7,0,0,0-.87.2,4.55,4.55,0,0,0-.73,1.06A2.49,2.49,0,0,1,3,7a.56.56,0,0,0-.05.08l0,0a5.23,5.23,0,0,0,1.72,0,1.63,1.63,0,0,0,1-.54,2.18,2.18,0,0,1,.26-.34c.11-.1.27-.15.39-.24A2.56,2.56,0,0,1,7,5.63l2.51-1,1.61-.7,1.74-.73c.27-.11.33-.28.17-.53S12.84,2.46,12.63,2.53ZM5.18,5.4c.11,0,.15,0,.2.11a5.42,5.42,0,0,1-1.62,1.1,3.4,3.4,0,0,1,.8-1A2,2,0,0,1,5.18,5.4Zm.3.26a.26.26,0,0,1,0,.39,2.1,2.1,0,0,1-1.63.77l-.13,0A9.08,9.08,0,0,0,5.48,5.66ZM4.33,5.34a.53.53,0,0,1,.39-.2.45.45,0,0,1,.34.11c-.17.09-.35.16-.52.26a2.25,2.25,0,0,0-.71.76,1.56,1.56,0,0,1-.44.48A5,5,0,0,1,4.33,5.34ZM5.62,6.41a1.28,1.28,0,0,1-.8.54,2.62,2.62,0,0,1-.84.1,4.14,4.14,0,0,0-.61,0l0,0s.09-.07.13-.07a.81.81,0,0,1,.22,0,2.16,2.16,0,0,0,1.7-.61l.22-.22A.2.2,0,0,1,5.62,6.41Zm.22-.27a4.23,4.23,0,0,0-.19-.51c-.08-.15-.2-.27-.3-.42A2.06,2.06,0,0,1,6,5a2.59,2.59,0,0,1,.38.86Zm7-3.13-1.58.66c-.59.26-1.19.53-1.79.78L7,5.49l-.45.2c-.13-.26-.24-.51-.37-.77l.68-.23.74-.26C8,4.28,8.45,4.15,8.9,4l.57-.22,1.46-.53,1.26-.45.54-.16c.12,0,.17,0,.22.15S13,3,12.86,3Z"/><path class="cls-1" d="M24-1.12a14.83,14.83,0,0,0-.66-2c-.09-.23-.16-.47-.24-.7-.21-.6-.42-1.2-.64-1.8A.59.59,0,0,0,21.85-6c-.65,0-1.3,0-1.94,0-.89,0-1.79.1-2.68.16a.73.73,0,0,0-.63.35.86.86,0,0,0,.28,1.12.84.84,0,0,0,.2.63c.14.14.12.31.15.47s.18.29.15.5a.71.71,0,0,0,.3.78,1.06,1.06,0,0,0,.23.84s0,.15,0,.23a.72.72,0,0,0,.15.56.38.38,0,0,1,.07.21,1.18,1.18,0,0,0,.16.66.46.46,0,0,1,0,.17,6.48,6.48,0,0,0,.3,1.15.35.35,0,0,1,.05.08,1,1,0,0,1,.12.29.73.73,0,0,0,1,.55.66.66,0,0,1,.34-.06l1.52.05c.21,0,.42,0,.63,0a10.92,10.92,0,0,0,2.14,0c.21,0,.24,0,.21-.25a1.68,1.68,0,0,1,.09-.89.75.75,0,0,0,0-.62C24.47.32,24.21-.39,24-1.12Zm-7.15-3.6a.52.52,0,0,1,.3-.86c0,.13.07.27.11.4Zm.38.73a.64.64,0,0,1,.1-.89c.06.18.12.34.18.5Zm.27.76a.83.83,0,0,1,.07-.85h.07c.07.2.13.41.2.62Zm.44,0c.07.18.13.36.2.55l-.41.34A.55.55,0,0,1,18-3.2ZM18-1.41a.62.62,0,0,1,.2-1c.1.23.18.45.27.66Zm.19.82a.65.65,0,0,1,0-.56.38.38,0,0,1,.34-.28l.18.53Zm.57,0L19-.11l-.49.32C18.31-.24,18.4-.48,18.8-.63ZM18.58.92c0-.45.12-.71.49-.75a3.54,3.54,0,0,1,.12.34Zm.25.72c-.23-.38,0-.73.46-.86l.21.4A.93.93,0,0,0,18.83,1.64Zm.81.88a.39.39,0,0,1-.39,0,.35.35,0,0,1-.1-.11.64.64,0,0,1,.48-1,2.53,2.53,0,0,1,.07.38,3.17,3.17,0,0,1,0,.44C19.73,2.34,19.77,2.46,19.64,2.52Zm0-1.7.28.05a.18.18,0,0,0-.17-.28c-.26,0-.34-.17-.36-.4l.24,0c0-.05,0-.11,0-.12l-.38-.17c0-.14-.09-.32-.16-.55l.34.13c.09-.15,0-.23-.1-.29S19.11-.92,19-1l-.17-.53.37.13c.12-.15,0-.22-.1-.27a1.87,1.87,0,0,0-.33-.1l-.26-.69c.12-.1.19,0,.26,0s.13,0,.13,0,0-.14,0-.15-.29-.11-.48-.19-.12-.31-.19-.51a.27.27,0,0,1,.32,0,.17.17,0,0,0,.17,0c.08-.08,0-.14-.06-.2a.41.41,0,0,0-.38-.1l-.15,0-.25-.74a1.4,1.4,0,0,1,.29,0,1.58,1.58,0,0,1,.26.13c0-.28,0-.38-.21-.39a3.62,3.62,0,0,0-.45,0l-.16-.45c.18-.17.27.07.45.05,0,0,0-.11,0-.15-.11-.25-.35-.18-.56-.19-.05-.11-.09-.22-.13-.32.19-.14.2.11.36.13a2.59,2.59,0,0,1,.1-.24,31.26,31.26,0,0,1,4.34-.11c.85,2.33,1.57,4.68,2.3,7.05l-.19.05-2.15.09-.41,0-.75,0-.47,0C20,1.41,19.85,1.32,19.64.82ZM24.4,2.07c0,.15,0,.31,0,.48a8.09,8.09,0,0,1-1.55,0,10.06,10.06,0,0,0-1.55-.07c-.42,0-.85,0-1.31-.08,0-.27,0-.5-.07-.76.78,0,1.54,0,2.3,0l2.28-.09C24.46,1.76,24.42,1.91,24.4,2.07Z"/><path class="cls-1" d="M23.12.33a.36.36,0,0,1-.21,0,.44.44,0,0,0-.53,0,.37.37,0,0,1-.39,0,.3.3,0,0,0-.4.09.3.3,0,0,1-.21.07c-.23,0-.46,0-.7,0,.05.19.18.17.3.17s.19,0,.26,0a.44.44,0,0,0,.58-.14A.64.64,0,0,0,22.5.45a.19.19,0,0,1,.27,0c.2.16.41.13.6-.14A2.08,2.08,0,0,1,23.12.33Z"/><path class="cls-1" d="M35.33,37c-.4-.37-.78-.76-1.18-1.12a24.77,24.77,0,0,1-1.77-1.78c-.16-.18-.2-.18-.37,0s-.57.54-.87.79a21,21,0,0,0-1.86,1.68c-.26.27-.51.54-.77.8l-.51.49a.17.17,0,0,0-.08.2c0,.11.11.12.2.13H30l2.05-.07v0c.46,0,.91,0,1.37-.08.67-.06,1.34-.16,2-.24.11,0,.22,0,.34,0s.22-.15.08-.29ZM32.2,34.11l.52.57a.94.94,0,0,1-1.23.07ZM28.07,38a2.57,2.57,0,0,1,.43-.44c.14-.14.26-.29.36-.41a.88.88,0,0,1,.61.81A10.76,10.76,0,0,1,28.07,38Zm6.16-.21a14.57,14.57,0,0,1-1.75.14c-.55,0-1.1,0-1.65,0-.35,0-.71,0-1.06,0h-.14A1.28,1.28,0,0,0,29,37a16,16,0,0,1,2.35-2.18,1.2,1.2,0,0,0,1.42-.06l2,1.94a1.24,1.24,0,0,0-.42,1A1,1,0,0,1,34.23,37.78Zm.32,0a1,1,0,0,1,.37-.91c.27.27.55.48.82.77Z"/><path class="cls-1" d="M32.46,33a.49.49,0,0,0,.12-.4c0-.13-.07-.18-.2-.18s-.34.09-.39.34,0,.3-.2.37c.14.06.2.14.17.27v0c0,.15.11.22.26.2a.44.44,0,0,0,.35-.24A.31.31,0,0,0,32.46,33Zm-.05-.43c0,.25,0,.35-.27.4C32.11,32.68,32.16,32.6,32.41,32.58Zm0,.79a.31.31,0,0,1-.25.13c-.06-.12-.06-.12,0-.3l.18,0a.17.17,0,0,1,.12,0A.18.18,0,0,1,32.42,33.37Z"/><path class="cls-1" d="M36.82,37.91a.35.35,0,0,1-.2,0,.17.17,0,0,1-.13-.19.22.22,0,0,1,.19-.21l.21,0c0-.15-.13-.14-.21-.13a.39.39,0,0,0-.33.27.35.35,0,0,0,.12.4.37.37,0,0,0,.42,0C37,38,37,38,37,37.91S36.88,37.89,36.82,37.91Z"/><path class="cls-1" d="M27.12,37.58S27,37.5,27,37.52s-.08.09-.09.15c0,.3-.05.6-.07.9a.41.41,0,0,0,0,.12c.17-.12.07-.3.15-.45l.29-.05.18.33c0,.07.09.09.16,0a3.53,3.53,0,0,0-.36-.76A.9.9,0,0,0,27.12,37.58Zm.05.48-.17,0c0-.11,0-.21,0-.31l0,0a2.93,2.93,0,0,1,.18.26Z"/><path class="cls-1" d="M38.78,42.46c-.2-.7-.37-1.4-.56-2.1a2.09,2.09,0,0,0-.26-.72l-.79,0-1.37,0-.16,0c-.37,0-.73.11-1.1.14a.39.39,0,0,0-.38.31c-.06.23-.12.45-.17.68a.74.74,0,0,0,0,.33c.12.44.24.88.37,1.32.17.6.34,1.19.5,1.79.11.37.21.74.31,1.11a.8.8,0,0,0,.13.24.68.68,0,0,0,.52.29l.58.06a1.83,1.83,0,0,0,0,.21,3.85,3.85,0,0,0,.08.49.13.13,0,0,0,.18.1c.11,0,.17-.13.12-.23a1.12,1.12,0,0,1,0-.58h.17l1,0,.83,0a.37.37,0,0,0,.34-.17c.06-.12,0-.22-.09-.32a.36.36,0,0,1,.14-.54.24.24,0,0,0,.15-.21,1.4,1.4,0,0,0,0-.61C39.08,43.49,38.92,43,38.78,42.46Zm-3.43,2.85h0c-.06-.18-.12-.35-.17-.54-.15-.56-.29-1.12-.45-1.68-.1-.38-.23-.75-.34-1.12s-.14-.47-.2-.71a.4.4,0,0,1,0-.15,2.7,2.7,0,0,1,.17-1c.17.6.34,1.17.51,1.74l.73,2.38a.37.37,0,0,1,0,.23C35.5,44.77,35.42,45,35.35,45.31Zm1.27.14c-.1-.13-.15-.37-.43-.24,0,.07.05.13.08.22l-.3,0a.6.6,0,0,1,0-.12c0-.46.08-.46.48-.46h2.43c0,.18,0,.34-.06.53Zm2.34.11c0,.06-.06.12-.15.13l-.37,0-1.53,0h-.19a.2.2,0,0,1,0-.08.17.17,0,0,1,0-.07l0,0H37l1.29-.07h.57C38.87,45.49,38.94,45.48,39,45.56Zm.06-.84H38l-1.5,0h-.14c-.39,0-.42.09-.49.45a.49.49,0,0,0,0,.12c0,.22,0,.28.28.3h.27l0,.19c-.23,0-.44,0-.65-.06a.42.42,0,0,1-.18-.08s-.07-.09-.06-.13c0-.29.11-.57.17-.86,0-.12.15-.12.24-.13a4,4,0,0,1,.49,0h1.27l.93,0c.17,0,.35,0,.53,0C39.16,44.64,39.13,44.71,39,44.72Zm-.39-.36-.89,0-1,0-1,.06c-.13-.22-1.29-4-1.33-4.38a12.18,12.18,0,0,1,3.47-.16s0,.09.05.14c.38,1.43.75,2.86,1.19,4.28v.09Z"/><path class="cls-1" d="M2.24,19.73l-.1-.05a5.21,5.21,0,0,0,.32-.55.62.62,0,0,0-.61-.94H1.36a2.21,2.21,0,0,0-.08-.42.4.4,0,0,0-.42-.3,1.16,1.16,0,0,0-.55.09L0,17.7a.68.68,0,0,0-.72-.38c-.34,0-.5.28-.66.55a.54.54,0,0,0-.65-.22.89.89,0,0,0-.56.48.82.82,0,0,0-1-.1c-.35.19-.38.54-.44.89l-.39-.08a.84.84,0,0,0-1,.68,3.53,3.53,0,0,0,0,.46,1.18,1.18,0,0,0-.72.24.78.78,0,0,0,0,1.36s0,0,0,0a3.85,3.85,0,0,0-.35.55.77.77,0,0,0,.7,1.11h.33a.82.82,0,0,0,.46.86.93.93,0,0,0,1-.05.83.83,0,0,0,.71.4.78.78,0,0,0,.73-.36c.22.07.42.15.63.2a.81.81,0,0,0,.62-.13.91.91,0,0,0,.35-.53,1.37,1.37,0,0,0,.8,0,.41.41,0,0,0,.3-.19l.24-.42a1.2,1.2,0,0,1,.19,0,.67.67,0,0,0,.71-.46c.05-.12.07-.25.11-.37h.11a.77.77,0,0,0,.76-.48A.54.54,0,0,0,2.16,21v0c.11-.16.24-.3.33-.46A.59.59,0,0,0,2.24,19.73Zm0,.77a.9.9,0,0,1-.36.39c-.12.05-.11.15,0,.24s0,0,0,0c.26.18.29.31.14.59a.65.65,0,0,1-.72.32l-.11,0c-.13,0-.17,0-.13.16a.54.54,0,0,1-.2.63.56.56,0,0,1-.68,0s-.06.08-.07.13,0,.11,0,.16a.51.51,0,0,1-.47.47,1.07,1.07,0,0,1-.25,0A.46.46,0,0,1-1,23.37S-1,23.3-1,23.31a.19.19,0,0,0-.09.09,1.52,1.52,0,0,0,0,.21.52.52,0,0,1-.56.51,1.61,1.61,0,0,1-.43-.07.37.37,0,0,1-.32-.28s-.07-.06-.11-.09l-.08.11a0,0,0,0,1,0,0,.43.43,0,0,1-.24.4.81.81,0,0,1-.61,0c-.12,0-.2-.19-.29-.29a.85.85,0,0,1-.1-.17.79.79,0,0,1-1,.16c-.27-.18-.3-.32-.23-.84a.22.22,0,0,0-.27,0A.8.8,0,0,1-6,23a.52.52,0,0,1-.31-.5,1,1,0,0,1,.41-.75l0,0c.16-.12.15-.18,0-.27l-.07,0a.47.47,0,0,1-.35-.4.62.62,0,0,1,.24-.64.86.86,0,0,1,.79-.18c.05,0,.15,0,.16,0a.21.21,0,0,0,0-.19.62.62,0,0,1-.06-.56A.58.58,0,0,1-4.64,19a4.17,4.17,0,0,1,.6.1c.17.05.2,0,.22-.14a3.7,3.7,0,0,1,.08-.48.53.53,0,0,1,.48-.38.58.58,0,0,1,.56.22s0,.07.06.1.14,0,.18,0a.65.65,0,0,0,0-.13.58.58,0,0,1,.51-.47.34.34,0,0,1,.32.15,2.38,2.38,0,0,0,.23.27c.06-.14.11-.23.15-.33a.55.55,0,0,1,.59-.37.41.41,0,0,1,.38.25s0,.08,0,.11.12.14.23.05a1.28,1.28,0,0,1,.78-.28c.2,0,.29.07.32.27a1.93,1.93,0,0,1,0,.34c0,.17,0,.21.19.18a4.44,4.44,0,0,1,.63,0c.3,0,.43.21.38.51a1.09,1.09,0,0,1-.48.7c-.07.05-.2.07-.17.19s.17.08.27.08A.38.38,0,0,1,2.29,20.5Z"/><path class="cls-1" d="M-.73,19.2a1.41,1.41,0,0,0-.36.91A3.62,3.62,0,0,0-1,20.7a.85.85,0,0,0,.73.64,2,2,0,0,0,.42,0A.63.63,0,0,0,.64,21a1.64,1.64,0,0,0,0-1.63A1,1,0,0,0-.73,19.2ZM.49,20.82a.48.48,0,0,1-.44.3c-.45.06-.7-.09-.86-.61a3,3,0,0,1,0-.42,1.06,1.06,0,0,1,.28-.79.28.28,0,0,1,.22-.11H-.2c.41,0,.67.1.81.68A1.43,1.43,0,0,1,.49,20.82Z"/><path class="cls-1" d="M30.54,39.67a9.59,9.59,0,0,0-1,.32,2,2,0,0,1-1,.11A11.83,11.83,0,0,0,27,39.88a1.63,1.63,0,0,0-1.32.5,1.48,1.48,0,0,0-.39,1.1,2.58,2.58,0,0,0,.33,1.05c.26.47.57.91.85,1.36h0l.12.15A4.88,4.88,0,0,0,28,45.13a2.12,2.12,0,0,0,1.5.22c.34-.07.67-.18,1-.26a3.11,3.11,0,0,0,.76-.36,2.63,2.63,0,0,0,.92-.83,1.67,1.67,0,0,0,.28-.45,2.9,2.9,0,0,0-.17-2.54,5.66,5.66,0,0,0-.83-1A.9.9,0,0,0,30.54,39.67ZM32.11,41a2.73,2.73,0,0,1,.37,1.17,2.43,2.43,0,0,1-.21,1.28,2.15,2.15,0,0,1-.5.69,3.67,3.67,0,0,1-1.49.86c-.3.09-.61.16-.92.22a1.65,1.65,0,0,1-1.05-.12,4.7,4.7,0,0,1-1.65-1.25l-.83-1.23a2.62,2.62,0,0,1-.38-1.13,1.38,1.38,0,0,1,.93-1.34,2.15,2.15,0,0,1,.67-.07,9.48,9.48,0,0,1,1.4.22,2.13,2.13,0,0,0,1-.09c.38-.12.77-.23,1.15-.33a.81.81,0,0,1,.83.23A9.89,9.89,0,0,1,32.11,41Z"/><path class="cls-2" d="M39.06,9.16a.94.94,0,0,0-.5-.33h-.07a1.22,1.22,0,0,0-.67.25l-.11.08a5.87,5.87,0,0,0-.59.37s0,0,0,0a6.3,6.3,0,0,1-.55.48.67.67,0,0,0-.22.19,3.9,3.9,0,0,1-.45.46,2.56,2.56,0,0,0-.58.76.56.56,0,0,0,0,.38.7.7,0,0,0,.45.41.87.87,0,0,0,.93-.36.93.93,0,0,1,.21-.23.44.44,0,0,0,.17-.16.13.13,0,0,1,.14-.08l-.06.09a.16.16,0,0,0,.05.22.22.22,0,0,0,.27-.07.25.25,0,0,1,.14-.13,1.34,1.34,0,0,0,.44-.34c.07-.09.18-.13.23-.23s.29-.3.39-.49c0,0,0,0,0,0a.65.65,0,0,0,.21-.3,3.68,3.68,0,0,1,.21-.45A.47.47,0,0,0,39.06,9.16Zm-2,.59a.69.69,0,0,1,.25-.19,1.11,1.11,0,0,1-.24.2S37.08,9.77,37.09,9.75Zm-.44.38a1,1,0,0,0,.19-.17.55.55,0,0,1,.16-.1,5.57,5.57,0,0,1-.52.48c-.06.05-.1.13-.19.15A1.37,1.37,0,0,1,36.65,10.13Zm-.37.37c0,.08-.08.12-.17.19C36.15,10.58,36.24,10.55,36.28,10.5Zm-.61.59-.05.11h0A.13.13,0,0,1,35.67,11.09Zm.06,1a1,1,0,0,1-.32-.26.24.24,0,0,1,0-.28c0-.08.07-.16.12-.24s0-.12.12-.11a.62.62,0,0,0-.14.58.34.34,0,0,0,.17.2l.18.1C35.79,12.13,35.76,12.1,35.73,12.09Zm1.32-.93c-.19.17-.39.33-.57.52a2.43,2.43,0,0,1-.25.2.3.3,0,0,1-.37,0,.41.41,0,0,1-.13-.68,2.75,2.75,0,0,1,.46-.44,1.65,1.65,0,0,0,.24-.22c.17-.17.35-.32.52-.48,0,0,0,0,0,0l-.11.11a3.09,3.09,0,0,0-.36.45.4.4,0,0,1-.15.14.11.11,0,0,0,0,.2.16.16,0,0,0,.19,0c.08-.09.17-.15.25-.24a5.81,5.81,0,0,1,.43-.43c.09-.07.21-.11.3-.19a.11.11,0,0,1,.14,0,.18.18,0,0,1,.06.17,1.38,1.38,0,0,1-.2.38A2.51,2.51,0,0,1,37.05,11.16Zm.06-.95a.36.36,0,0,1-.18.16A.39.39,0,0,1,37.11,10.21Zm.83.06h0a.11.11,0,0,1,0-.09.37.37,0,0,0-.2-.27l0,0c.14-.1.23-.07.27.08S37.93,10.17,37.94,10.27Zm0,0s0,.06,0,.09S37.91,10.31,37.93,10.29Zm-.78,1.11a1.19,1.19,0,0,1,.33-.34,2.16,2.16,0,0,0,.53-.67.75.75,0,0,0,0-.51.26.26,0,0,0-.33-.18,1.19,1.19,0,0,0-.35.15c-.12.06-.23.15-.35.2a1.18,1.18,0,0,1,.3-.29A5,5,0,0,1,38,9.29a1.28,1.28,0,0,1,.46-.17.27.27,0,0,1,.3.21.5.5,0,0,1,0,.36,2,2,0,0,1-.28.47,5.59,5.59,0,0,1-.45.52c-.16.15-.34.29-.49.44a2.83,2.83,0,0,0-.25.24S37.2,11.42,37.15,11.4Zm1.76-1.69a.59.59,0,0,0-.06.14,1.77,1.77,0,0,1-.34.53c-.13.13-.23.29-.36.43a2,2,0,0,1-.69.58c-.07,0-.11.11-.19.14s.11-.13.17-.18l.44-.38a4,4,0,0,0,.91-1.13.6.6,0,0,0,0-.67s0,0,0-.06l.14.08a.21.21,0,0,1,.09.18A.64.64,0,0,1,38.91,9.71Z"/><path class="cls-2" d="M8-.49A1.57,1.57,0,0,0,7.22-1,.48.48,0,0,0,7.1-1a1.94,1.94,0,0,0-1,.4,1.77,1.77,0,0,1-.17.12,9.14,9.14,0,0,0-.94.58s0,0-.06.06c-.3.24-.56.53-.88.74a1.47,1.47,0,0,0-.35.31,5.29,5.29,0,0,1-.7.72A3.82,3.82,0,0,0,2,3.12a.72.72,0,0,0,0,.59,1.11,1.11,0,0,0,.69.65,1.39,1.39,0,0,0,1.48-.57,1.23,1.23,0,0,1,.33-.35,1,1,0,0,0,.26-.27A.24.24,0,0,1,5,3.05a1.34,1.34,0,0,0-.11.14A.28.28,0,0,0,5,3.55a.36.36,0,0,0,.43-.12.37.37,0,0,1,.21-.2,1.89,1.89,0,0,0,.7-.55c.11-.13.28-.2.37-.35s.45-.48.6-.77a.23.23,0,0,1,.07-.07A1,1,0,0,0,7.67,1C7.79.79,7.86.54,8,.31A.71.71,0,0,0,8-.49ZM4.9.44a1.16,1.16,0,0,1,.39-.3,1.89,1.89,0,0,1-.37.32S4.89.47,4.9.44ZM4.22,1A3.58,3.58,0,0,0,4.51.78.83.83,0,0,1,4.75.61a8.06,8.06,0,0,1-.81.76c-.09.08-.16.2-.29.23A2,2,0,0,1,4.22,1Zm-.59.57c0,.14-.13.2-.27.31C3.43,1.75,3.56,1.71,3.63,1.61Zm-1,1-.09.17h0A.22.22,0,0,1,2.67,2.56Zm.09,1.56a1.18,1.18,0,0,1-.5-.41.36.36,0,0,1,0-.43c.07-.13.11-.26.18-.38s.07-.19.19-.17a1,1,0,0,0-.21.91A.49.49,0,0,0,2.64,4l.28.17C2.86,4.18,2.8,4.14,2.76,4.12ZM4.84,2.66c-.3.27-.62.52-.9.82a3.3,3.3,0,0,1-.4.32.48.48,0,0,1-.58,0,.65.65,0,0,1-.2-1.07,3.67,3.67,0,0,1,.73-.69,2.47,2.47,0,0,0,.37-.35c.26-.27.55-.51.83-.76a.1.1,0,0,1,.07,0l-.17.19a4.9,4.9,0,0,0-.58.7A.72.72,0,0,1,3.78,2a.16.16,0,0,0,0,.3.26.26,0,0,0,.31,0c.12-.13.26-.24.38-.37a7.27,7.27,0,0,1,.68-.68c.14-.12.33-.18.47-.3a.18.18,0,0,1,.22,0A.25.25,0,0,1,6,1.24a2.17,2.17,0,0,1-.3.61A3.89,3.89,0,0,1,4.84,2.66Zm.1-1.5a.49.49,0,0,1-.29.25A.63.63,0,0,1,4.94,1.16Zm1.3.1h0a.25.25,0,0,1-.08-.14A.55.55,0,0,0,5.84.69s0,0,0,0c.21-.15.36-.1.41.14A2.57,2.57,0,0,1,6.24,1.26Zm0,0c0,.05,0,.11-.06.15S6.19,1.32,6.22,1.28ZM5,3.05a2,2,0,0,1,.52-.55,3.28,3.28,0,0,0,.83-1.06,1.06,1.06,0,0,0,0-.8A.39.39,0,0,0,5.88.36a2,2,0,0,0-.56.23,3.76,3.76,0,0,1-.55.32A2.56,2.56,0,0,1,5.24.45a9.49,9.49,0,0,1,1-.74A2.3,2.3,0,0,1,7-.55c.2,0,.39.09.48.33a.75.75,0,0,1,0,.57A2.64,2.64,0,0,1,7,1.09a8.93,8.93,0,0,1-.69.81c-.26.25-.54.46-.79.7s-.28.23-.39.37A.16.16,0,0,1,5,3.05ZM7.77.38a.81.81,0,0,0-.1.21,2.86,2.86,0,0,1-.52.85c-.21.2-.38.45-.58.67A3.2,3.2,0,0,1,5.49,3c-.11,0-.18.16-.3.21.09-.1.17-.2.26-.29l.69-.6A6.12,6.12,0,0,0,7.58.59a1,1,0,0,0,0-1.07s0-.05,0-.09a.7.7,0,0,1,.24.13.36.36,0,0,1,.12.29A.89.89,0,0,1,7.77.38Z"/><path class="cls-2" d="M2,11.66a1.76,1.76,0,0,0-1.06.16A1.2,1.2,0,0,1,.48,12a.33.33,0,0,1-.4-.18,5.11,5.11,0,0,0-.48-.73,1.37,1.37,0,0,0-.79-.62c-.17,0-.25,0-.28.16a12.4,12.4,0,0,0-.31,1.59.61.61,0,0,1-.48.61c-.37.14-.75.29-1.11.46s-.35.4,0,.59a3,3,0,0,0,.79.36c.16,0,.31.1.46.15s.18.12.13.27a6.3,6.3,0,0,0-.2.94.88.88,0,0,0,0,.39.22.22,0,0,0,.25.17A.63.63,0,0,0-1.7,16,9.43,9.43,0,0,0-.52,14.9a.32.32,0,0,1,.33-.13l.26.06a5.1,5.1,0,0,0,1.4.21A2.91,2.91,0,0,0,2,15a.3.3,0,0,0,.22-.47,5.21,5.21,0,0,0-.76-1c-.19-.16-.19-.19,0-.37a10.27,10.27,0,0,1,.68-.8.69.69,0,0,0,.18-.31C2.34,11.83,2.24,11.69,2,11.66Zm-.07.48-.29.29a10.41,10.41,0,0,1-.68.81.21.21,0,0,0,0,.3c.1.12.21.24.32.35a3,3,0,0,1,.57.78,1.06,1.06,0,0,1-.52.05A6.21,6.21,0,0,1,0,14.49a3.54,3.54,0,0,0-.45-.08c-.15,0-.28,0-.3.21s0,.09-.05.11c-.31.24-.47.63-.81.84a3.68,3.68,0,0,0-.32.23,3.46,3.46,0,0,1,.1-1,1.64,1.64,0,0,1,.1-.38c.06-.17,0-.26-.15-.34A1.52,1.52,0,0,0-2.28,14a2.34,2.34,0,0,1-1-.39.18.18,0,0,1,.15-.15c.39-.13.73-.37,1.13-.48a.44.44,0,0,0,.34-.31,4.49,4.49,0,0,0,.2-1,5.7,5.7,0,0,1,.22-.81.56.56,0,0,1,.42.28A9.23,9.23,0,0,1,0,12.28c.1.24.12.23.33.08,0,0,0,0,0,0A7.87,7.87,0,0,1,1.61,12h.27C2,12,2,12.08,1.92,12.14Z"/><path class="cls-2" d="M2.54,36.53a.1.1,0,0,1,0,0,.34.34,0,0,0,.22-.37,2,2,0,0,1,0-.23c0-.06,0-.14.09-.14s.14-.09.22-.13l.69-.41A1.65,1.65,0,0,0,4.1,35c.22-.2.46-.37.68-.56A1.81,1.81,0,0,0,5.2,34a.54.54,0,0,1,.07-.13.64.64,0,0,0-.35-.95l-.08,0a.51.51,0,0,0-.45.09A1.2,1.2,0,0,0,4,33.3a4.6,4.6,0,0,0-.31.53s0,.09-.09.1,0,0,0,0a.45.45,0,0,1,.11-.19c.09-.11.08-.16,0-.27a.9.9,0,0,0-.2-.14,1.9,1.9,0,0,0-.46-.1l-.79-.07a6.17,6.17,0,0,0-.86,0,3.23,3.23,0,0,0-.44,0c-.15,0-.31,0-.46.06a.85.85,0,0,0-.47.22l-.06,0s-.07,0-.09,0A1.22,1.22,0,0,0-.29,33a.42.42,0,0,0-.3-.17s-.07,0-.1,0a.69.69,0,0,0-.62.11.51.51,0,0,0-.25.37,3.26,3.26,0,0,0,0,.54.71.71,0,0,0,.12.38,1.28,1.28,0,0,0,.31.35,1.6,1.6,0,0,1,.27.25l.24.21c.15.13.31.22.46.34a1.61,1.61,0,0,0,.6.36l.35.13a.26.26,0,0,1,.2.27.33.33,0,0,0,.26.32.11.11,0,0,1,.09,0,1.3,1.3,0,0,1,.22.29.15.15,0,0,1,0,.2.2.2,0,0,0,0,.28l.1.12a.18.18,0,0,1,0,.25.27.27,0,0,1-.11.1s-.06.05,0,.08a1.28,1.28,0,0,0,.07.28.8.8,0,0,1,.09.43c0,.05,0,.1-.06.11a.5.5,0,0,1-.38,0s-.07,0-.11,0-.25.23-.36.35a2,2,0,0,1-.35.31c-.12.08-.11.08-.08.22a1.13,1.13,0,0,1,0,.18s0,.09,0,.13,0,.34.07.51,0,.12.12.11a2.44,2.44,0,0,1,.38,0l.26,0a6.12,6.12,0,0,1,.85,0,3.07,3.07,0,0,0,.68,0,3.77,3.77,0,0,1,.67,0c.15,0,.3,0,.45,0s.11,0,.09-.14a.8.8,0,0,1,0-.15c0-.15,0-.31,0-.46a.12.12,0,0,1,.05-.11c.06,0,.06-.07,0-.12l-.23-.23-.37-.3-.17-.16a.1.1,0,0,0-.14,0,.35.35,0,0,1-.42,0,1.73,1.73,0,0,1-.14-.31.75.75,0,0,1,0-.39.15.15,0,0,0,0-.19c-.13-.17-.16-.3,0-.46a.21.21,0,0,0,0-.25.2.2,0,0,1,0-.23A1,1,0,0,0,2.54,36.53Zm.74-1.24a2.19,2.19,0,0,0,.2-.95c.06,0,.11,0,.17,0a.41.41,0,0,0,.3-.24,1.19,1.19,0,0,0,.08-.2,2.45,2.45,0,0,1,.34-.64.42.42,0,0,1,.25-.16.25.25,0,0,1,.32.14l.07.12a.36.36,0,0,1,0,.23,1.3,1.3,0,0,1-.22.42,2.86,2.86,0,0,1-.38.4c-.3.29-.66.51-1,.78l-.15.11Zm.4-1.23a.05.05,0,0,0,.08,0s0,0,0-.09a.11.11,0,0,1,0-.11,4.79,4.79,0,0,1,.42-.68A2.5,2.5,0,0,1,4.44,33a.44.44,0,0,1,.28,0,.66.66,0,0,1,.33.12.61.61,0,0,1,.14.74,1,1,0,0,0-.12.19,1.53,1.53,0,0,1-.39.45l-.61.5a1.18,1.18,0,0,1-.22.17,2,2,0,0,0-.31.2.14.14,0,0,1-.11.05c0-.05,0-.06.07-.08.34-.25.67-.53,1-.79a2.29,2.29,0,0,0,.56-.71.57.57,0,0,0-.13-.7.31.31,0,0,0-.32,0l-.24.12a.12.12,0,0,0-.07.07,1.31,1.31,0,0,1-.17.28,1.59,1.59,0,0,0-.21.46.65.65,0,0,1-.15.24.14.14,0,0,1-.08,0c-.05,0-.1,0-.12,0a.11.11,0,0,1,0-.14S3.65,34,3.68,34.06ZM.26,33.44c.11,0,.21-.12.34-.06H.65a1.5,1.5,0,0,1,.55-.11l.51-.05a2.9,2.9,0,0,1,.51,0l.94.11a2.72,2.72,0,0,1,.38.11c.11,0,.13.12.06.22a.21.21,0,0,1-.14.1.83.83,0,0,1-.21.06,4,4,0,0,1-1.08.1H1.94a4.32,4.32,0,0,1-1.13-.1c-.17,0-.35-.06-.53-.12s-.13,0-.13-.11A.14.14,0,0,1,.26,33.44ZM.21,34A.25.25,0,0,1,0,33.73.41.41,0,0,1,.21,34ZM0,35.38l-.35-.26A5.62,5.62,0,0,1-1,34.57l-.27-.25a.83.83,0,0,1-.2-.37,1.83,1.83,0,0,1,0-.66.36.36,0,0,1,.16-.23.69.69,0,0,1,.59-.12l.18,0a.63.63,0,0,1,.29.33c.07.18.1.37.18.54s.1.16.15.25.06,0,.1,0,.06,0,0,.06l0,0c-.07.09-.11.09-.18,0a1,1,0,0,1-.17-.38.8.8,0,0,1,0-.15.86.86,0,0,0-.37-.57.46.46,0,0,0-.66,0,.64.64,0,0,0-.13.42,1.32,1.32,0,0,0,.21.67.81.81,0,0,0,.16.16c.19.15.34.34.53.48a3.79,3.79,0,0,1,.42.38,1.81,1.81,0,0,0,.21.18s.06,0,.07.09A1.81,1.81,0,0,1,0,35.38Zm.42.08A3.67,3.67,0,0,1-.11,35a1.48,1.48,0,0,0-.3-.26l-.53-.47a.66.66,0,0,1-.26-.48,1.85,1.85,0,0,0,0-.23.44.44,0,0,1,.48-.5.26.26,0,0,1,.12.05.76.76,0,0,1,.32.44,1.07,1.07,0,0,1,.07.27,1.28,1.28,0,0,0,.18.47.15.15,0,0,0,.17.08.19.19,0,0,0,.19-.14.88.88,0,0,1,0,.38,2,2,0,0,0,0,.55,1.26,1.26,0,0,0,.13.26l.09.12A.35.35,0,0,1,.41,35.46Zm.51.17a.92.92,0,0,1-.45-.71,5.4,5.4,0,0,1,0-.56A1.28,1.28,0,0,0,.36,34a.17.17,0,0,1,0-.11,3.16,3.16,0,0,1,.32,0A10.09,10.09,0,0,0,2.48,34,2.93,2.93,0,0,0,3.2,34a.86.86,0,0,0,.21-.07s.06,0,.11,0a1.38,1.38,0,0,0-.12.34,5.43,5.43,0,0,0-.06.55.07.07,0,0,1,0,0c-.05.11-.07.23-.11.34a1,1,0,0,1-.83.66,2.81,2.81,0,0,1-.65,0H1.52a.64.64,0,0,1-.38-.1Zm.52.8a.54.54,0,0,0-.21-.08.17.17,0,0,1-.15-.15.45.45,0,0,1,0-.16c0-.12.07-.18.17-.13a.33.33,0,0,0,.24,0,1.53,1.53,0,0,1,.37,0,3.71,3.71,0,0,0,.67,0c.08,0,.14-.06.23-.06s0,.23,0,.34a.28.28,0,0,1-.21.27,1.13,1.13,0,0,1-.36.06H1.64A.3.3,0,0,1,1.44,36.43Zm2.29,3.69c0,.11,0,.12-.12.13l-.23,0a8.31,8.31,0,0,0-.86.07,4.86,4.86,0,0,1-.54,0,8.06,8.06,0,0,0-1,.06H.63c-.11,0-.14,0-.15-.14s-.07-.41-.1-.61,0-.1.09-.11a4.09,4.09,0,0,1,.61,0c.28,0,.56,0,.84,0a3.37,3.37,0,0,0,.55,0c.37,0,.73,0,1.09,0,.12,0,.15,0,.15.13A4.1,4.1,0,0,1,3.73,40.12Zm-.85-1.19s-.1,0-.09-.1.09,0,.13,0a.24.24,0,0,1,.2.06l.43.36a.8.8,0,0,1,.16.16.88.88,0,0,1-.2,0c-1,0-2,.11-3,0,0,0,0-.07,0-.09A2.34,2.34,0,0,0,.83,39a2.5,2.5,0,0,1,.24-.22.11.11,0,0,1,.08,0h.28a.31.31,0,0,1-.16.12.36.36,0,0,0-.15.08c-.06,0-.06.07,0,.13a.45.45,0,0,0,.12.06,2.74,2.74,0,0,0,.5.07,3.47,3.47,0,0,0,.72,0,1.21,1.21,0,0,0,.37-.11s.05,0,.07-.06A.1.1,0,0,0,2.88,38.93Zm-.37-.17.21.21c.07.07.07.1,0,.14a.79.79,0,0,1-.3,0,5.26,5.26,0,0,1-.89,0,.73.73,0,0,1-.3-.09.89.89,0,0,0,.4-.27s.07-.13.13-.18,0,0,0-.08a.87.87,0,0,1-.05-.22A.87.87,0,0,0,1.58,38a1.39,1.39,0,0,0,.73,0,2.23,2.23,0,0,1,0,.27A.68.68,0,0,0,2.51,38.76Zm-.28-.88a1.24,1.24,0,0,1-.33,0,.34.34,0,0,1-.28-.12.43.43,0,0,0,.12-.29c0-.12-.09-.19-.14-.3a3.27,3.27,0,0,0,.7,0v0a.42.42,0,0,0,0,.52C2.33,37.85,2.33,37.86,2.23,37.88Zm0-.9c0,.11,0,.13-.09.13a1.6,1.6,0,0,1-.57,0c.15-.18,0-.32-.05-.48a6.07,6.07,0,0,0,.86,0s0,.07,0,.09A.34.34,0,0,0,2.26,37Z"/><path class="cls-2" d="M43,28.08c0-.08.05-.17,0-.24s-.17-.18-.31-.18a.83.83,0,0,1-.15,0c-.24-.07-.48-.15-.72-.21l-1.32-.32c-.25-.06-.49-.15-.74-.19s-.6-.15-.9-.22A8.27,8.27,0,0,1,38,26.4a7.13,7.13,0,0,1-.88-.32,1.62,1.62,0,0,1-.49-.25.08.08,0,0,0-.1,0,.05.05,0,0,0,0,.08.25.25,0,0,1,0,.24,7.06,7.06,0,0,0-.15.92,1.45,1.45,0,0,0,0,.35,5,5,0,0,1-.13.94c-.08.38-.17.75-.23,1.13a1.09,1.09,0,0,1-.05.26.31.31,0,0,1-.14.21,4,4,0,0,1-.92.48,2,2,0,0,0-.26.09,12.42,12.42,0,0,0-1.22.58.76.76,0,0,1-.5.17.05.05,0,0,0,0,.08c0,.09,0,.19.07.29s0,.19.18.21a.66.66,0,0,1,.13.08,6.27,6.27,0,0,0,.62.36,4.4,4.4,0,0,1,.56.31l.18.11c.25.15.49.3.75.43a9.29,9.29,0,0,1,1,.56,3.73,3.73,0,0,0,.6.3c.43.17.81.41,1.22.61a1,1,0,0,0,.37.14.17.17,0,0,1,.12,0c0,.05.1,0,.15,0,.22-.14.45-.28.66-.43a2.44,2.44,0,0,1,.33-.23c.42-.22.86-.43,1.28-.67a.7.7,0,0,0,.16-.14,1.23,1.23,0,0,1,.37-.31.93.93,0,0,0,.27-.21.5.5,0,0,1,.14-.1.3.3,0,0,0,.2-.31,2,2,0,0,1,0-.35c.07-.33.13-.65.2-1s.07-.44.13-.66a6.48,6.48,0,0,0,.17-1,4.71,4.71,0,0,1,.17-.91A1.34,1.34,0,0,0,43,28.08Zm-4.43,6.53s0,0-.06,0h-.11c-.21-.11-.43-.2-.64-.32a8.53,8.53,0,0,0-.91-.45,3.88,3.88,0,0,1-.69-.38,7.8,7.8,0,0,0-.7-.38c-.2-.1-.4-.2-.59-.32a5.64,5.64,0,0,0-.53-.31L33.47,32a1.07,1.07,0,0,1-.36-.27s0,0,0-.06,0-.07,0-.1.06,0,.09,0a2.87,2.87,0,0,0,.48.28c.48.23.92.55,1.39.81a5.2,5.2,0,0,1,.69.38,1.26,1.26,0,0,0,.35.17,3.36,3.36,0,0,1,.49.27c.25.14.51.26.76.39s.33.2.51.28a7.87,7.87,0,0,1,.7.39l0,0S38.63,34.59,38.61,34.61Zm.1-.24a.15.15,0,0,1-.17,0l-.54-.3c-.41-.22-.83-.43-1.25-.64l-.13-.08a1.58,1.58,0,0,0-.36-.2L36,33c-.38-.2-.75-.41-1.12-.62a3.13,3.13,0,0,1-.34-.21c-.24-.16-.51-.28-.76-.42l-.52-.3c-.08-.05-.08-.08,0-.12.38-.18.73-.41,1.12-.57s.58-.19.84-.33A5.48,5.48,0,0,0,36,30a.31.31,0,0,1,.23,0,4,4,0,0,1,.58.2l.3.11c.62.24,1.24.47,1.85.73l1.12.46c.2.09.38.22.59.3s.62.3.94.43c0,0,.05,0,.05,0a.2.2,0,0,1-.06.09c-.44.31-.83.69-1.3,1a3.27,3.27,0,0,0-.48.35A10,10,0,0,1,38.71,34.37Zm3.12-1.65a.84.84,0,0,1-.18.15,1.35,1.35,0,0,0-.43.35,1.36,1.36,0,0,1-.43.29c-.36.16-.69.36-1,.52a1.38,1.38,0,0,0-.25.17l-.55.37s-.08.06-.15,0a.16.16,0,0,1,.09-.16,3.3,3.3,0,0,1,.32-.18,6.27,6.27,0,0,0,.87-.58c.27-.21.55-.4.84-.6,0,0,0,.07,0,.1a.12.12,0,0,0,0,.05.67.67,0,0,0,.27-.16c0-.1,0-.15-.09-.14l-.08,0c0-.12.18-.11.22-.2a.06.06,0,0,1,0,.06c0,.09,0,.11.11.07l.29-.14s.08,0,.07-.09-.07,0-.1-.06-.09,0-.12,0v0c.14-.13.2-.12.27.06A.08.08,0,0,1,41.83,32.72Zm0-.76c0,.11,0,.11-.15.08l-.07,0c-.44-.22-.9-.37-1.33-.62L40,31.29a6.71,6.71,0,0,1-.78-.32c-.41-.2-.84-.33-1.26-.5s-.69-.25-1-.41a4.84,4.84,0,0,0-.54-.17c-.35-.11-.33-.06-.23-.43a1.65,1.65,0,0,0,.06-.32c.05-.41.16-.82.23-1.24a2.58,2.58,0,0,0,0-.39,7.72,7.72,0,0,1,.12-.84,3.1,3.1,0,0,1,.09-.5c0-.11,0-.11.15-.08a1.25,1.25,0,0,1,.27.1,3.37,3.37,0,0,0,.6.23c.27.09.53.2.8.28s.57.16.86.22.56.12.83.2.77.2,1.15.29.69.18,1,.29l.22.07c.14,0,.15,0,.11.17s-.09.57-.15.85c-.12.58-.27,1.15-.4,1.72-.06.29-.14.57-.19.86S41.83,31.76,41.78,32Zm.28.55a.07.07,0,0,1-.09,0,.36.36,0,0,1-.07-.17s0,0,.05,0a.32.32,0,0,1,.14.12A.07.07,0,0,1,42.06,32.51Zm.84-4.46c0,.13-.06.26-.1.39a4.61,4.61,0,0,0-.2,1,8,8,0,0,1-.18,1.09c-.11.49-.21,1-.31,1.49a.13.13,0,0,0,0,.06s0,.09-.07.09a.12.12,0,0,1-.11-.12.76.76,0,0,1,0-.21c.11-.39.16-.79.27-1.18s.23-1,.35-1.5a7.49,7.49,0,0,0,.2-1.07c0-.09,0-.09.06-.17S42.91,28,42.9,28.05Z"/><path class="cls-2" d="M40.18,33.23c0-.1.09-.12.16-.15a4.22,4.22,0,0,0,.79-.47.16.16,0,0,0,0-.25.28.28,0,0,0-.18-.14,3.39,3.39,0,0,1-.53-.2c-.14-.06-.27-.13-.41-.18-.38-.14-.76-.27-1.13-.44s-.6-.26-.91-.37a5.74,5.74,0,0,1-.79-.38,1.35,1.35,0,0,1-.29-.16,3.2,3.2,0,0,0-.54-.3l-.09,0-.09,0a2.52,2.52,0,0,0-.58.21,2.1,2.1,0,0,1-.3.15,4.92,4.92,0,0,0-.7.41c-.08.05-.09.12,0,.18a1.5,1.5,0,0,0,.4.25,2.79,2.79,0,0,1,.66.35,3.32,3.32,0,0,0,.71.4,4.25,4.25,0,0,1,.56.29c.21.12.41.27.62.39a7.63,7.63,0,0,1,.75.39c.18.11.38.19.55.31a.57.57,0,0,0,.7,0h0a1,1,0,0,1,.53-.22S40.18,33.27,40.18,33.23Zm.31-.47-.26,0a.38.38,0,0,1-.15,0c-.07,0-.07-.07,0-.12h0c.19-.14.19-.14.4,0s.2.06.28.16A.24.24,0,0,1,40.49,32.76Zm-1-.35c-.06,0,0-.07,0-.1s.24-.18.4-.08l.17.07s0,.07,0,.09a.61.61,0,0,1-.31.13Zm.1.22a.28.28,0,0,1-.26.13,2.06,2.06,0,0,1-.26-.12.05.05,0,0,1,0-.09c.1-.06.19-.12.31-.06l.19.08A0,0,0,0,1,39.57,32.63Zm1.09-.38a.68.68,0,0,1,.35.17.06.06,0,0,1,0,.09.14.14,0,0,1-.18,0c-.14,0-.25-.13-.39-.19C40.51,32.3,40.57,32.22,40.66,32.25ZM40,32a0,0,0,0,1,.05,0,1.4,1.4,0,0,1,.3.15s0,0,0,.06-.1.08-.15.06a1,1,0,0,1-.34-.15C39.91,32,40,32,40,32Zm-.66-.14c0-.05.06-.11.13-.09a1.88,1.88,0,0,1,.34.14c-.18.13-.32.13-.45,0S39.34,31.87,39.35,31.85Zm.1.26c0,.08-.1.1-.16.14a.18.18,0,0,1-.13,0,.54.54,0,0,1-.24-.1s0,0,0,0,.19-.21.35-.12S39.45,32,39.45,32.11Zm-.45.25c-.13.16-.25.18-.39,0s0-.06,0-.1a.18.18,0,0,1,.24,0A.34.34,0,0,1,39,32.36Zm-.22-.77s0-.08.09-.06a1.73,1.73,0,0,1,.39.18s0,0,0,.05a.11.11,0,0,1-.11,0c-.13,0-.22-.1-.32-.13S38.76,31.64,38.78,31.59Zm.26.31a.4.4,0,0,1-.12.11.24.24,0,0,1-.29,0c-.09-.06-.19-.1-.28-.15s-.07-.07,0-.13a.24.24,0,0,1,.31-.05A3.6,3.6,0,0,1,39,31.9Zm-3.16-1s.12-.09.18-.08l.09,0c.05,0,.14,0,.14.12s-.13.09-.21.08A.11.11,0,0,1,36,31C36,31,35.89,31,35.88,30.93Zm.08.25a.08.08,0,0,1-.07,0,1.64,1.64,0,0,1-.29-.16s0,0,0-.05a.11.11,0,0,1,.08,0l.23.11S36,31.14,36,31.18Zm.12.1s.05,0,.07,0a.21.21,0,0,1,.12,0l.2.12s.08,0,0,.08a.08.08,0,0,1-.09,0,1.75,1.75,0,0,0-.28-.13A.08.08,0,0,1,36.08,31.28Zm.27-.08a0,0,0,0,1,0-.08.26.26,0,0,1,.16-.06l0,0c.1,0,.19.11.3.15s0,.05,0,.09a.21.21,0,0,1-.26,0Zm.52-.08A1.4,1.4,0,0,0,36.7,31c-.05,0-.05-.07,0-.1a.25.25,0,0,1,.25,0c.11.06.25.07.36.18A.34.34,0,0,1,36.87,31.12Zm.78.07a1,1,0,0,1,.29.14,1.57,1.57,0,0,0-.23.13.1.1,0,0,1-.09,0,1.41,1.41,0,0,1-.37-.18C37.38,31.19,37.49,31.1,37.65,31.19Zm-1,.41s0,0,.07,0l.06,0,.27.14s0,0,0,.05,0,0,0,0a.08.08,0,0,1-.08,0l-.28-.15S36.64,31.63,36.66,31.6Zm.36,0s-.1,0-.11-.1.13-.12.18-.1a1.23,1.23,0,0,1,.4.19c-.18.16-.21.16-.39.05Zm.19.33a.15.15,0,0,1,.13,0l.27.14a.09.09,0,0,1,0,0,.12.12,0,0,1-.14.09,1.53,1.53,0,0,1-.3-.19S37.17,31.92,37.21,31.9Zm.34,0s-.08,0-.08-.07.05-.05.08-.07a.44.44,0,0,1,.17-.07,1.23,1.23,0,0,1,.25.14s0,0,0,.06a.23.23,0,0,1-.27.08Zm.18.38c0-.05.06-.1.11-.08a1.38,1.38,0,0,1,.38.2.06.06,0,0,1,0,0,.12.12,0,0,1-.16.07l-.28-.14S37.7,32.29,37.73,32.24Zm.36-.1s-.12,0-.11-.1.16-.14.22-.11l.35.19a.05.05,0,0,1,0,.08.24.24,0,0,1-.19.08l-.12-.06Zm.23-.81s0,0,0,0l.2.07s0,0,0,.05,0,.05-.07.06a.41.41,0,0,1-.23-.11A.07.07,0,0,1,38.32,31.33Zm0,.24s-.06.06-.09.08a.24.24,0,0,1-.34,0c-.05-.05-.05-.08,0-.13S38.2,31.4,38.35,31.57Zm-.54-.49c.09.05.2.06.29.1s0,0,0,.05,0,0,0,0a2.92,2.92,0,0,1-.46-.2A.17.17,0,0,1,37.81,31.08ZM37,30.79a.08.08,0,0,1,.08-.06s0,0,0,0a3,3,0,0,1,.4.21c0,.06-.07,0-.11,0a2.48,2.48,0,0,1-.35-.13S37,30.83,37,30.79ZM37,30.66c-.13.1-.19.09-.33,0C36.77,30.5,36.77,30.5,37,30.66Zm-.37.19a.17.17,0,0,1-.19,0l-.18-.09c.16-.11.25-.12.37,0S36.65,30.81,36.6,30.85Zm0-.41a.3.3,0,0,1-.38,0,.5.5,0,0,0-.2-.08A.47.47,0,0,1,36.6,30.44Zm-.67,0a2,2,0,0,0,.32.11.27.27,0,0,1-.25.1,1.56,1.56,0,0,1-.33-.14A.21.21,0,0,1,35.93,30.48Zm-.09.26c-.07.11-.12.13-.19.1a1,1,0,0,1-.28-.16C35.56,30.59,35.68,30.75,35.84,30.74Zm-.76.38a.11.11,0,0,1-.12.06,0,0,0,0,1,0,0c0-.09,0-.09-.11-.05s0,0,0-.05.12-.12.18-.13a.13.13,0,0,1,.13.06S35.1,31.08,35.08,31.12Zm.07-.3a.05.05,0,0,1,.06,0,.92.92,0,0,1,.23.09s0,.05,0,.06l-.07,0a.44.44,0,0,1-.2-.08S35.14,30.84,35.15,30.82Zm.14.54h0c-.05,0-.14,0-.13-.08s.08-.09.14-.11a.36.36,0,0,1,.43.12A.27.27,0,0,1,35.29,31.36Zm.79.4,0,0-.24-.16c-.13-.09-.13-.09,0-.19s.15-.09.27,0a.53.53,0,0,0,.17.08c.08,0,.08.08,0,.13Zm.75.18a.37.37,0,0,1-.24.12.71.71,0,0,1-.3-.15s0,0,0-.07a.24.24,0,0,1,.34-.1l.19.13S36.85,31.91,36.83,31.94Zm.87.77a.57.57,0,0,1-.13-.08c-.19-.15-.42-.25-.62-.38,0,0-.09,0-.09-.1s.07-.07.11-.1a.09.09,0,0,1,.1,0c.08.05.16.08.23.13s.11.09,0,.17,0,.07,0,.08.14.08.2,0,0,0,.07,0l.27.14a.07.07,0,0,1,0,.06A.25.25,0,0,1,37.7,32.71Zm.61.14a.17.17,0,0,1-.2,0l-.1,0,0,0s.05,0,.08-.07a.16.16,0,0,1,.25,0S38.32,32.82,38.31,32.85Zm0-.3s.06-.1.13-.08l.15.08a0,0,0,0,1,0,.05.19.19,0,0,1-.17.1l-.08-.05S38.29,32.61,38.33,32.55Zm.42.62a.14.14,0,0,1-.18,0l-.09-.06s-.11,0-.08-.09.11-.11.16-.09a.78.78,0,0,1,.29.14C38.82,33.13,38.78,33.14,38.75,33.17Zm-.08-.35c.13-.16.16-.17.32-.08a1.07,1.07,0,0,1,.19.13.21.21,0,0,1-.28.07A.84.84,0,0,1,38.67,32.82Zm1.08.43-.29.2a.3.3,0,0,1-.36,0L39,33.38c-.09-.06-.09-.08,0-.14s.12-.08.23,0l.19.09a.32.32,0,0,0,.14,0s0,0,.06,0a.08.08,0,0,0,0-.08l-.2-.08s-.08,0-.1-.07.15-.12.28-.06l.21.12C39.81,33.17,39.82,33.19,39.75,33.25Zm.17-.17-.35-.2a.5.5,0,0,1,.18-.15.14.14,0,0,1,.15,0l.15.06c.1,0,.2.11.31.07v0l-.35.18A.09.09,0,0,1,39.92,33.08Z"/><path class="cls-2" d="M42.25,28.85a1.39,1.39,0,0,1,.14-.45.19.19,0,0,0-.09-.28,2,2,0,0,0-.52-.19l-.91-.22c-.36-.08-.69-.23-1-.34a4.11,4.11,0,0,0-.57-.17,1.7,1.7,0,0,1-.45-.15,3.8,3.8,0,0,0-.54-.18,4.45,4.45,0,0,1-1.13-.39l-.09,0c-.13,0-.16,0-.22.09a1.76,1.76,0,0,0-.14.46c-.07.27-.13.55-.19.84s-.12.6-.15.9-.05.42-.1.63,0,.19.1.31a.91.91,0,0,0,.17.09l.4.12c.2.08.38.2.58.28s.47.14.7.23.51.17.75.29.52.21.78.31a10.41,10.41,0,0,1,1.07.5,2.41,2.41,0,0,0,.62.23l.1,0c.16,0,.17,0,.19-.18a1.68,1.68,0,0,1,.06-.24,5.37,5.37,0,0,0,.15-.8c0-.21.07-.42.1-.64S42.19,29.19,42.25,28.85Zm-.35,1c-.07.39-.15.77-.2,1.16a3.84,3.84,0,0,1-.11.46c0,.1-.05.1-.16.09a1.45,1.45,0,0,1-.52-.17,11.11,11.11,0,0,0-1.16-.53,4.55,4.55,0,0,1-.79-.33.76.76,0,0,0-.16-.06c-.35-.1-.68-.26-1-.36a2.31,2.31,0,0,1-.51-.22,3.77,3.77,0,0,0-.59-.22h0c-.2-.05-.27-.12-.23-.32a13.33,13.33,0,0,1,.22-1.41.49.49,0,0,0,0-.12,1,1,0,0,1,.07-.36.61.61,0,0,0,0-.18,3.1,3.1,0,0,1,.15-.6c0-.08.06-.1.15-.09l.1,0a4.57,4.57,0,0,0,.94.33,3.46,3.46,0,0,1,.54.19,5,5,0,0,0,.69.21,1.61,1.61,0,0,1,.29.09l.48.16c.19.06.37.15.56.19l.44.09c.3.09.61.16.91.27s.25.09.2.35C42.1,29,42,29.39,41.9,29.84Z"/><path class="cls-2" d="M37.46,32.9a2.57,2.57,0,0,0-.32-.22L35.91,32s-.09,0-.13,0a1,1,0,0,0-.35.27.15.15,0,0,0,.06.26c.29.12.53.31.8.45s.36.2.54.3l.1,0a1,1,0,0,0,.56-.26A.1.1,0,0,0,37.46,32.9Zm-.18.15a.37.37,0,0,1-.35.11l-.57-.33c-.07,0-.07-.07,0-.13l.06-.07a.06.06,0,0,0-.06-.09l-.14.08a.2.2,0,0,1-.21,0c-.13-.06-.24-.15-.37-.2s-.08-.07,0-.13.11-.17.23-.13a.37.37,0,0,1,.18,0,1.08,1.08,0,0,0,.3.16c.28.13.54.31.81.46l0,0C37.19,32.92,37.31,32.93,37.28,33.05Z"/><path class="cls-2" d="M39.59,27.22a.19.19,0,0,0,.15-.09s0,0,0-.05a.18.18,0,0,0-.18,0c-.06,0-.1,0-.1.1S39.49,27.21,39.59,27.22Z"/><path class="cls-2" d="M42.48,18.28a1.66,1.66,0,0,1,.32,0s0,0,.05,0,.08-.06.13-.07a.61.61,0,0,0,.18-.05A.48.48,0,0,0,43,18c-.19-.15-.38-.3-.56-.47a1.09,1.09,0,0,0-.17-.13,1.64,1.64,0,0,1-.31-.28c.21,0,.41,0,.62-.07s.55-.07.83-.14h.06a.06.06,0,0,0,.09,0s0-.07,0-.09l-.11-.11a1.31,1.31,0,0,0-.63-.37l-.21,0a2,2,0,0,0-.24,0l-.86.08-.49,0a.2.2,0,0,1-.15-.07,5.5,5.5,0,0,0-.53-.45l-.27-.23s-.06-.07,0-.13a.52.52,0,0,0,.06-.13,1.21,1.21,0,0,0,.06-.5.41.41,0,0,1,0-.11.57.57,0,0,0-.09-.33,3.57,3.57,0,0,0-.34-.43.65.65,0,0,0-.28-.21l-.36-.13a.42.42,0,0,0-.22,0l-.34.11a1,1,0,0,0-.37.28,3.18,3.18,0,0,0-.28.43.34.34,0,0,0,0,.22.67.67,0,0,0,.1.23,2.29,2.29,0,0,0,.49.54l.22.17c.2.14.39.29.57.44s.34.26.5.4.05,0,0,.06a0,0,0,0,1-.05,0l-.48,0a2,2,0,0,0-.42,0l-.74.08a1.92,1.92,0,0,0-.58.11h0a.33.33,0,0,0-.24.14,1.08,1.08,0,0,0-.18.24.59.59,0,0,0-.06.47.69.69,0,0,0,.1.19,1,1,0,0,0,.62.54,4.25,4.25,0,0,0,.62.12,1.71,1.71,0,0,0,.45,0,1.81,1.81,0,0,0,.35-.16s.06,0,0-.07,0-.08,0-.12l.06-.11a2.81,2.81,0,0,0,.16-.49c0-.05,0-.08.09-.08h.07l.78-.09a1.5,1.5,0,0,0,.22,0,.13.13,0,0,1,.11,0l.34.28.29.27c.18.15.38.27.57.4A.91.91,0,0,0,42.48,18.28Zm-1-1.9c.23,0,.47,0,.7,0a1.57,1.57,0,0,1,.61,0,1,1,0,0,1,.57.36,0,0,0,0,0,0,0c-.39,0-.78.08-1.17.13l-.28,0a.22.22,0,0,1-.19-.05l-.51-.37a.25.25,0,0,1-.1-.12A2.38,2.38,0,0,0,41.49,16.38Zm-1,.65-.3,0a.82.82,0,0,0-.31,0,.59.59,0,0,1-.23,0,1,1,0,0,0-.24,0,.05.05,0,0,0,0,0s-.07,0-.1,0,0,.07,0,.1a1.86,1.86,0,0,1-.11.52.62.62,0,0,1-.22.26.88.88,0,0,1-.59.12,2.84,2.84,0,0,1-.64-.15.93.93,0,0,1-.54-.49.41.41,0,0,1,0-.34.66.66,0,0,1,.49-.48h0a1.71,1.71,0,0,1,.63-.11l.33,0a3.29,3.29,0,0,1,1,0h.15a.42.42,0,0,1,.28.1l.44.34Zm1,.5a3.8,3.8,0,0,1-.38-.29c-.06,0-.12-.08-.1-.17S40.9,17,40.87,17s-.09,0-.13-.06l-.89-.73c-.09-.08-.19-.14-.28-.21s-.38-.32-.58-.47l-.33-.26a2.38,2.38,0,0,1-.53-.52.37.37,0,0,1-.05-.11s0-.08-.07-.08-.06-.05,0-.09a1.21,1.21,0,0,1,.56-.64.82.82,0,0,1,.7-.08,1.23,1.23,0,0,1,.4.23,1.58,1.58,0,0,1,.39.5.9.9,0,0,1,0,.83,1.19,1.19,0,0,0-.08.2.05.05,0,0,0,0,.07c.18.11.32.28.49.39a2,2,0,0,1,.31.27.19.19,0,0,1,.07.08s0,0,0,0a1.63,1.63,0,0,1,.44.3c.18.13.36.25.52.39s.53.39.78.6L43,18c0,.05-.06.05-.1.05l-.4.05a.41.41,0,0,1-.27-.08A7.75,7.75,0,0,1,41.43,17.53Z"/><path class="cls-2" d="M39.73,14.48a.89.89,0,0,0-.64-.46.26.26,0,0,0-.15,0,.84.84,0,0,0-.19.07c-.13.08-.27.16-.3.33a.44.44,0,0,0,.07.35,2.59,2.59,0,0,0,.18.21l.14.13a2.8,2.8,0,0,0,.56.32.09.09,0,0,0,.13,0,.89.89,0,0,0,.27-.34,1.06,1.06,0,0,0,.06-.19.21.21,0,0,0,0-.19A1.49,1.49,0,0,1,39.73,14.48Zm-.06.64c0,.06-.09.1-.13.16a.08.08,0,0,1-.11,0,2,2,0,0,1-.69-.45c-.05-.07-.1-.11-.14-.17a.19.19,0,0,1,0-.26.54.54,0,0,1,.66-.08.82.82,0,0,1,.41.41A.32.32,0,0,1,39.67,15.12Z"/><path class="cls-2" d="M38.61,17l-.25,0a1.15,1.15,0,0,1-.26,0,.49.49,0,0,0-.6.47.34.34,0,0,0,.26.36l.15,0a1.22,1.22,0,0,0,.6.09.39.39,0,0,0,.39-.33,1.48,1.48,0,0,0,0-.21A.38.38,0,0,0,38.61,17Zm.15.61a.32.32,0,0,1-.28.18,1.35,1.35,0,0,1-.76-.17.2.2,0,0,1-.09-.11.14.14,0,0,1,.07-.2.69.69,0,0,1,.59-.12.93.93,0,0,1,.36.14.3.3,0,0,1,.08.08A.15.15,0,0,1,38.76,17.59Z"/><path class="cls-2" d="M42.16,22.87a3.4,3.4,0,0,1-.12-.34.61.61,0,0,0-.15-.3c-.12-.13-.23-.25-.35-.36a.33.33,0,0,1-.11-.31,4.49,4.49,0,0,0,.1-.64A1.52,1.52,0,0,1,42,20a.33.33,0,0,0,0-.5,1.9,1.9,0,0,0-1.75-.32l-.07,0a.13.13,0,0,0-.08.14,1.24,1.24,0,0,0,.1.5.51.51,0,0,1,0,.17,1.4,1.4,0,0,1,0,.5c-.09.31-.21.61-.31.92a.22.22,0,0,1-.09.1,2.55,2.55,0,0,0-.73.43,1.4,1.4,0,0,0-.56.64.18.18,0,0,1,0,.07,1.86,1.86,0,0,0-.07,1.76,1.68,1.68,0,0,0,.64.78,2.65,2.65,0,0,0,1,.36l.19,0a2,2,0,0,0,1.18-.15A2.17,2.17,0,0,0,42,24.9a.35.35,0,0,0,.12-.23c0-.28.12-.55.16-.83a1.61,1.61,0,0,0,0-.49A2.9,2.9,0,0,0,42.16,22.87Zm-1.89-3.53s0-.05.08-.06a3,3,0,0,1,.52,0,1.39,1.39,0,0,1,.89.32c.07.05.15.11.11.21s-.13.07-.21.06-.24,0-.35,0a2.84,2.84,0,0,1-.86-.3l-.13-.08S40.26,19.38,40.27,19.34Zm-.47,2.29a.47.47,0,0,0,.15-.06.09.09,0,0,0,.07-.09,1.22,1.22,0,0,1,.15-.49c0-.17.11-.34.16-.51a1.16,1.16,0,0,0,0-.76.12.12,0,0,1,0-.1c.22.08.44.19.67.26s.47.05.71.12l-.13.23a1.7,1.7,0,0,0-.22.62c0,.27-.07.55-.11.82a.23.23,0,0,0,.1.24,2.2,2.2,0,0,1,.31.3,1,1,0,0,1,.23.42,1.38,1.38,0,0,0-.59-.3,4,4,0,0,0-.61-.2A8.67,8.67,0,0,0,39.41,22a.55.55,0,0,1-.21,0A2,2,0,0,1,39.8,21.63Zm1.79,1.15-.13,0a1.89,1.89,0,0,1-.67-.06,2.45,2.45,0,0,0-.37-.08,4.84,4.84,0,0,1-1-.33.27.27,0,0,1-.14-.12.79.79,0,0,1,.3-.05,6.85,6.85,0,0,1,.78.07,3.63,3.63,0,0,1,.64.13l.56.22.09.06A.07.07,0,0,1,41.59,22.78ZM39,22.46a.09.09,0,0,1,.14,0,2.5,2.5,0,0,0,.73.28,5.88,5.88,0,0,0,1.3.26l.37,0c.11,0,.12,0,.14.13a3.32,3.32,0,0,1,0,.63,2.19,2.19,0,0,1-.05.47c0,.12,0,.2,0,.29a.71.71,0,0,1-.52.55,2.4,2.4,0,0,1-1.16.11,1.24,1.24,0,0,1-1-.69,1.85,1.85,0,0,1-.21-.45,1.41,1.41,0,0,1,.06-.93.79.79,0,0,0,.06-.22A1.09,1.09,0,0,1,39,22.46Zm3,1.57c0,.19-.08.38-.11.57a.53.53,0,0,1-.21.35l-.12.1a1.56,1.56,0,0,1-.75.37,2.45,2.45,0,0,1-1.34-.15,1.72,1.72,0,0,1-1.18-1.54,2.41,2.41,0,0,1,.1-.8.18.18,0,0,1,0-.09c.09-.15.18-.3.26-.45A.49.49,0,0,1,39,22.2a.49.49,0,0,1-.13.28.78.78,0,0,0-.14.29l-.09.28a1.66,1.66,0,0,0,.08,1.36,2.55,2.55,0,0,0,.27.4,1.44,1.44,0,0,0,.69.41,2,2,0,0,0,1,0,2.64,2.64,0,0,0,.55-.15.82.82,0,0,0,.57-.66,7,7,0,0,0,.08-.79,3.85,3.85,0,0,0,0-.76s0-.06,0-.08a1.51,1.51,0,0,1,.13.29A2.09,2.09,0,0,1,42.06,24Z"/><path class="cls-2" d="M37.85,4.71a.28.28,0,0,0,0-.13,2.21,2.21,0,0,0-.18-.34.35.35,0,0,0-.17-.15S37.41,4,37.4,4a1,1,0,0,0,0-.29.1.1,0,0,1,0-.14.28.28,0,0,0,.09-.1,1.25,1.25,0,0,0,.13-.57,3.58,3.58,0,0,0-.11-.73,3.18,3.18,0,0,0-.26-.64A3,3,0,0,0,36.8.87.75.75,0,0,0,36.34.6h-.26s0,0-.06,0a1.75,1.75,0,0,0-.11-.24.33.33,0,0,0-.24-.2,1.66,1.66,0,0,0-1,.12,1.25,1.25,0,0,0-.37.28.31.31,0,0,0-.05.36l.1.14c0,.05,0,.06,0,.08l-.08,0s-.06,0-.06-.05A.32.32,0,0,0,34,.76a.64.64,0,0,0-.43,0,1.88,1.88,0,0,0-.38.18c-.07,0-.13.11-.2.16a.07.07,0,0,0,0,.08.33.33,0,0,1-.06.19,1.12,1.12,0,0,0-.1.31l-.06.51c-.06.46-.08.93-.15,1.4a2.41,2.41,0,0,0,0,.6,1.4,1.4,0,0,1,0,.5s0,.07,0,.09a.07.07,0,0,1,0,.11.13.13,0,0,0,0,.06c-.07.22-.13.45-.22.66a.51.51,0,0,1-.12.2.08.08,0,0,0,0,.1.36.36,0,0,0,.07.1c.07.06.13.06.17,0a1.3,1.3,0,0,0,.08-.17s0-.06.08-.08a.72.72,0,0,1,0,.19,1,1,0,0,0,.05.3.75.75,0,0,0,.23.27.2.2,0,0,0,.16.06.15.15,0,0,1,.17.09.44.44,0,0,0,.25.21.17.17,0,0,1,.12.11.2.2,0,0,0,.22.14l.18,0A4.55,4.55,0,0,1,35,7H35a.84.84,0,0,1,.47,0,.33.33,0,0,1,.26,0,.89.89,0,0,0,.43,0L36.51,7,37,6.92c.2,0,.4-.1.61-.14a.16.16,0,0,0,.13-.12A4.34,4.34,0,0,0,38,5.79c0-.16,0-.31,0-.46A4.2,4.2,0,0,0,37.85,4.71Zm-.39-.47-.43,0a1.7,1.7,0,0,0-.51.08,4.23,4.23,0,0,1-.58.17.41.41,0,0,1-.19,0L36,4.43a2.37,2.37,0,0,1,.7-.21H37a1.38,1.38,0,0,0,.29,0A.11.11,0,0,1,37.46,4.24ZM36.19.69A.86.86,0,0,1,36.8,1a3.32,3.32,0,0,1,.4.58,2.93,2.93,0,0,1,.32,1,.59.59,0,0,0,0,.13,1,1,0,0,1,0,.49.42.42,0,0,1-.41.34l-.49.06c-.26,0-.52.11-.78.15a.74.74,0,0,1-.26,0s-.08,0-.08-.09c0-.4-.06-.81-.1-1.22a5.31,5.31,0,0,0-.16-.87,1.07,1.07,0,0,0-.2-.36.48.48,0,0,0-.32-.19.14.14,0,0,1,.1-.07l.42-.11.41-.12A1.49,1.49,0,0,1,36.19.69Zm1,3a.37.37,0,0,1-.25,0,0,0,0,0,1,0,0s0,0,0,0A.53.53,0,0,1,37.16,3.72Zm-2-.88a8.94,8.94,0,0,0-.12-1,1.38,1.38,0,0,0-.17-.42c0-.06-.11-.09-.15-.15a.2.2,0,0,1,.17.08,1.16,1.16,0,0,1,.31.67c0,.22.08.45.1.68a1.93,1.93,0,0,1,0,.24c0,.14,0,.28,0,.43s0,.21,0,.31,0,0,0,.07a.09.09,0,0,1-.07,0,.17.17,0,0,1-.07-.1.44.44,0,0,1,0-.1C35.21,3.28,35.19,3.06,35.18,2.84ZM34.76.72a.37.37,0,0,1,.17-.13,2.69,2.69,0,0,1,.54-.14.23.23,0,0,1,.22.16c0,.05,0,.06-.06.07l-.4.14L34.88.9c-.05,0-.09,0-.12,0A.12.12,0,0,1,34.76.72Zm-.42,0a.28.28,0,0,1,.08-.21,1,1,0,0,1,.46-.29,1.4,1.4,0,0,1,.44-.1,1,1,0,0,1,.36,0,.24.24,0,0,1,.17.17s0,.07,0,.1a.12.12,0,0,1-.13,0s0,0,0,0a.21.21,0,0,0-.2-.07,2.56,2.56,0,0,0-.56.15.72.72,0,0,0-.34.33s0,.05-.07,0l-.07,0C34.36.85,34.35.84,34.34.76Zm-.09.81a.41.41,0,0,0,.07-.15s0,0,.06,0l0,.05a2,2,0,0,1,.29.64c.05.26.11.53.15.8s.05.67.06,1v.38a.23.23,0,0,1-.15.22l0,0a3.25,3.25,0,0,1-1,.08l-.17,0s-.09,0-.09-.09a.14.14,0,0,1,.06-.13l.1-.06c.07,0,.08-.1,0-.15a.14.14,0,0,1,0-.12,1.5,1.5,0,0,1,0-.37,2.08,2.08,0,0,0,0-.25c0-.26,0-.52,0-.78s0-.64,0-1a.51.51,0,0,1,.12-.3.46.46,0,0,1,.26-.13.34.34,0,0,1,0,.16,1.45,1.45,0,0,0-.09.46c0,.22,0,.45,0,.67a.47.47,0,0,0,0,.17,2,2,0,0,0,0,.25.1.1,0,0,1,0,.09.17.17,0,0,0,0,.18.46.46,0,0,1,0,.26c0,.11,0,.23-.07.34s0,.12.09.13a2.17,2.17,0,0,0,.36,0c.13,0,.16-.06.09-.18l-.09-.15a.71.71,0,0,1-.09-.47s0-.09,0-.12,0,0,0-.09a1.23,1.23,0,0,1,0-.27V2.16a.22.22,0,0,1,0-.14s0,0,0-.05,0-.21,0-.31S34.23,1.6,34.25,1.57Zm-.16,3.16,0,0a.94.94,0,0,1-.41,0,.51.51,0,0,1-.26-.2c.07,0,.11.06.17.07l.19,0h.19A.26.26,0,0,1,34.09,4.73ZM34,2.16a.31.31,0,0,1,0-.1s0,0,0,0,0,0,0,0a.57.57,0,0,1,0,.13s0,0,0,0,0,0,0,0Zm0,.2s0,0,0,.07v0s0,0,0,0,0,0,0,0,0,0,0,0S34,2.36,34,2.36Zm0,1.42a.3.3,0,0,0,.26,0s.05,0,.06,0,0,.05,0,.05l-.11,0a.63.63,0,0,1-.19,0s0,0,0,0S34,3.78,34,3.78Zm.11-.06a.05.05,0,0,1,0,0s0,0,0,0a.08.08,0,0,0,0,0s0,0,0,0,0,0,0,0S34.2,3.72,34.14,3.72Zm0-1.83s0,0,0,0,0-.08,0-.14,0,0,0,0A.12.12,0,0,1,34.09,1.89Zm.14-.57a.73.73,0,0,0-.1.28s0,0,0,0,0,0,0,0a1.73,1.73,0,0,1,.14-.32A.12.12,0,0,0,34.23,1.32ZM33.36.9l.29-.11a.51.51,0,0,1,.44.13.15.15,0,0,1-.09.26.11.11,0,0,1-.12-.06A.43.43,0,0,0,33.49,1h-.15s0,0,0,0S33.33.91,33.36.9Zm-.88,4.95,0,0a.06.06,0,0,1-.06,0,.07.07,0,0,1,0-.06.14.14,0,0,1,0-.09l.09-.24a3.61,3.61,0,0,0,.16-.42.14.14,0,0,1,0-.06s0,0,0,0,0,0,0,0v.06A1.29,1.29,0,0,1,32.48,5.85Zm.42-1.33s-.07,0-.11,0-.08,0-.11.07a1.19,1.19,0,0,1,0-.25c0-.22,0-.44,0-.66a2.08,2.08,0,0,1,.05-.36c0-.24,0-.47.08-.7s.07-.65.1-1a1.1,1.1,0,0,1,.22-.52.27.27,0,0,1,.21-.09s.13,0,.16,0,0,.09,0,.14a2,2,0,0,0-.16.6c0,.12,0,.24-.05.36s0,.25,0,.37c0,.48-.06,1-.06,1.43a1.15,1.15,0,0,1,0,.37.21.21,0,0,1,0,.11s0,0-.07,0A.08.08,0,0,0,32.9,4.52Zm.23,1a1.61,1.61,0,0,0,0,.49v0s0,0,0,.07,0,0-.06,0A.14.14,0,0,1,33,6a2.19,2.19,0,0,1,0-.57c0-.21,0-.42,0-.62a.45.45,0,0,1,.1-.28.58.58,0,0,0,.11-.42,4.17,4.17,0,0,1,0-.5c0-.31,0-.63,0-.94s0-.36,0-.54.08-.5.13-.75a.53.53,0,0,1,.15-.26.12.12,0,0,1,.19,0s0,0,0,.08-.05.05,0,.12c-.11,0-.12.09-.14.16a6.08,6.08,0,0,0-.08,1.13c0,.28,0,.57,0,.85a2.71,2.71,0,0,1,0,.4.55.55,0,0,0,0,.18c0,.06,0,.09-.08.13a.46.46,0,0,0-.21.48.69.69,0,0,1,0,.35A3.37,3.37,0,0,0,33.13,5.55Zm1.6.64c0,.1,0,.2,0,.3a.43.43,0,0,1,0,.11.65.65,0,0,0,0,.14s0,0,0,0h0a.82.82,0,0,1-.38.06l-.18,0H34c-.13,0-.25-.05-.37-.07a.3.3,0,0,1-.19-.11,1.34,1.34,0,0,1-.17-.31,1.14,1.14,0,0,1-.08-.47,2.43,2.43,0,0,1,.1-.77,1.11,1.11,0,0,0,.05-.25c0-.07,0-.09.09,0a.62.62,0,0,0,.57.08l.59-.14c.2-.05.21,0,.21.17a5.65,5.65,0,0,1,0,.58A5.62,5.62,0,0,0,34.73,6.19Zm.21.4s0,.09,0,.14,0,.06-.07,0,0,0,0-.08v0c0-.31,0-.62,0-.93s.05-.47.06-.71V4.78s0,0,0-.08a0,0,0,0,1,0,0s0,0,0,0a.11.11,0,0,1,0,0,4,4,0,0,1,0,.69c0,.19,0,.38,0,.57A2.83,2.83,0,0,1,34.94,6.59Zm.27-1a4.39,4.39,0,0,0,0,.81,1.71,1.71,0,0,1,0,.32c0,.09,0,.11-.1.11s-.1,0-.08-.14a4.78,4.78,0,0,0,.06-.53c0-.28,0-.57,0-.85s0-.5,0-.75,0-.54,0-.81a1.23,1.23,0,0,0,0-.33.28.28,0,0,1,0-.09,2.47,2.47,0,0,0,0-.61c0-.22-.08-.43-.13-.64a1.78,1.78,0,0,0-.41-.78,0,0,0,0,1,0-.06.74.74,0,0,1,.45.2,1,1,0,0,1,.13.23,1.79,1.79,0,0,1,.11.55c0,.36.07.71.08,1.06a2.81,2.81,0,0,1,0,.29.29.29,0,0,0,.16.26.72.72,0,0,0,.32.11s.06,0,.09.07a.14.14,0,0,0,.2,0L36,4a.15.15,0,0,0,.11-.11c0-.06,0-.07.09-.08l.43-.06c.06,0,.1,0,.12.06a.11.11,0,0,0,.11.06l.24,0s.08,0,.11-.07,0,0,.06,0a.38.38,0,0,1,0,.18s0,.05-.06.05a1.44,1.44,0,0,0-.68.06,4.21,4.21,0,0,0-.48.12c-.13,0-.25.08-.37.12a2,2,0,0,1-.4.1c-.09,0-.1,0-.11.1s0,.28,0,.41S35.23,5.36,35.21,5.57Zm.31-.67s0,.06-.07.06-.06,0-.05-.08a.49.49,0,0,1,.06-.17s0,0,0,0,0,0,0,.05v.08h0Zm-.2-.07h0a.49.49,0,0,1,0-.24.05.05,0,0,1,.07,0s0,0,0,.07Zm.21,1.87c0,.1-.07.13-.14.13a.15.15,0,0,1-.12-.16,5.57,5.57,0,0,1,0-1.08c0-.15,0-.29,0-.44s0-.09.09-.09h.11c.08,0,.11,0,.11-.12v-.2s0,.07,0,.11a2,2,0,0,1,0,.34,8.24,8.24,0,0,1-.08,1.22A1.36,1.36,0,0,1,35.53,6.7Zm2.35-.87a1.81,1.81,0,0,1-.17.72.2.2,0,0,1-.16.13,5.91,5.91,0,0,1-1,.19l-.17,0a1,1,0,0,1-.6,0c-.16,0-.18-.07-.15-.23a2.14,2.14,0,0,0,.06-.35,10.88,10.88,0,0,0,.06-1.14c0-.12,0-.24,0-.36a.14.14,0,0,1,.08-.13c.12,0,.24-.08.36-.12a3.44,3.44,0,0,1,.55-.15,5,5,0,0,1,.77,0,.22.22,0,0,1,.17.09.75.75,0,0,1,.15.37,3.93,3.93,0,0,1,.06.69A3,3,0,0,1,37.88,5.83Z"/><path class="cls-2" d="M30.18,4.7a1.25,1.25,0,0,0,.16-.24.28.28,0,0,0,0-.25.76.76,0,0,0-.2-.32,4.32,4.32,0,0,0-.92-.84.34.34,0,0,0-.34-.11h0a.12.12,0,0,0-.15.05.81.81,0,0,1-.19.18.6.6,0,0,0-.22.37.73.73,0,0,0,.16.55,1.1,1.1,0,0,0,.25.23.71.71,0,0,1,.14.1,2.12,2.12,0,0,0,.71.42A.55.55,0,0,0,30.18,4.7Zm-.53,0a1.68,1.68,0,0,1-.56-.3c-.09-.08-.19-.14-.28-.21a.9.9,0,0,1-.2-.19.83.83,0,0,1-.17-.44.33.33,0,0,1,0-.14,1.22,1.22,0,0,1,.32-.36.29.29,0,0,1,.34,0,4.61,4.61,0,0,1,.6.47,2.74,2.74,0,0,1,.47.55.26.26,0,0,1,0,.32c-.06-.13-.14-.23-.19-.36l-.1-.21a.16.16,0,0,0,0-.07.05.05,0,0,0-.08,0,.06.06,0,0,0,0,.08s0,0,0,0a4.72,4.72,0,0,1,.27.61.11.11,0,0,1,0,.14A.37.37,0,0,1,29.65,4.75Z"/><path class="cls-2" d="M27.1,1.87s-.05,0-.07,0a0,0,0,0,0,0,.06,1.12,1.12,0,0,0,.11.25.08.08,0,0,0,.11,0s0,0,0,0A1.38,1.38,0,0,0,27.1,1.87Z"/><path class="cls-2" d="M29.68,5.16a.34.34,0,0,0,.31,0,2,2,0,0,0,.39-.24.27.27,0,0,0,.12-.14l.09-.19a.39.39,0,0,0,.06-.24.21.21,0,0,1,0-.11,5.84,5.84,0,0,0,.41-.68l.1-.14c.07-.15.15-.29.23-.43s.17-.25.24-.39a1.13,1.13,0,0,0,.13-.54.3.3,0,0,0-.2-.29.58.58,0,0,0-.5,0A.14.14,0,0,0,31,2s.05.08.12.1h.07c.08,0,.11,0,.11.13a.22.22,0,0,1,0,.11,1.43,1.43,0,0,1-.14.34c-.12.2-.24.4-.34.6a2.34,2.34,0,0,1-.33.49c-.05,0-.07.06-.11,0a4.68,4.68,0,0,0-.56-.53A2.46,2.46,0,0,0,29,2.73a.48.48,0,0,0-.29,0,.19.19,0,0,1-.21-.07.7.7,0,0,0-.08-.1.6.6,0,0,0-.19-.16c-.05,0-.07,0-.06-.12a1,1,0,0,0-.23-.74,2.73,2.73,0,0,0-.49-.47L27.06.8l.36-.06.37-.08a2.25,2.25,0,0,1,.35-.09,4.49,4.49,0,0,1,1-.08,1.91,1.91,0,0,1,.41,0,.31.31,0,0,1,.26.31c0,.08,0,.1.1.09a.31.31,0,0,0,.24-.25A.52.52,0,0,0,29.63.1a3.34,3.34,0,0,0-.77.06l-.61.08c-.19,0-.39.06-.58.11L26.8.57a.82.82,0,0,1-.35,0c-.05,0-.11,0-.1.05s0,0-.05,0A2.34,2.34,0,0,0,26,1a1.21,1.21,0,0,0-.19.2.3.3,0,0,0-.06.22,1.51,1.51,0,0,1,0,.3.57.57,0,0,0,.16.38,2,2,0,0,0,.19.22,3.31,3.31,0,0,0,.26.27,3.44,3.44,0,0,0,.77.43.38.38,0,0,0,.37,0,.19.19,0,0,1,.11-.05.23.23,0,0,0,.19-.09.21.21,0,0,1,.31,0l.05,0c.07.07.08.1,0,.18l-.11.15s-.06.09,0,.14a.14.14,0,0,1,0,.14.67.67,0,0,0,0,.42,1,1,0,0,0,.21.37,2.37,2.37,0,0,0,.66.6C29.21,4.92,29.43,5.06,29.68,5.16Zm.91-1.29c.14-.15.21-.33.33-.48A.91.91,0,0,0,31,3.22c.08-.16.17-.32.26-.47a1.63,1.63,0,0,0,.2-.47A.36.36,0,0,0,31.41,2a.14.14,0,0,0-.14,0s-.1,0-.1,0,0-.06.08-.07a.35.35,0,0,1,.34.06.17.17,0,0,1,.06.15,1.1,1.1,0,0,1-.19.61,9.52,9.52,0,0,0-.52.87,4.89,4.89,0,0,1-.33.51C30.54,4,30.53,3.93,30.59,3.87ZM27,.61c.23,0,.45-.12.68-.17l.8-.13L29.21.2a1.51,1.51,0,0,1,.37,0,.44.44,0,0,1,.4.42c0,.06,0,.07-.06.14a.24.24,0,0,1-.05-.1.33.33,0,0,0-.19-.21.67.67,0,0,0-.31-.07,8.39,8.39,0,0,0-1,.06,6.42,6.42,0,0,0-.87.19,4.07,4.07,0,0,1-.61.08.07.07,0,0,1-.07,0A.28.28,0,0,1,27,.61Zm1.64,3.73-.25-.29a.24.24,0,0,1-.09-.18.14.14,0,0,0,0-.06.61.61,0,0,1,0-.46.08.08,0,0,0,0-.09s0-.07,0-.11A.57.57,0,0,0,28.35,3a.21.21,0,0,0,0-.27,1.12,1.12,0,0,0-.21-.17.16.16,0,0,0-.15,0l-.06,0c-.08,0-.14.12-.21.15a.54.54,0,0,0-.22.09.31.31,0,0,1-.32,0,2.24,2.24,0,0,1-.87-.57,2.13,2.13,0,0,1-.34-.45.29.29,0,0,1,0-.18.34.34,0,0,0,0-.2.22.22,0,0,1,0-.21A2.33,2.33,0,0,1,26.4.77a.19.19,0,0,1,.18,0,1.36,1.36,0,0,1,.5.24,5.27,5.27,0,0,1,.58.48,1.79,1.79,0,0,1,.3.47.57.57,0,0,1,0,.29.22.22,0,0,0,.13.24.93.93,0,0,1,.28.28.21.21,0,0,0,.25.09.66.66,0,0,1,.44,0,2.68,2.68,0,0,1,.73.47,4.14,4.14,0,0,1,.38.35,1.42,1.42,0,0,1,.26.38.47.47,0,0,1,0,.47s-.05.09-.07.14A.61.61,0,0,1,30,5a.14.14,0,0,1-.14,0s-.05,0-.07,0,0,0,0,.07,0,0,0,0A.79.79,0,0,1,29.58,5l-.66-.35A1.76,1.76,0,0,1,28.61,4.34Z"/><path class="cls-2" d="M26.91,1A1.27,1.27,0,0,0,26.54.8a.33.33,0,0,0-.14,0,.1.1,0,0,0,0,.09s0,0,0,.06a.81.81,0,0,0-.21.24.52.52,0,0,0,0,.55,1.86,1.86,0,0,0,.43.57,2,2,0,0,0,.6.36.36.36,0,0,0,.29,0,.83.83,0,0,0,.39-.24.28.28,0,0,0,.1-.23.66.66,0,0,0-.15-.43A3.71,3.71,0,0,0,26.91,1Zm.68,1.49-.16.1a.33.33,0,0,1-.32,0,1.57,1.57,0,0,1-.29-.16,1.53,1.53,0,0,1-.6-.61.5.5,0,0,1,0-.55A.92.92,0,0,1,26.46,1a.11.11,0,0,1,.12,0,1.5,1.5,0,0,1,.47.28,4.29,4.29,0,0,1,.54.59.65.65,0,0,1,.14.29A.33.33,0,0,1,27.59,2.47Z"/><path class="cls-2" d="M29.73,4.12a.06.06,0,0,0-.07,0s0,0,0,.07a1.75,1.75,0,0,0,.11.24s.1,0,.12,0v0A2.1,2.1,0,0,0,29.73,4.12Z"/><path class="cls-2" d="M27.32,1.67a.18.18,0,0,0-.05-.07s-.07,0-.08,0a.19.19,0,0,0,0,.13,2.88,2.88,0,0,0,.22.38.12.12,0,0,0,0,.05s.06,0,.09,0,0-.05,0-.08A3,3,0,0,1,27.32,1.67Z"/><path class="cls-2" d="M-1.18,6.19A3.35,3.35,0,0,0-1,6.82a3.49,3.49,0,0,1,.27.7,4.41,4.41,0,0,0,.3.74,4.19,4.19,0,0,1,.22.59,5.08,5.08,0,0,0,.39.93,1.19,1.19,0,0,0,.26.33.74.74,0,0,0,1,.1A1.24,1.24,0,0,0,1.71,10a.48.48,0,0,0,.17-.37,2.32,2.32,0,0,0-.12-1c-.06-.17-.14-.34-.22-.51A1.49,1.49,0,0,0,1.4,7.9a5.34,5.34,0,0,0-.35-.48C.81,7.16.56,6.9.31,6.65a2.86,2.86,0,0,1-.4-.45,7.9,7.9,0,0,1-.49-.74s-.05-.08,0-.12.07-.11,0-.17l-.08-.1C-.7,5-.7,4.93-.59,4.82a1,1,0,0,0,.18-.23A1.68,1.68,0,0,0-.09,3.53s0-.06,0-.09a1.74,1.74,0,0,0-.19-1,1.41,1.41,0,0,1-.1-.31,1.25,1.25,0,0,0-.43-.8A3.78,3.78,0,0,0-1.46.81,5.53,5.53,0,0,0-2.18.57l-.18,0a5.36,5.36,0,0,0-1,.12,2.13,2.13,0,0,0-1,.46A3.8,3.8,0,0,1-5,1.65a.54.54,0,0,0-.28.44.85.85,0,0,1,0,.23,3,3,0,0,0-.1.93,2.55,2.55,0,0,0,.52,1.51,3.07,3.07,0,0,0,1.13.85,2.64,2.64,0,0,0,.73.2,1.07,1.07,0,0,0,.78-.11,2,2,0,0,1,.42-.19c.15,0,.16,0,.23.09s0,0,0,.06.07.2.21.19.06,0,.08.07A1.15,1.15,0,0,1-1.18,6.19ZM1.56,8.63a2.18,2.18,0,0,1,.13,1,.53.53,0,0,1-.17.35,1.12,1.12,0,0,1-.33.2.41.41,0,0,1-.31,0,.8.8,0,0,1-.44-.32A4,4,0,0,1,0,8.91l.06,0a2.36,2.36,0,0,1,1.33-.45.08.08,0,0,0,.07,0A1.8,1.8,0,0,1,1.56,8.63Zm-.2-.46a2.62,2.62,0,0,0-1.43.49l-.08-.21a.19.19,0,0,0,.11,0,2,2,0,0,1,.69-.29A1.7,1.7,0,0,1,1.23,8h0ZM-2.25,5.5A1.44,1.44,0,0,1-3,5.66a2.79,2.79,0,0,1-1.6-.76,1.46,1.46,0,0,1-.27-.38,4.7,4.7,0,0,1-.29-.7,1,1,0,0,1,0-.41.28.28,0,0,0,0-.09,2.12,2.12,0,0,1,.06-.83,2.7,2.7,0,0,0,0-.28.61.61,0,0,1,.42-.51,3.36,3.36,0,0,0-.18.71,2.56,2.56,0,0,0,0,1.23,1.42,1.42,0,0,1,0,.2,1.38,1.38,0,0,0,.39.79,3.72,3.72,0,0,0,.83.65,1.17,1.17,0,0,0,.6.18,4.71,4.71,0,0,0,.65,0A.13.13,0,0,1-2.25,5.5Zm-.45-.16h-.1A1.72,1.72,0,0,1-4,4.85a2.85,2.85,0,0,1-.42-.43A.94.94,0,0,1-4.62,4c0-.06,0-.12,0-.18a3.16,3.16,0,0,1,.07-1.85,1.23,1.23,0,0,1,.36-.61A2.15,2.15,0,0,1-3.37.86c.28-.07.56-.07.83-.13A1,1,0,0,1-2,.78a2.65,2.65,0,0,1,1.12.6,1.35,1.35,0,0,1,.43.88.53.53,0,0,0,.08.25,1.24,1.24,0,0,1,.17.65c0,.21,0,.42,0,.63a.71.71,0,0,1-.07.26,1.89,1.89,0,0,1-.86,1A3.21,3.21,0,0,1-2.7,5.34Zm1.17.2c-.05-.12,0-.15.07-.19l.35-.16c.15-.07.15-.07.29.06a5.13,5.13,0,0,1-.52.34C-1.46,5.66-1.48,5.65-1.53,5.54Zm.37.34c-.06-.08,0-.14,0-.21A1.45,1.45,0,0,1-.86,5.5s.09,0,.12,0l.4.6A2.94,2.94,0,0,0,0,6.57c.13.12.25.25.37.38s.42.4.59.63a1.13,1.13,0,0,1,.1.13,3.08,3.08,0,0,0-.54.16,2.09,2.09,0,0,0-.76.34l0,0a.89.89,0,0,0-.08-.17,2.83,2.83,0,0,1-.21-.55,3.06,3.06,0,0,0-.24-.66A4.16,4.16,0,0,1-1,6.21.89.89,0,0,0-1.16,5.88Z"/><path class="cls-2" d="M45,7.52c.11-.12.12-.18.3-.17a.56.56,0,0,0,.4-.11A.71.71,0,0,0,46,6.89c.05-.14.05-.3.09-.44a.55.55,0,0,1,.24-.37s.09-.08,0-.14-.09,0-.14,0a1,1,0,0,1-.46.08,2,2,0,0,0-.49.09c-.3.11-.35.39-.44.66a.41.41,0,0,1-.23.3,3.37,3.37,0,0,0-.36.3c-.13.12-.28.22-.41.33l-.21.2s-.08.12-.15.13.1-.2.13-.25l.17-.28A5.85,5.85,0,0,0,44,7a8.61,8.61,0,0,0,.41-1.21c.05-.18.14-.33.2-.5s0-.14,0-.14-.11.12-.15.16a4.59,4.59,0,0,1-.36.41,2.51,2.51,0,0,1-.44.35c-.07,0-.17.09-.24.15s0,.1,0,.16a1.28,1.28,0,0,1-.11.2c0,.07-.06.16-.1.22s-.09,0-.1-.06a.2.2,0,0,1,0-.17,4,4,0,0,0,.16-.45c.21-.73.45-1.45.7-2.17.13-.37.25-.74.36-1.12a5.29,5.29,0,0,0,.15-.57c0-.1,0-.14-.11-.16S44,2,43.79,1.94l-.26-.07a.83.83,0,0,0-.21-.06c-.13,0-.17.18-.21.28l-.18.51c-.24.72-.46,1.45-.67,2.18l-.18.58a1.6,1.6,0,0,1-.16.48s0,.07-.05,0a.31.31,0,0,1,0-.09,2.25,2.25,0,0,1,0-.22,1.48,1.48,0,0,1,0-.21c0-.07-.06-.1-.08-.16s0-.26-.18-.33-.2,0-.24.12a1,1,0,0,1-.06.23s-.05.05-.06.07,0,0,0,.06-.18.26-.24.41a6.14,6.14,0,0,0-.35,1,.92.92,0,0,0,0,.52c.06.18.15,0,.28.06s0,.21,0,.31-.08.1-.15.15-.12.31-.15.48c-.09.42-.21.83-.32,1.24s-.17.84-.26,1.26c0,.19-.07.38-.1.58a1.85,1.85,0,0,1-.19.56.22.22,0,0,0,0,.27,2.79,2.79,0,0,0,.42.35,3,3,0,0,0,1,.42,1.88,1.88,0,0,0,.53.06.4.4,0,0,0,.34-.11c.09-.12,0-.25.07-.39a1.42,1.42,0,0,1,.25-.47c.18-.35.35-.7.52-1s.36-.69.53-1c.08-.17.17-.35.26-.52a2,2,0,0,1,.1-.21c0-.05.12-.1.14-.16s-.05-.12-.05-.19a.22.22,0,0,1,.06-.15,4.38,4.38,0,0,1,.36-.39c.13-.15.26-.29.38-.44S44.88,7.65,45,7.52Zm-.05-.7a1.12,1.12,0,0,1,.17-.44c.22-.23.6-.2.89-.22a2.74,2.74,0,0,0-.15.51.92.92,0,0,1-.14.39.6.6,0,0,1-.7.12C44.82,7.1,44.9,7,44.94,6.82Zm-1.86,1.5c.14-.32.28-.63.44-.94.08-.15.17-.28.25-.43s.06-.13.19-.12A8.85,8.85,0,0,1,43.08,8.32Zm-.18.12c0,.1-.08.12-.17.19l-.23.17a3.11,3.11,0,0,1,.26-.59c.12-.22.24-.43.35-.65s.21-.43.31-.65c0,0,0-.11.06-.13s0,0,.08,0,.07,0,.12,0,.07-.06.12-.06c-.19.39-.44.77-.61,1.18C43.11,8.06,43,8.24,42.9,8.44Zm.9-2.35a2.35,2.35,0,0,1,.25-.19c.08,0,.12,0,.2,0a2.91,2.91,0,0,1-.27.69s0-.15-.11-.12-.13.18-.21.15,0-.14,0-.19-.13,0-.18,0C43.49,6.3,43.67,6.19,43.8,6.09Zm-.64,1c.05-.1.13-.46.27-.44A1.27,1.27,0,0,1,43.3,7c0,.09-.06.19-.11.28s-.19.38-.29.56-.21.36-.3.55-.2.49-.3.48.05-.2.07-.23.1-.2.16-.3l.32-.6C43,7.5,43.07,7.29,43.16,7.08Zm-.27-1c-.15,0-.32.1-.46,0A.66.66,0,0,1,42.89,6.1Zm-.3-.34s0,0,0,0Zm-.16.52c.08,0,.42-.08.47,0a1.3,1.3,0,0,1,0,.13c0,.07,0,.08-.07.11a.41.41,0,0,1-.36,0A.21.21,0,0,1,42.43,6.28Zm.25.34c.08,0,.23-.09.23,0s-.15.11-.23.09a.47.47,0,0,1-.31-.18C42.45,6.53,42.59,6.62,42.68,6.62Zm-.28.28h0l.07,0h.11a.9.9,0,0,1,.23,0c.1,0,.11.05.1.14a1.35,1.35,0,0,1,0,.28c-.21.39-.39.81-.63,1.18a1.4,1.4,0,0,1-.15.24c-.09,0-.08-.08-.07-.14s.08-.39.11-.59.08-.44.12-.67S42.28,7,42.4,6.9Zm-.6,1.47c0-.16,0-.31,0-.47s0-.35,0-.52a2.27,2.27,0,0,1,0-.45c0-.08.08-.07.11-.13s0-.06,0-.1a.44.44,0,0,1,0-.32c0-.06,0-.14.06-.14s.07.07.11,0S42,6.1,42,6a.55.55,0,0,1,.11-.29c.06,0,.15,0,.21,0s-.08-.14-.11-.21a.34.34,0,0,1,0-.26c0-.07.25,0,.16-.14s-.06,0-.08-.08,0-.1,0-.15,0-.14.13-.15.11,0,.12,0-.09-.07-.11-.1,0-.29.09-.28.3.11.25,0-.13-.08-.17-.1-.08,0-.07-.1a.34.34,0,0,1,0-.14c.05-.07.05,0,.14,0s.12,0,.06-.09-.09,0-.11-.08a.58.58,0,0,1,0-.19.19.19,0,0,1,.09-.09c.06,0,.12,0,.07-.08s-.07,0-.08-.09S42.9,3,43,3s.3.11.27,0-.2-.07-.25-.15a.31.31,0,0,1,.08-.26s.25,0,.16-.1-.16-.09-.08-.21.17,0,.23-.1-.16-.06-.16-.14.14,0,.2,0c.22.06.44.11.66.18,0,0,.17,0,.19.08a.82.82,0,0,1-.07.3c-.06.23-.13.46-.2.69-.14.46-.3.9-.45,1.36-.07.24-.14.47-.22.71,0,.08-.15.59-.23.58s.13-.36,0-.46-.35-.06-.45,0a.29.29,0,0,0-.28.28.46.46,0,0,1,0,.2c-.05.06-.11.06-.12.13s0,.14,0,.22a.05.05,0,0,1,0,0,.2.2,0,0,1,0,.07.14.14,0,0,1,0,.09c0,.07-.06.12,0,.18s0,.11,0,.18c0,.34-.13.67-.19,1,0,.15,0,.31-.06.47s0,.33-.1.37S41.79,8.41,41.8,8.37ZM41.39,5c0-.09.09-.16.17-.06a.29.29,0,0,1,0,.2c0,.07-.16,0-.2,0S41.37,5.09,41.39,5Zm.2.32c-.09.06-.09.06-.18,0A.37.37,0,0,1,41.59,5.35Zm-.36.58c0-.07,0-.14.05-.21s0-.13,0-.16.14,0,.21,0,.2.25.22.41a3.87,3.87,0,0,1,0,.76l0,.35c0,.13,0,.27,0,.4s-.36.18-.5.11S41,7.48,41,7.36a2.19,2.19,0,0,1,0-.27c0-.13,0-.25,0-.38S41.17,6.19,41.23,5.93Zm.43,2.53c0,.08-.17,0-.23-.05A3.58,3.58,0,0,1,41,8.2c-.1-.08-.09-.2-.08-.32s0-.24.07-.25.11,0,.15.06a.64.64,0,0,0,.2,0,.62.62,0,0,0,.19,0l.13,0a1.88,1.88,0,0,1,0,.41C41.68,8.18,41.71,8.38,41.66,8.46Zm-.87-1.33s0,0-.06.07,0-.26,0-.36a3.48,3.48,0,0,1,.1-.44,6.78,6.78,0,0,1,.35-.84c.06.13,0,.3-.06.43s-.08.32-.11.49-.05.33-.07.49,0,.1-.05.13S40.81,7.11,40.79,7.13Zm0,.77a.12.12,0,0,1,0,.1S40.77,7.92,40.8,7.9Zm.74,4.95a3.22,3.22,0,0,1-.6-.13,3.11,3.11,0,0,1-.59-.26,1.69,1.69,0,0,1-.49-.39c0-.06,0-.13,0-.11a1.86,1.86,0,0,1,.22.19,2.26,2.26,0,0,0,.54.32,2.85,2.85,0,0,0,1.25.25C41.86,12.89,41.7,12.86,41.54,12.85ZM43,10.43c-.14.32-.32.62-.47.94a8.29,8.29,0,0,1-.43.84,2.43,2.43,0,0,0-.14.2s0,.09,0,.12-.18.05-.26.05a2.58,2.58,0,0,1-1.57-.73c-.17-.18,0-.53,0-.75a8.52,8.52,0,0,1,.16-.88c.07-.29.12-.58.19-.87l.12-.49a.91.91,0,0,1,.12-.35,3.4,3.4,0,0,0,1.31.67c.24.09.47.21.71.29a1.77,1.77,0,0,0,.76.06C43.24,9.82,43.11,10.13,43,10.43Zm.09-1a2.8,2.8,0,0,1-.69-.23c-.21-.09-.43-.16-.65-.24a4.27,4.27,0,0,1-.61-.29c-.14-.07-.42-.21-.44-.39a.36.36,0,0,1,0-.11s.06,0,.1,0l.25.16A6.77,6.77,0,0,0,42.2,9a4.54,4.54,0,0,0,1.36.25C43.5,9.42,43.25,9.45,43.06,9.44Zm.53-.38c0-.06,0-.08.09-.11S43.65,9.05,43.59,9.06Zm.62-.93c-.06.08-.14.15-.21.23l-.43.44c-.11.11-.21.25-.38.24a2.44,2.44,0,0,1-.6-.11c0-.09.12-.1.18-.13A.9.9,0,0,0,43,8.65a5.46,5.46,0,0,1,.44-.38,4.82,4.82,0,0,0,.43-.36s.1-.12.18-.11.12.09.16.12.09.06.1.09S44.24,8.09,44.21,8.13Zm.29-.41c-.08,0-.21-.16-.18-.23a.13.13,0,0,1,.18-.06s.18.08.17.16S44.56,7.72,44.5,7.72Z"/><path class="cls-2" d="M19.1,38.33a3.81,3.81,0,0,0-.83.72,4.74,4.74,0,0,0-.56.91,2.26,2.26,0,0,0-.17.52c-.05.17-.11.33-.16.5A4.15,4.15,0,0,0,17.26,42a2,2,0,0,0,0,.54c0,.16.07.32.11.48a8.35,8.35,0,0,0,.35,1.07,1.54,1.54,0,0,0,.34.49c.12.12.24.31.43.25a1.9,1.9,0,0,0,.49-.35l.56-.39c.35-.24.68-.52,1-.75a11.13,11.13,0,0,0,1.1-.81c.31-.27.63-.52.94-.8s.61-.5.88-.77.59-.53.87-.81.3-.3.44-.47.21-.25.19-.36-.07-.1-.11-.14a2.12,2.12,0,0,1-.2-.24c-.12-.13-.24-.26-.37-.38a3.55,3.55,0,0,0-1-.59,4.64,4.64,0,0,0-1-.38,3,3,0,0,0-1.08-.12,7.55,7.55,0,0,0-1.15.23A4.11,4.11,0,0,0,19.1,38.33Zm3.38-.43a5.83,5.83,0,0,1,1.33.58,2.45,2.45,0,0,1,.54.42l.24.29c0,.05.17.16.18.21s-.11,0-.15.1,0,.06,0,.1a.21.21,0,0,1,0,.1s-.13.19-.2.21-.13,0-.2-.06c-.25,0-.07.19-.07.3s-.16.22-.25.27-.17,0-.2.1a.33.33,0,0,1-.11.2,1.65,1.65,0,0,1-.24.22c-.09,0-.14,0-.23,0s-.13,0-.1.12.06.1,0,.19-.13.08-.22.11-.05.08-.09.15a1.05,1.05,0,0,1-.28.24c-.08,0-.11-.06-.19-.06s-.09.09-.08.17,0,.1-.07.17a.35.35,0,0,1-.11.1c-.06,0-.1,0-.15,0s-.05.08-.08.17a.81.81,0,0,1-.39.32c-.11,0-.17-.12-.27-.06s0,.1,0,.17-.22.23-.38.22c0,.13,0,.18-.13.24a1.1,1.1,0,0,1-.25.19.29.29,0,0,1-.24,0c-.08,0-.14-.05-.12.08s.1.14,0,.22a.72.72,0,0,1-.27.15c-.08,0-.19,0-.24,0s0,.09,0,.14-.08.07-.11.09-.15.15-.22.14-.12-.11-.2-.12-.1.1-.06.18.08.07,0,.15a.27.27,0,0,1-.12.09s-.08.09-.12.08,0-.08-.06-.1-.13,0-.12.1,0,.13-.07.12-.23-.19-.29-.27a3.62,3.62,0,0,1-.57-1.39,4.47,4.47,0,0,1-.16-.81,4.32,4.32,0,0,1,.05-.62,4.57,4.57,0,0,1,1-2.5,6.67,6.67,0,0,1,1.18-.92,3.55,3.55,0,0,1,1.48-.45A2.84,2.84,0,0,1,22.48,37.9Z"/><path class="cls-2" d="M19.6,39.42c0,.08.09.07,0,.16l-.17.17c-.09.09-.28.15-.31.24a1.42,1.42,0,0,1-.17.35c-.11.19-.17,0-.28.06s.11.3.11.4-.14.2-.18.32.07.3-.08.38-.25,0-.23.15.08.1.13.14.07.06.07.16,0,.16,0,.25a.6.6,0,0,1,0,.19c0,.12-.17.12,0,.22s.17.13.11.26-.2.25-.06.31a1.29,1.29,0,0,0,.43-.17c.15-.1.26-.26.4-.37a5.22,5.22,0,0,1,.45-.33c.31-.21.63-.41.93-.65.57-.48,1.2-.88,1.79-1.34a5.58,5.58,0,0,0,.46-.39l.18-.17c.06,0,.11-.06.18-.11s.26-.25.15-.34-.18.06-.28,0-.13-.19-.17-.3S23,39,22.86,39a.72.72,0,0,1-.4-.14c-.06,0-.05-.21-.15-.21s-.06.19-.18.23-.27,0-.31,0,0-.13-.07-.11-.06.11-.1.15-.29.08-.4.1-.19-.33-.29-.18,0,.17-.1.24a.57.57,0,0,1-.28.08S20.5,39,20.45,39s-.06.12-.1.16a.63.63,0,0,1-.2.1c-.12,0-.24.15-.37,0s-.08-.11-.16-.08S19.56,39.36,19.6,39.42Zm.58,0a4.55,4.55,0,0,1,1.42-.35,3.22,3.22,0,0,1,.69-.06.88.88,0,0,1,.52.25c.1.08.31.15.24.3s-.14.15-.2.2l-.24.22c-.36.3-.76.55-1.14.83s-.72.57-1.09.84a12.44,12.44,0,0,0-1.12.78,3.73,3.73,0,0,1-.3.26s-.09.1-.15.09-.13-.29-.13-.37a3.31,3.31,0,0,1,.16-1.25,2.72,2.72,0,0,1,.47-1A2.42,2.42,0,0,1,20.18,39.47Z"/><path class="cls-2" d="M14.83,24.62h-1v1.14H15v.72H13l0-4.22h1.83V23h-1v1h1Z"/><path class="cls-2" d="M15.53,22.32a3.82,3.82,0,0,1,.83-.08,1.68,1.68,0,0,1,1.17.38,2.23,2.23,0,0,1,.55,1.71,2.35,2.35,0,0,1-.6,1.78,1.78,1.78,0,0,1-1.3.41l-.67-.05Zm.8,3.51a.36.36,0,0,0,.15,0c.39,0,.74-.39.74-1.55,0-.87-.22-1.4-.71-1.4a.41.41,0,0,0-.16,0Z"/><path class="cls-2" d="M19.4,22.28V25c0,.62.18.81.4.81s.4-.17.41-.81V22.28H21v2.6c0,1.09-.42,1.68-1.23,1.67s-1.23-.61-1.22-1.67V22.27Z"/><path class="cls-2" d="M23.74,26.46a1.8,1.8,0,0,1-.64.1c-1.07,0-1.58-.9-1.58-2.1,0-1.59.9-2.21,1.72-2.2a1.2,1.2,0,0,1,.57.11l-.14.69a.9.9,0,0,0-.38-.08c-.47,0-.89.4-.9,1.44s.38,1.41.88,1.41a1.53,1.53,0,0,0,.4-.06Z"/><path class="cls-2" d="M25,25.56l-.19,1H24l.94-4.22h1l.8,4.23h-.79l-.18-1Zm.69-.63L25.52,24c0-.25-.09-.67-.13-1h0c0,.28-.11.72-.15,1l-.16.87Z"/><path class="cls-2" d="M15.59,32a2.1,2.1,0,0,1-.79.12c-1.33,0-2-1.11-2-2.58,0-2,1.1-2.72,2.11-2.71a1.4,1.4,0,0,1,.71.14l-.18.85a1,1,0,0,0-.47-.11c-.57,0-1.09.49-1.09,1.78s.46,1.73,1.07,1.74a1.73,1.73,0,0,0,.49-.08Z"/><path class="cls-2" d="M17.15,26.83l0,3.38c0,.77.23,1,.49,1s.5-.2.51-1V26.84h1v3.21c0,1.33-.51,2.05-1.52,2.05s-1.51-.76-1.5-2.06l0-3.21Z"/><path class="cls-2" d="M20,26.93a5.4,5.4,0,0,1,1.15-.1,1.93,1.93,0,0,1,1.31.38,1.18,1.18,0,0,1,.39.94,1.2,1.2,0,0,1-.76,1.13v0A1.26,1.26,0,0,1,23,30.56a1.4,1.4,0,0,1-.39,1,2.21,2.21,0,0,1-1.71.51A7.39,7.39,0,0,1,20,32Zm1,4.37h.23a.7.7,0,0,0,.75-.77.74.74,0,0,0-.75-.8H21ZM21,29h.21a.68.68,0,0,0,.65-.73c0-.38-.18-.67-.59-.67a.69.69,0,0,0-.27,0Z"/><path class="cls-2" d="M26.81,29.39c0,2-.71,2.75-1.7,2.75-1.18,0-1.63-1.26-1.63-2.69s.58-2.64,1.73-2.64S26.82,28.2,26.81,29.39Zm-2.28.08c0,1.18.22,1.78.63,1.79s.59-.77.59-1.83-.13-1.74-.58-1.74S24.54,28.35,24.53,29.47Z"/><path class="cls-2" d="M24.51,16.25,23.58,16a.29.29,0,0,0-.37.2.3.3,0,0,0,.19.38l.93.29h.09a.3.3,0,0,0,.09-.59Z"/><path class="cls-2" d="M22.66,15.68l-.92-.29a.3.3,0,1,0-.18.58l.92.29h.09a.3.3,0,0,0,.29-.21A.3.3,0,0,0,22.66,15.68Z"/><path class="cls-2" d="M26.13,9.16v0h0V9h0V9h0V9h0l0,0h-.08L18.38,6.57a.32.32,0,0,0-.27,0l-5.2,3.68h0l-.05,0h0a.1.1,0,0,0,0,.05h0a.14.14,0,0,0,0,.06h0v.06h0v7.79a.29.29,0,0,0,.21.29L20.56,21h.26L26,17.23a.31.31,0,0,0,.13-.25V9.18h0Zm-.7,7.38a.3.3,0,0,0-.38.2.29.29,0,0,0,.13.34l-4.23,3V15.61a.54.54,0,0,0,.07-.13.32.32,0,0,0-.07-.3V13l4.59-3.25v6.8ZM13.86,17.87a.3.3,0,0,0-.42-.07l0,0V11l2,.61,2.7.84v.8a.32.32,0,0,0,.31.3h0a.3.3,0,0,0,.3-.3v-.62l1.64.51V15l-.44-.14a.3.3,0,1,0-.18.58l.62.19v4.66l-6.51-2A.3.3,0,0,0,13.86,17.87ZM18.07,7.38v.11a.31.31,0,0,0,.31.3h0a.29.29,0,0,0,.3-.3V7.3l6.48,2-4.58,3.24-1.9-.59-4.91-1.51Z"/><path class="cls-2" d="M14.49,17.74a.27.27,0,0,0,.17-.06l.87-.62a.3.3,0,1,0-.35-.49l-.87.62a.3.3,0,0,0-.07.42A.31.31,0,0,0,14.49,17.74Z"/><path class="cls-2" d="M16.23,16.5a.34.34,0,0,0,.17-.05l.87-.62a.3.3,0,1,0-.35-.49l-.87.61a.31.31,0,0,0-.07.43A.3.3,0,0,0,16.23,16.5Z"/><path class="cls-2" d="M18,15.27a.34.34,0,0,0,.17,0l.3-.22.36.11h.09a.3.3,0,0,0,.29-.21.3.3,0,0,0-.2-.38l-.29-.09v-.29a.29.29,0,0,0-.3-.3h0a.29.29,0,0,0-.3.3v.36l-.3.21a.3.3,0,0,0-.07.42A.29.29,0,0,0,18,15.27Z"/><path class="cls-2" d="M18.69,11.29v-.95a.31.31,0,0,0-.31-.3h0a.31.31,0,0,0-.3.3v1a.31.31,0,0,0,.3.3h0A.31.31,0,0,0,18.69,11.29Z"/><path class="cls-2" d="M18.38,9.69h0a.29.29,0,0,0,.3-.3v-1a.29.29,0,0,0-.3-.3h0a.29.29,0,0,0-.3.3v1A.29.29,0,0,0,18.38,9.69Z"/></g></svg>