<svg xmlns="http://www.w3.org/2000/svg" xmlns:xlink="http://www.w3.org/1999/xlink" viewBox="0 0 91.69 146.69"><defs><style>.cls-1{fill:none;}.cls-2{opacity:0.2;}.cls-3{clip-path:url(#clip-path);}.cls-4{fill:#fff;}</style><clipPath id="clip-path"><rect id="SVGID" class="cls-1" x="-605.44" y="-7.72" width="553.67" height="455.46"/></clipPath></defs><title>logoApp</title><g id="Camada_3" data-name="Camada 3"><g class="cls-2"><g class="cls-3"><path class="cls-4" d="M3.19,10.36a5.22,5.22,0,0,1-2.5-.82l.06-.09a5.1,5.1,0,0,0,2.44.81,6.11,6.11,0,0,0,2.67-.81l.06.09A6.34,6.34,0,0,1,3.19,10.36Z"/><path class="cls-4" d="M3.19,10.85A5.74,5.74,0,0,1,.42,10h0a.48.48,0,0,1-.13-.67l.06-.09A.47.47,0,0,1,1,9H1a4.62,4.62,0,0,0,2.17.73A5.66,5.66,0,0,0,5.61,9h0a.49.49,0,0,1,.67.17l0,.09a.49.49,0,0,1-.16.67h0A6.79,6.79,0,0,1,3.19,10.85Z"/><circle class="cls-4" cx="-0.07" cy="0.97" r="0.75"/><circle class="cls-4" cx="7.64" cy="0.97" r="0.75"/><path class="cls-4" d="M0-.19A3.42,3.42,0,0,1,1.58.33l0,.06A3.2,3.2,0,0,0,0-.12,3.86,3.86,0,0,0-1.69.39l0-.06A4,4,0,0,1,0-.19Z"/><path class="cls-4" d="M1.57.56,1.47.49A3.06,3.06,0,0,0,0,0,4,4,0,0,0-1.63.49l-.1.07L-1.89.29l.1-.06A4,4,0,0,1,0-.31,3.4,3.4,0,0,1,1.64.23L1.75.3Z"/><path class="cls-4" d="M7.71-.19A3.36,3.36,0,0,1,9.29.33l0,.06A3.1,3.1,0,0,0,7.71-.12,3.86,3.86,0,0,0,6,.39L6,.33A4,4,0,0,1,7.71-.19Z"/><path class="cls-4" d="M9.29.56,9.19.49A3.12,3.12,0,0,0,7.71,0,3.82,3.82,0,0,0,6.09.49L6,.56,5.82.29,5.93.23A4,4,0,0,1,7.71-.31,3.5,3.5,0,0,1,9.36.23l.1.07Z"/><path class="cls-4" d="M-.38,14a.21.21,0,0,1-.19-.12C-.64,13.77-1,8.31-.85,8.24a6.79,6.79,0,0,1,8.33,0c.1.08.4,6,.32,6.12a.21.21,0,0,1-.32.06L7.2,8.67A6.55,6.55,0,0,0,4.87,7.54,6.35,6.35,0,0,0-.61,8.68S-.34,14-.38,14Z"/><path class="cls-4" d="M7.62,14.73a.48.48,0,0,1-.3-.11l-.08-.07L7,8.79a6.51,6.51,0,0,0-2.16-1,6,6,0,0,0-5.17,1c0,.36.07,1.52.12,2.48.14,2.8.14,2.8,0,2.89l-.07.08H-.38A.48.48,0,0,1-.79,14,17.57,17.57,0,0,1-1,11.06c-.16-2.89-.11-2.93,0-3A7,7,0,0,1,5.05,6.8,7.1,7.1,0,0,1,7.63,8.06c.1.08.16.13.32,3.23s.1,3.14.06,3.22a.52.52,0,0,1-.33.21ZM3.28,7.09a6.79,6.79,0,0,1,1.65.21A6.85,6.85,0,0,1,7.26,8.41v0A6.74,6.74,0,0,0,4.93,7.27,6.51,6.51,0,0,0-.63,8.38v0A6.82,6.82,0,0,1,3.28,7.09Z"/><path class="cls-4" d="M-3.44-1.61a1.44,1.44,0,0,0,1.57-.65A4.12,4.12,0,0,0-1.34-4a2.83,2.83,0,0,1,.24-1,2.28,2.28,0,0,1,.57-.63,4.78,4.78,0,0,1,2.12-1,9.37,9.37,0,0,1,1.3-.11l2.5-.1a8.13,8.13,0,0,1,1.48,0A4.17,4.17,0,0,1,9.63-5a3.25,3.25,0,0,1,.33.61,5.44,5.44,0,0,1,.25.78l.48,1.93a15,15,0,0,1,.47,2.4,28.87,28.87,0,0,0,.15,3.08c0,.22-.2.46,0,.55s.28,0,.41.09.36.45.41.74c.09.58-.35,1.15-.27,1.73.14-.34,1.13-.68,1.27-1l.49.23a1.81,1.81,0,0,0-.25-.74.79.79,0,0,0,1-.23c.24-.28,0-.42.2-.75a6.79,6.79,0,0,0,.56-1.11,1,1,0,0,0-.33-1.11c-.45.36-.84.17-1.32-.18A.83.83,0,0,1,14,1.86a1.49,1.49,0,0,1-.4-.89,1.06,1.06,0,0,0,.65.74c.33.09.75-.18.7-.51a.86.86,0,0,0-.34-.48,3.48,3.48,0,0,1-1.53-1.95c0-.32,0-.65,0-1C13-3.38,12.17-4.33,11.6-5.35,11.21-6,11-6.81,10.5-7.48A4.82,4.82,0,0,0,6-9.53a1.49,1.49,0,0,0-1.26.73A12.27,12.27,0,0,0,3-9.85C2.09-10.29.3-10.6-.49-10a15.19,15.19,0,0,0-2,1.55C-3.61-6.67-4-5.82-5.16-4.13a1.36,1.36,0,0,0-.28.61c0,.38.23.77.08,1.12a2.7,2.7,0,0,1-.79.2A.4.4,0,0,0-5.64-2l-.28.41c.27.54.68,1.2.35,1.71A6.94,6.94,0,0,0-6.5,1.63a1.2,1.2,0,0,0,.59,1.52,1,1,0,0,1-1.38-.76A2.11,2.11,0,0,0-5.35,4a.78.78,0,0,1-1.09-.08,1.33,1.33,0,0,0,.63,1.23,1.34,1.34,0,0,0,1.39,0A2.17,2.17,0,0,0-3.8,2.86,6.81,6.81,0,0,1-4.08.46,4.41,4.41,0,0,1-2.51-1.75"/><path class="cls-4" d="M3.71,15.93a7,7,0,0,1-5-2.29A13.5,13.5,0,0,1-4.6,4C-4.26-6.54-.4-8,3.71-8c5.06,0,8.42,2,8.42,12C12.13,10.67,8.43,15.93,3.71,15.93Zm0-23.68C-.28-7.75-4-6.33-4.35,4a13.2,13.2,0,0,0,3.24,9.5,6.67,6.67,0,0,0,4.82,2.21c4.51,0,8.18-5.25,8.18-11.71C11.89-5.76,8.62-7.75,3.71-7.75Z"/><path class="cls-4" d="M12.07,4a11.6,11.6,0,0,1,0,3.9,11.56,11.56,0,0,1-1.35,3.79l-.27.44c-.09.15-.2.29-.3.43s-.21.27-.31.41-.23.27-.35.4a9,9,0,0,1-1.6,1.4,8.15,8.15,0,0,1-2,.95,7.43,7.43,0,0,1-4.38,0,8,8,0,0,1-2-1A8.66,8.66,0,0,1-2,13.36c-.23-.27-.45-.54-.65-.82L-3,12.11a4.12,4.12,0,0,1-.27-.45A11.67,11.67,0,0,1-4.54,4h.13A14.2,14.2,0,0,0-3.9,7.69a11.78,11.78,0,0,0,1.51,3.42A8.54,8.54,0,0,0,.22,13.75a6.47,6.47,0,0,0,3.52,1,6.7,6.7,0,0,0,3.53-1A9,9,0,0,0,9.89,11.1a12.2,12.2,0,0,0,1.54-3.41A14.65,14.65,0,0,0,12,4Z"/><path class="cls-4" d="M3.23,6.33a3.81,3.81,0,0,1-1.6-.42h0c-.65,0-.91-.77-.92-.8v-.4a.79.79,0,0,1,.87-.77v.49c-.11,0-.38,0-.38.28V5c0,.1.2.43.49.43h0l.06,0,.06,0a3.28,3.28,0,0,0,1.39.37,4.06,4.06,0,0,0,1.54-.38l.06,0h.09c.29,0,.45-.33.5-.44V4.71c0-.25-.27-.28-.38-.28V3.94a.79.79,0,0,1,.87.77v.36l0,0s-.26.76-.92.8H5A4.43,4.43,0,0,1,3.23,6.33Z"/><path class="cls-4" d="M3.86,13.65H3.19a.41.41,0,0,1-.41-.41l.1-1.08a.42.42,0,0,1,.41-.41h.46a.41.41,0,0,1,.41.41l.11,1.08A.42.42,0,0,1,3.86,13.65Z"/><path class="cls-4" d="M11.63.28h-.94a.69.69,0,0,0-.31-.5A8.63,8.63,0,0,0,4.93-.58a.62.62,0,0,0-.47.44H2.59A.63.63,0,0,0,2.1-.73a8.12,8.12,0,0,0-5.31.35.78.78,0,0,0-.33.66h-.84a.21.21,0,0,0-.21.21A.21.21,0,0,0-4.38.7h.85l.2,1.48s0,.51.84.61a19.06,19.06,0,0,0,3.94,0S2,2.6,2.26,1.65A4.77,4.77,0,0,0,2.49.47s0-.08.06-.19H4.44a1.2,1.2,0,0,0,.09.35,4.65,4.65,0,0,0,.24,1.18A1.52,1.52,0,0,0,5.6,3a19.94,19.94,0,0,0,4,0c.86-.1.86-.61.86-.61L10.7.84a.71.71,0,0,0,0-.14h.92a.21.21,0,0,0,.21-.21A.21.21,0,0,0,11.63.28ZM2.34.39c0,.1-.06.18-.06.18a4.88,4.88,0,0,1-.23,1.09,1.41,1.41,0,0,1-.77,1.05,16.71,16.71,0,0,1-3.66,0c-.78-.09-.77-.57-.77-.57L-3.32.71V.32A.71.71,0,0,1-3-.29a7.71,7.71,0,0,1,5-.27A.59.59,0,0,1,2.38,0Zm8.1.47-.21,1.4s0,.48-.8.55a17.76,17.76,0,0,1-3.76-.05s-.53-.17-.76-1.06A5.32,5.32,0,0,1,4.7.6,2.43,2.43,0,0,1,4.62.27l0-.39,0-.07a.57.57,0,0,1,.41-.33,8,8,0,0,1,5.07.39.67.67,0,0,1,.28.48l0,.38A.59.59,0,0,1,10.44.86Z"/><path class="cls-4" d="M7.46,3.17a15.93,15.93,0,0,1-1.88-.1,1.67,1.67,0,0,1-.93-1.23A5.83,5.83,0,0,1,4.41.65,1.47,1.47,0,0,1,4.33.4H2.64a.46.46,0,0,1,0,.09,6.17,6.17,0,0,1-.23,1.19,1.63,1.63,0,0,1-.9,1.22,18.75,18.75,0,0,1-4,0c-.94-.11-1-.7-1-.73L-3.63.82h-.75A.33.33,0,0,1-4.71.49.33.33,0,0,1-4.38.16h.73a.88.88,0,0,1,.38-.65,8.38,8.38,0,0,1,5.4-.36.74.74,0,0,1,.56.59H4.37A.78.78,0,0,1,4.9-.69a8.71,8.71,0,0,1,5.53.36.79.79,0,0,1,.36.49h.84A.33.33,0,0,1,12,.49a.33.33,0,0,1-.33.33h-.8v0l-.21,1.51s0,.6-1,.71C9.13,3.12,8.31,3.17,7.46,3.17ZM4.77-.09l0,.37a1.11,1.11,0,0,0,.08.27V.61A4.11,4.11,0,0,0,5,1.67a1.33,1.33,0,0,0,.68,1,18.59,18.59,0,0,0,3.71,0c.67-.06.69-.42.69-.43L10.32.84s0-.08,0-.12l0-.37A.59.59,0,0,0,10.1,0a7.89,7.89,0,0,0-5-.38.47.47,0,0,0-.33.26A.08.08,0,0,0,4.77-.09Zm-5-.64A6.57,6.57,0,0,0-3-.18a.63.63,0,0,0-.24.51V.7L-3,2.08s0,.38.66.46a17.3,17.3,0,0,0,3.64,0,1.35,1.35,0,0,0,.66-1A5.06,5.06,0,0,0,2.16.57v0A1.12,1.12,0,0,0,2.22.37l0-.38A.47.47,0,0,0,1.9-.44,7.73,7.73,0,0,0-.24-.73ZM10.44,0a.86.86,0,0,1,.12.32l0,.41c0,.06,0,.1,0,.15h0l-.22,1.4a.55.55,0,0,1-.17.36.42.42,0,0,0,.19-.3L10.58.82a.62.62,0,0,0,0-.13V.58h1a.09.09,0,0,0,.09-.09.08.08,0,0,0-.09-.08h-1l0-.1A.82.82,0,0,0,10.44,0ZM-4.38.41a.08.08,0,0,0-.09.08.09.09,0,0,0,.09.09h.93V.41ZM2.48.16h2V0h-2ZM2.22-.55a.62.62,0,0,1,.22.28A.45.45,0,0,0,2.22-.55Z"/><path class="cls-4" d="M4,138.62c0-.34.21-.73-.11-1s-.74-.78-1.34-.8a2.45,2.45,0,0,1-.64-.18c-1-.3-2.09-.63-3.15-.89-1.9-.48-3.81-.91-5.71-1.38-1.07-.27-2.13-.65-3.21-.86-1.32-.24-2.59-.63-3.89-.92s-2.44-.84-3.67-1.22A30.55,30.55,0,0,1-21.56,130a7,7,0,0,1-2.14-1.06.32.32,0,0,0-.43,0,.26.26,0,0,0-.1.35,1.22,1.22,0,0,1,0,1,27.31,27.31,0,0,0-.68,4,7.78,7.78,0,0,0-.18,1.51,19.37,19.37,0,0,1-.56,4.09c-.33,1.64-.73,3.26-1,4.91a10.52,10.52,0,0,1-.21,1.12,1.51,1.51,0,0,1-.61.91,17.49,17.49,0,0,1-4,2.06c-.38.15-.77.25-1.14.41a45,45,0,0,0-5.29,2.53,3.37,3.37,0,0,1-2.17.73c-.17,0-.28.11-.22.32.12.42.23.86.33,1.29s.22.8.75.89c.2,0,.37.23.56.34.9.54,1.77,1.13,2.72,1.58a19,19,0,0,1,2.43,1.32q.39.27.78.51c1.07.65,2.13,1.29,3.25,1.85A43.33,43.33,0,0,1-25,163.08a13.53,13.53,0,0,0,2.62,1.28c1.84.74,3.52,1.81,5.29,2.69a4.24,4.24,0,0,0,1.62.57.77.77,0,0,1,.51.15c.23.22.43.12.66,0,1-.6,1.93-1.19,2.85-1.86a15.65,15.65,0,0,1,1.42-1c1.85-1,3.75-1.85,5.55-2.92a2.87,2.87,0,0,0,.72-.58A5.24,5.24,0,0,1-2.19,160,5.27,5.27,0,0,0-1,159.14a1.87,1.87,0,0,1,.58-.43,1.36,1.36,0,0,0,.87-1.38,11.08,11.08,0,0,1,.19-1.52c.29-1.39.58-2.78.86-4.18.19-1,.3-1.94.56-2.88a23.83,23.83,0,0,0,.73-4.27,22.59,22.59,0,0,1,.74-3.92A5.87,5.87,0,0,0,4,138.62ZM-15.26,167c-.05.13-.17.11-.28.1l-.19,0A1,1,0,0,1-16,167c-.94-.45-1.9-.87-2.8-1.38a37.11,37.11,0,0,0-3.95-1.95,21.08,21.08,0,0,1-3-1.63,28.75,28.75,0,0,0-3-1.65A23.88,23.88,0,0,1-31.34,159c-.74-.49-1.52-.91-2.3-1.34-1.31-.71-2.61-1.43-3.94-2.1a4.87,4.87,0,0,1-1.57-1.2c-.07-.08-.18-.14-.2-.25s-.09-.32.05-.44.26,0,.36,0a14.93,14.93,0,0,0,2.08,1.2c2.1,1,4,2.41,6.06,3.52a23.9,23.9,0,0,1,3,1.65,5.73,5.73,0,0,0,1.55.76A13.33,13.33,0,0,1-24.19,162c1.09.6,2.21,1.14,3.34,1.68.76.36,1.43.89,2.2,1.24a34.35,34.35,0,0,1,3,1.68c.08.05.16.08.23.13S-15.21,166.88-15.26,167Zm.41-1.08a.68.68,0,0,1-.74-.08l-2.34-1.29c-1.78-1-3.59-1.89-5.41-2.77a4,4,0,0,1-.56-.35,7.31,7.31,0,0,0-1.56-.89,11.11,11.11,0,0,1-1.2-.59c-1.62-.89-3.23-1.78-4.84-2.69a15.77,15.77,0,0,1-1.47-.92c-1.06-.71-2.23-1.2-3.33-1.84l-2.25-1.3c-.33-.2-.34-.35,0-.5,1.65-.78,3.18-1.77,4.87-2.49,1.21-.52,2.5-.82,3.66-1.43A24.22,24.22,0,0,0-26.58,147a1.19,1.19,0,0,1,1-.13,15,15,0,0,1,2.53.84c.44.15.87.34,1.3.51,2.68,1,5.37,2,8,3.17,1.61.69,3.25,1.33,4.87,2,.88.36,1.67.93,2.57,1.27,1.39.53,2.67,1.32,4.06,1.86.13,0,.26.09.25.24a.71.71,0,0,1-.29.38c-1.91,1.36-3.59,3-5.61,4.2A16.67,16.67,0,0,0-10,162.9,38.68,38.68,0,0,1-14.85,165.93Zm13.57-7.16a3.22,3.22,0,0,1-.81.68A6.07,6.07,0,0,0-4,160.94a5.66,5.66,0,0,1-1.85,1.27c-1.55.68-3,1.56-4.54,2.26a5.46,5.46,0,0,0-1.11.73c-.76.58-1.58,1.09-2.38,1.6-.18.11-.36.28-.63.19a.61.61,0,0,1,.36-.69c.46-.28.91-.57,1.39-.81A22,22,0,0,0-9,163c1.17-.92,2.42-1.73,3.66-2.58.17.11.09.3.17.42s.12.19.25.2a2.54,2.54,0,0,0,1.16-.68c.19-.43.05-.63-.42-.59-.09,0-.17,0-.34.08.2-.52.79-.47,1-.87.16.1.09.19.11.27.07.37.15.44.48.3s.84-.39,1.26-.61c.15-.08.32-.19.27-.41s-.27-.19-.44-.23-.35,0-.5-.07,0-.13,0-.15c.58-.58.87-.52,1.17.23A.39.39,0,0,1-1.28,158.77Zm-.22-3.28c-.11.47-.18.49-.67.35a1.92,1.92,0,0,1-.31-.11c-1.9-.93-3.91-1.6-5.75-2.66a5.92,5.92,0,0,0-1.15-.51,23.88,23.88,0,0,1-3.39-1.39c-1.76-.87-3.64-1.44-5.46-2.14-1.5-.58-3-1.1-4.46-1.78A16.93,16.93,0,0,0-25,146.5c-1.5-.46-1.42-.27-1-1.87a9.19,9.19,0,0,0,.26-1.37c.22-1.82.69-3.59,1-5.38a12.69,12.69,0,0,0,.18-1.73,31.53,31.53,0,0,1,.51-3.62,11.56,11.56,0,0,1,.4-2.16c.15-.48.14-.5.64-.36a5.48,5.48,0,0,1,1.19.44,12.78,12.78,0,0,0,2.6,1c1.16.39,2.29.88,3.46,1.2s2.48.71,3.74,1,2.43.53,3.63.87c1.65.47,3.31.86,5,1.26C-2,136.1-.5,136.5,1,137l1,.3c.6.18.63.19.47.77-.35,1.21-.41,2.46-.66,3.68-.52,2.5-1.16,5-1.73,7.47-.28,1.24-.59,2.46-.84,3.71C-1,153.78-1.29,154.63-1.5,155.49Zm1.21,2.36c-.15.11-.29,0-.41-.08A1.49,1.49,0,0,1-1,157c0-.1.08-.14.2-.14a1.21,1.21,0,0,1,.62.54A.33.33,0,0,1-.29,157.85Zm3.62-19.33c-.14.57-.24,1.14-.42,1.69A18.58,18.58,0,0,0,2,144.45a31.53,31.53,0,0,1-.78,4.73c-.48,2.15-.9,4.31-1.35,6.47,0,.09,0,.18-.05.26s0,.39-.27.4a.52.52,0,0,1-.5-.51,3.65,3.65,0,0,1,.12-.93c.51-1.68.69-3.44,1.17-5.13.6-2.14,1-4.33,1.54-6.49a30.2,30.2,0,0,0,.84-4.65,1.06,1.06,0,0,1,.28-.72C3.38,138,3.39,138.24,3.33,138.52Z"/><path class="cls-4" d="M.51,142A6.29,6.29,0,0,1,1.15,140a.85.85,0,0,0-.41-1.23A9.53,9.53,0,0,0-1.52,138c-1.32-.32-2.63-.65-3.95-1a41.64,41.64,0,0,1-4.5-1.5,19.38,19.38,0,0,0-2.5-.73,9.45,9.45,0,0,1-1.95-.63,17.85,17.85,0,0,0-2.33-.81,18.52,18.52,0,0,1-4.91-1.68,2.11,2.11,0,0,0-.38-.12c-.56-.16-.68-.11-1,.4a7.56,7.56,0,0,0-.58,2c-.3,1.2-.59,2.41-.83,3.64s-.53,2.61-.69,3.94a24.06,24.06,0,0,1-.4,2.7c-.17.8-.21.85.41,1.34a2.24,2.24,0,0,0,.77.39c.57.2,1.15.36,1.71.57.88.32,1.67.84,2.54,1.19s2,.61,3,1,2.22.71,3.24,1.22a28.35,28.35,0,0,0,3.4,1.36,36.3,36.3,0,0,1,4.64,2.18,9.78,9.78,0,0,0,2.67,1l.48-.07c.66-.07.7-.12.81-.8a5.71,5.71,0,0,1,.23-1,19.6,19.6,0,0,0,.68-3.46c.16-.92.28-1.85.42-2.77C-.26,144.87.26,143.46.51,142ZM-1,146.3c-.33,1.66-.66,3.32-.88,5a20.31,20.31,0,0,1-.46,2c-.11.42-.23.45-.69.41A6.53,6.53,0,0,1-5.29,153a47.61,47.61,0,0,0-5-2.3,22,22,0,0,1-3.45-1.43,2.68,2.68,0,0,0-.68-.27c-1.51-.44-2.94-1.14-4.47-1.56a9.92,9.92,0,0,1-2.2-.94,13.59,13.59,0,0,0-2.56-1,.61.61,0,0,0-.13,0c-.88-.2-1.18-.5-1-1.39.4-2,.36-4.12,1-6.11a2.39,2.39,0,0,0,.06-.53,4.86,4.86,0,0,1,.31-1.56,3,3,0,0,0,.2-.78,16.46,16.46,0,0,1,.67-2.57c.12-.39.25-.46.63-.39a1.63,1.63,0,0,1,.44.15,19.25,19.25,0,0,0,4.09,1.42,20.57,20.57,0,0,1,2.32.82,20.79,20.79,0,0,0,3,.92,11.5,11.5,0,0,1,1.26.4c.69.24,1.39.47,2.08.69s1.6.66,2.46.84c.62.13,1.26.21,1.88.38,1.33.37,2.67.7,4,1.16,1.1.4,1.09.41.84,1.51C-.12,142.4-.6,144.34-1,146.3Z"/><path class="cls-4" d="M9.27,69.73A22.24,22.24,0,0,0,7,68.14a21.52,21.52,0,0,1-2.86-1.59.86.86,0,0,0-.9-.1,7.22,7.22,0,0,1-1.79.31,45.13,45.13,0,0,0-5,.72c-3.13.68-6.24,1.45-9.33,2.27-1.2.32-2.42.59-3.64.79a8.08,8.08,0,0,0-4.22,2c-1.25,1.11-2.57,2.13-3.92,3.12-1,.76-1.09,1-.41,2.12a2.8,2.8,0,0,0,.45.52c1.06,1,1.9,2.16,2.9,3.19a1.06,1.06,0,0,0,.72.39l.86,0a6.28,6.28,0,0,0,1.3,0c2.12-.42,4.26-.77,6.35-1.3s4.08-1.24,6.13-1.82a18.42,18.42,0,0,1,2.78-.65,9.27,9.27,0,0,0,2.21-.36,21.32,21.32,0,0,1,4-1,1.75,1.75,0,0,0,.91-.43A24,24,0,0,1,6.67,73.9a4.07,4.07,0,0,0,1.11-1,12.21,12.21,0,0,1,1.54-1.51C10,70.88,10,70.31,9.27,69.73ZM5.78,68.45A30.15,30.15,0,0,1,2.29,69C3.45,68.79,4.55,68.2,5.78,68.45ZM3.57,69.57a13.07,13.07,0,0,1-3.34.64A13.16,13.16,0,0,1,3.57,69.57Zm-5.72.61c-.24.12-.4.24-.63.16A.62.62,0,0,1-2.15,70.18ZM-15.87,71c1.44-.17,2.82-.6,4.22-.9s2.73-.68,4.1-1a1.22,1.22,0,0,0,.24-.1c.18-.1.3,0,.43.12a8.37,8.37,0,0,0,2.68,2,7.32,7.32,0,0,1,1.92,1.44c.46.51.36.79-.31,1a40.77,40.77,0,0,1-7.48,1.8c-.93.14-1.85.39-2.79.55-.53.08-1.08,0-1.63.09a.72.72,0,0,1-.64-.37A20,20,0,0,0-18,72.43a.75.75,0,0,1-.26-.57A5.06,5.06,0,0,1-15.87,71Zm-4.59,8.77c-.34.21-.51.79-.93.66s-.5-.53-.76-.8A10.66,10.66,0,0,0-23.79,78a2.38,2.38,0,0,1-.57-.65c-.36-.5-.33-.82.18-1.17,1.52-1.05,2.86-2.34,4.3-3.49l.41-.32a.37.37,0,0,1,.53.08,21.9,21.9,0,0,1,2.71,2.9,1.33,1.33,0,0,1,.3.76,5,5,0,0,1-1.39,1.56C-18.37,78.36-19.4,79.11-20.46,79.79ZM-2.07,76.6c-.05.41-.23.64-.65.66a21.91,21.91,0,0,0-5.69,1.38,86.81,86.81,0,0,1-8.88,2.26,20.67,20.67,0,0,1-2.85.25c0-.3.2-.34.33-.45a16.85,16.85,0,0,0,2.15-2,6.61,6.61,0,0,1,2.17-1.39,5.41,5.41,0,0,1,2.06-.61,12.63,12.63,0,0,0,2.27-.51c1.74-.45,3.54-.49,5.27-1l3.25-.89a1.64,1.64,0,0,1,1-.1A5.08,5.08,0,0,0-2.07,76.6Zm.26-5a.69.69,0,0,1,.58,0c0,.22-.19.3-.26.46C-1.48,71.9-1.76,71.87-1.81,71.63Zm.32.53c.36,0,.57.11.58.48C-1.11,72.49-1.18,72.18-1.49,72.16Zm.62.52a3.38,3.38,0,0,0,1,.07C-.52,73.2-.58,73.2-.87,72.68Zm7.78-1.2c-1.68.25-3.32.66-5,1.06a5.83,5.83,0,0,1-1.71.19,14.14,14.14,0,0,1,2.69-.68c1.57-.29,3.12-.71,4.88-.91A1.56,1.56,0,0,1,6.91,71.48Zm1.48-.65a.28.28,0,0,1,0-.14c0-.1.1-.2.23-.17s0,.09,0,.14A.3.3,0,0,1,8.39,70.83Z"/><path class="cls-4" d="M1.52,96.09A7.83,7.83,0,0,1,2.89,96c.09,0,.2,0,.23-.06.1-.29.35-.25.57-.29a2.68,2.68,0,0,0,.76-.24,1.4,1.4,0,0,0-.5-.67c-.82-.66-1.64-1.32-2.41-2a4.07,4.07,0,0,0-.75-.56A7.56,7.56,0,0,1-.57,90.89a25.83,25.83,0,0,0,2.68-.31c1.2-.18,2.42-.28,3.61-.58A.42.42,0,0,1,6,90c.15.06.3.06.38-.11s0-.28-.14-.39l-.47-.44A5.6,5.6,0,0,0,3,87.48c-.31-.06-.61-.16-.92-.2a4.44,4.44,0,0,0-1-.1c-1.25.12-2.5.24-3.75.33-.71.06-1.41,0-2.12.07a.87.87,0,0,1-.66-.28,19.49,19.49,0,0,0-2.28-2c-.41-.31-.79-.65-1.19-1A.39.39,0,0,1-9,83.8a3.43,3.43,0,0,0,.28-.58A4.94,4.94,0,0,0-8.5,81a1.7,1.7,0,0,1,0-.45,2.37,2.37,0,0,0-.4-1.45,17.73,17.73,0,0,0-1.45-1.88,2.94,2.94,0,0,0-1.21-.91c-.53-.21-1.07-.37-1.6-.54a1.56,1.56,0,0,0-.93,0,12.46,12.46,0,0,0-1.46.48,4.12,4.12,0,0,0-1.62,1.19,14.14,14.14,0,0,0-1.2,1.87,1.29,1.29,0,0,0-.18,1,3.55,3.55,0,0,0,.42,1A10.49,10.49,0,0,0-16,83.61c.31.27.66.49,1,.74.83.62,1.65,1.26,2.47,1.9s1.48,1.11,2.16,1.74c.07.07.21.1.18.25s-.17,0-.24,0c-.7-.07-1.39-.15-2.08-.19a14,14,0,0,0-1.83,0c-1.06.1-2.12.27-3.19.36a7.37,7.37,0,0,0-2.51.49.39.39,0,0,1-.15,0,1.55,1.55,0,0,0-1.05.6,11.07,11.07,0,0,0-.76,1,2.61,2.61,0,0,0-.25,2.06,3.69,3.69,0,0,0,.41.85,4.27,4.27,0,0,0,2.69,2.31,13.11,13.11,0,0,0,2.71.52,7,7,0,0,0,1.93-.13A6.36,6.36,0,0,0-13,95.49c.11,0,.26-.15.17-.3s0-.36.09-.53a2.68,2.68,0,0,0,.26-.47,14.54,14.54,0,0,0,.71-2.11c.07-.23.17-.35.39-.38l.3,0c1.13-.08,2.26-.22,3.39-.36.31,0,.63,0,.93-.11a.52.52,0,0,1,.5.11l1.45,1.21c.43.38.84.79,1.28,1.17a26.74,26.74,0,0,0,2.49,1.71A3.9,3.9,0,0,0,1.52,96.09Zm-4.29-8.23a27.33,27.33,0,0,0,3-.15,6.81,6.81,0,0,1,2.66.11,4.38,4.38,0,0,1,2.49,1.57s0,.1-.06.1c-1.69.14-3.37.36-5,.6l-1.22.15a1.12,1.12,0,0,1-.85-.2C-2.51,89.5-3.25,89-4,88.44a1.53,1.53,0,0,1-.46-.53A15.07,15.07,0,0,0-2.77,87.86Zm-4.44,2.83c-.42,0-.85-.09-1.28-.11a3.76,3.76,0,0,0-1.37.16,2.66,2.66,0,0,1-1,.15,4.79,4.79,0,0,0-1.07.18,1.34,1.34,0,0,1-.18.07c-.14,0-.31-.11-.42.06s0,.29,0,.44A9.74,9.74,0,0,1-13,93.9,2.29,2.29,0,0,1-14,95a3.62,3.62,0,0,1-2.56.53,11.59,11.59,0,0,1-2.74-.62,4,4,0,0,1-2.36-2.14,1.87,1.87,0,0,1-.09-1.5,2.9,2.9,0,0,1,2.13-2.07.59.59,0,0,0,.19,0,7.44,7.44,0,0,1,2.76-.45c.48-.06,1-.06,1.43-.15a15,15,0,0,1,4.29,0,4.62,4.62,0,0,0,.64.06,1.77,1.77,0,0,1,1.23.41c.63.51,1.28,1,1.91,1.48ZM-3,92.85A20.16,20.16,0,0,1-4.71,91.6c-.21-.2-.52-.35-.43-.76,0-.14-.19-.23-.33-.21s-.4-.11-.57-.24L-9.89,87.2c-.4-.32-.83-.6-1.23-.92-.84-.67-1.64-1.38-2.49-2-.48-.37-1-.75-1.44-1.13a9.51,9.51,0,0,1-2.29-2.23,2.82,2.82,0,0,1-.25-.49c0-.15-.12-.35-.3-.35-.38,0-.26-.22-.19-.39a5.12,5.12,0,0,1,2.39-2.8,3.51,3.51,0,0,1,3-.31,4.92,4.92,0,0,1,1.77,1,8.09,8.09,0,0,1,1.69,2.18,4,4,0,0,1-.09,3.59,5.45,5.45,0,0,0-.35.87.26.26,0,0,0,.11.34c.79.46,1.38,1.18,2.14,1.68A9.29,9.29,0,0,1-6,87.33a.91.91,0,0,1,.28.34.27.27,0,0,0,.15.19,7.77,7.77,0,0,1,1.91,1.3c.75.57,1.54,1.08,2.25,1.7,1.07.94,2.29,1.69,3.37,2.62.57.49,1.12,1,1.68,1.51-.11.21-.28.2-.44.22l-1.72.2a2,2,0,0,1-1.18-.33A37,37,0,0,1-3,92.85Z"/><path class="cls-4" d="M.14,116a10.81,10.81,0,0,1-.52-1.48A2.86,2.86,0,0,0-1,113.23c-.5-.53-1-1.06-1.52-1.56A1.33,1.33,0,0,1-3,110.33c.18-.91.32-1.83.42-2.75a6.6,6.6,0,0,1,1.88-4.15,1.4,1.4,0,0,0-.15-2.15c-2.28-1.88-4.85-2.07-7.59-1.38l-.28.11a.54.54,0,0,0-.36.6,5.76,5.76,0,0,0,.41,2.2,1.61,1.61,0,0,1,.16.72,6.84,6.84,0,0,1-.2,2.16c-.38,1.36-.88,2.67-1.35,4a.63.63,0,0,1-.39.42A11.33,11.33,0,0,0-13.62,112a6.21,6.21,0,0,0-2.45,2.77,2.11,2.11,0,0,1-.18.33,7.91,7.91,0,0,0-.31,7.63,7.44,7.44,0,0,0,2.78,3.38,11.89,11.89,0,0,0,4.19,1.57l.81.15a8.9,8.9,0,0,0,5.15-.62,10.22,10.22,0,0,0,3.18-2.37,1.79,1.79,0,0,0,.51-1c.22-1.21.49-2.41.67-3.63a5.44,5.44,0,0,0,0-2.09A14.23,14.23,0,0,0,.14,116Zm-8.22-15.34c0-.18.21-.2.35-.23a14.22,14.22,0,0,1,2.25-.18,6.13,6.13,0,0,1,3.87,1.38c.3.24.67.5.51.92s-.6.28-.94.26c-.52,0-1-.08-1.53-.13a13.38,13.38,0,0,1-3.71-1.29c-.2-.11-.38-.25-.57-.37S-8.1,100.86-8.08,100.69Zm-2,10a3.75,3.75,0,0,0,.63-.25.41.41,0,0,0,.3-.39,5.91,5.91,0,0,1,.65-2.14c.25-.73.51-1.46.7-2.21a5,5,0,0,0-.11-3.32.49.49,0,0,1,0-.4c1,.34,1.93.79,2.93,1.09s2,.24,3.07.54c-.21.36-.38.69-.57,1a7.09,7.09,0,0,0-.93,2.67c-.18,1.19-.3,2.39-.48,3.58a.93.93,0,0,0,.42,1,7.23,7.23,0,0,1,1.34,1.31,4,4,0,0,1,1,1.81,6,6,0,0,0-2.53-1.3,14.51,14.51,0,0,0-2.64-.85,38.23,38.23,0,0,0-5.45-.52,2.91,2.91,0,0,1-.89-.08A7.61,7.61,0,0,1-10.1,110.65Zm7.76,5a2,2,0,0,1-.58.14,8.61,8.61,0,0,1-2.9-.25,14.4,14.4,0,0,0-1.61-.35,20.16,20.16,0,0,1-4.48-1.43,1.15,1.15,0,0,1-.65-.53,3.68,3.68,0,0,1,1.33-.22c1.12.11,2.25.11,3.36.31a15.41,15.41,0,0,1,2.78.57c.82.31,1.63.64,2.44,1a1.52,1.52,0,0,1,.38.24A.32.32,0,0,1-2.34,115.66Zm-11.12-1.39a.41.41,0,0,1,.64-.15,12,12,0,0,0,3.14,1.22A25.88,25.88,0,0,0-4,116.44c.52,0,1-.08,1.57-.1s.56,0,.62.53a14.35,14.35,0,0,1,0,2.78,10.38,10.38,0,0,1-.21,2c-.09.5-.15.87-.23,1.24a3.09,3.09,0,0,1-2.25,2.38,10.29,10.29,0,0,1-5,.5,5.32,5.32,0,0,1-4.3-3,7.65,7.65,0,0,1-.92-2,6.53,6.53,0,0,1,.25-4,3.33,3.33,0,0,0,.28-.93A4.52,4.52,0,0,1-13.46,114.27ZM-.29,121c-.17.84-.35,1.67-.5,2.5a2.15,2.15,0,0,1-.88,1.51,5.4,5.4,0,0,0-.52.43,6.78,6.78,0,0,1-3.26,1.61,10.42,10.42,0,0,1-5.82-.64,7.49,7.49,0,0,1-5.12-6.68,9.84,9.84,0,0,1,.4-3.47,2.14,2.14,0,0,1,.2-.4c.38-.65.76-1.3,1.13-2a1.69,1.69,0,0,1,.92-.81,2.41,2.41,0,0,1-.57,1.19,3.69,3.69,0,0,0-.63,1.27c-.1.41-.25.81-.39,1.21a7.15,7.15,0,0,0,.37,5.88,8.86,8.86,0,0,0,1.16,1.75,6.37,6.37,0,0,0,3,1.8,9.26,9.26,0,0,0,4.53.13,14.3,14.3,0,0,0,2.39-.64,3.65,3.65,0,0,0,2.45-2.89,33.24,33.24,0,0,0,.36-3.43,21.38,21.38,0,0,0,0-3.3c0-.12,0-.25.15-.36A5.41,5.41,0,0,1-.4,117,8.63,8.63,0,0,1-.29,121Z"/><path class="cls-4" d="M12.44,49.4c.47-.52.51-.79,1.28-.75a2.49,2.49,0,0,0,1.76-.44,3.38,3.38,0,0,0,1.23-1.54c.21-.6.2-1.29.37-1.92a2.65,2.65,0,0,1,1.05-1.6c.2-.15.42-.36.17-.62s-.41,0-.63.1a4.35,4.35,0,0,1-2,.36,8.07,8.07,0,0,0-2.13.37c-1.28.5-1.52,1.69-1.88,2.88a2,2,0,0,1-1,1.32,9.43,9.43,0,0,0-1.57,1.26c-.57.52-1.21,1-1.79,1.47-.31.28-.61.56-.9.86s-.38.49-.66.54c-.11-.25.42-.84.55-1.06.24-.41.49-.82.72-1.23A25.42,25.42,0,0,0,8.27,47,40,40,0,0,0,10,41.71c.22-.75.65-1.41.88-2.15.07-.22.16-.61-.22-.61s-.47.51-.62.71c-.47.6-1.06,1.18-1.59,1.74A10,10,0,0,1,6.57,43a6.44,6.44,0,0,0-1,.64c-.23.23-.1.42-.18.7a5.19,5.19,0,0,1-.51.87,6.23,6.23,0,0,1-.42,1c-.25.31-.38.07-.44-.25a1.15,1.15,0,0,1,.15-.77,14.37,14.37,0,0,0,.68-1.94c.94-3.15,2-6.31,3-9.42.55-1.6,1.08-3.22,1.55-4.85a20,20,0,0,0,.68-2.49c.06-.44-.07-.6-.5-.7-.79-.19-1.58-.31-2.36-.51l-1.13-.31a3.88,3.88,0,0,0-.94-.27c-.54,0-.73.8-.89,1.22-.28.74-.54,1.49-.79,2.24-1.05,3.12-2,6.29-2.91,9.45L-.2,40a7.79,7.79,0,0,1-.71,2.12c-.15.21-.09.27-.21,0a2.44,2.44,0,0,1-.06-.39c-.07-.32-.17-.64-.22-1s0-.58-.05-.87-.22-.46-.31-.72c-.22-.62-.07-1.14-.8-1.44-.54-.22-.86,0-1,.52a5.65,5.65,0,0,1-.26,1c-.06.11-.21.2-.25.29s0,.19,0,.27c-.3.6-.78,1.11-1,1.77A30.27,30.27,0,0,0-6.69,46a4,4,0,0,0,0,2.23c.29.8.67.19,1.22.27,0,.44,0,.91-.09,1.34s-.34.44-.66.66c-.68.47-.5,1.36-.65,2.08-.36,1.81-.91,3.6-1.36,5.39S-9,61.65-9.43,63.46c-.18.83-.3,1.67-.43,2.51a8.39,8.39,0,0,1-.8,2.45.89.89,0,0,0,.2,1.16,13.37,13.37,0,0,0,1.83,1.53,13,13,0,0,0,4.32,1.8A8.59,8.59,0,0,0-2,73.18a1.61,1.61,0,0,0,1.47-.46c.41-.53.21-1.12.3-1.72A7.7,7.7,0,0,1,.85,69c.81-1.49,1.53-3,2.26-4.55s1.57-3,2.32-4.52c.36-.74.74-1.48,1.11-2.23A9.72,9.72,0,0,1,7,56.74c.15-.24.54-.45.62-.68s-.22-.54-.23-.84a1,1,0,0,1,.26-.64A23.33,23.33,0,0,1,9.2,52.85c.56-.62,1.12-1.25,1.67-1.88S12,50,12.44,49.4Zm-.22-3A4.1,4.1,0,0,1,13,44.47c1-1,2.59-.9,3.84-1a12.82,12.82,0,0,0-.65,2.19,3.69,3.69,0,0,1-.59,1.71,2.59,2.59,0,0,1-3,.51C11.66,47.56,12,47,12.22,46.35ZM4.13,52.88c.61-1.38,1.21-2.76,1.92-4.09.34-.63.74-1.23,1.07-1.86.24-.46.26-.57.81-.5A41.34,41.34,0,0,1,4.13,52.88Zm-.8.52a1.7,1.7,0,0,1-.7.8l-1,.77A11.26,11.26,0,0,1,2.75,52.4c.49-.95,1-1.85,1.51-2.81s.91-1.88,1.35-2.83a1.71,1.71,0,0,1,.27-.58c.18-.14.12-.06.34-.07A.86.86,0,0,0,6.74,46c.19-.09.31-.25.53-.28-.83,1.73-1.93,3.36-2.66,5.14C4.25,51.75,3.69,52.53,3.33,53.4ZM7.26,43.19a9.36,9.36,0,0,1,1.06-.82c.35-.19.52,0,.88.07a11.41,11.41,0,0,1-1.17,3c-.24-.08.07-.65-.47-.51-.27.08-.55.8-.9.66s0-.62-.15-.83-.55,0-.78.12C5.91,44.12,6.68,43.64,7.26,43.19ZM4.49,47.48c.2-.41.55-2,1.15-1.88A4.91,4.91,0,0,1,5.07,47c-.17.41-.26.84-.47,1.24L3.36,50.63C3,51.45,2.44,52.19,2,53c-.17.35-.85,2.12-1.3,2.07s.22-.84.29-1c.24-.43.48-.86.71-1.3.47-.86.93-1.73,1.39-2.61S4.07,48.4,4.49,47.48ZM3.32,43.24c-.69.07-1.4.41-2-.18A2.94,2.94,0,0,1,3.32,43.24ZM2,41.75s.11-.11.09,0ZM1.32,44c.31,0,1.8-.38,2-.15a2.6,2.6,0,0,1,.12.56c.06.31,0,.37-.28.49a1.93,1.93,0,0,1-1.58,0A.88.88,0,0,1,1.32,44ZM2.4,45.51c.35,0,1-.4,1,.18s-.66.44-1,.39a2,2,0,0,1-1.34-.82C1.41,45.12,2,45.51,2.4,45.51ZM1.16,46.7l.15,0a1,1,0,0,1,.31-.14,1.47,1.47,0,0,1,.47,0,6.37,6.37,0,0,1,1,.08c.43.09.51.21.46.61a5.72,5.72,0,0,1-.19,1.23C2.45,50.18,1.66,52,.63,53.62a6.46,6.46,0,0,1-.68,1c-.4.18-.35-.32-.28-.59.2-.87.34-1.68.46-2.57S.5,49.56.66,48.6C.74,48.11.66,46.92,1.16,46.7Zm-2.58,6.38a17.17,17.17,0,0,0,.15-2c0-.75,0-1.51.09-2.26a9.16,9.16,0,0,1,.16-2c.09-.33.32-.31.47-.55s0-.27-.19-.46c-.3-.36-.19-.9-.17-1.36,0-.29,0-.62.26-.6s.29.27.48.07-.43-.68-.45-1a2.61,2.61,0,0,1,.51-1.28c.24-.22.64,0,.87-.18.41-.36-.32-.62-.45-.88a1.49,1.49,0,0,1,.23-1.16c.22-.31,1.08,0,.7-.61-.1-.15-.3-.16-.37-.35s.06-.43.13-.63c.13-.39.14-.62.58-.68.15,0,.45.07.51-.14s-.4-.33-.49-.43c-.24-.3-.05-1.26.4-1.23.18,0,1.31.5,1.07-.19-.06-.19-.56-.32-.72-.41S2,34.62,2,34.33a1.52,1.52,0,0,1,.22-.58c.21-.32.24-.19.61-.2s.52-.13.26-.39-.4-.08-.48-.35A2.35,2.35,0,0,1,2.8,32a.61.61,0,0,1,.38-.37c.23-.11.49,0,.28-.35s-.28-.13-.31-.41.19-1,.57-1.05,1.34.48,1.19-.16c-.12-.48-.86-.3-1.07-.64s.13-1,.33-1.15,1.1.13.7-.41c-.26-.35-.71-.38-.37-.92s.77-.06,1-.44c-.15-.26-.67-.24-.68-.59s.61-.23.85-.17c1,.25,1.93.48,2.88.76.22.07.71.13.81.37s-.22,1-.29,1.28q-.42,1.51-.87,3c-.62,2-1.32,3.93-1.94,5.91-.32,1-.64,2.06-1,3.08-.11.35-.63,2.58-1,2.54.1-.47.58-1.59.17-2S3,40,2.53,40.07a1.25,1.25,0,0,0-1.22,1.2,2.11,2.11,0,0,1-.24.9c-.18.23-.45.23-.48.57s.13.59.08.92a.49.49,0,0,1-.14.24,1,1,0,0,1,0,.3,1.78,1.78,0,0,1,0,.4c0,.27-.25.51-.25.76s.16.5.13.8c-.17,1.47-.55,2.91-.81,4.36-.13.68-.13,1.37-.24,2C-.64,52.91-.68,54-1,54.19-1.75,54.53-1.46,53.28-1.42,53.08ZM-3.21,38.59c.11-.39.38-.69.74-.24a1.25,1.25,0,0,1,.19.84c-.15.31-.7.25-.9.05S-3.3,38.85-3.21,38.59ZM-2.34,40c-.38.26-.38.26-.78.06C-2.83,39.9-2.63,40-2.34,40ZM-3.9,42.5c.08-.3.14-.61.19-.91s0-.55.15-.7.62-.18.91-.16c.87.07.87,1.1,1,1.79a16.32,16.32,0,0,1,.11,3.28c0,.51-.09,1-.14,1.54s.05,1.17,0,1.71c-.15.89-1.55.77-2.17.48-.42-.19-1-.31-1-.84a4.77,4.77,0,0,1,.15-1.18c.07-.53.14-1.07.22-1.6C-4.42,44.75-4.17,43.63-3.9,42.5Zm1.87,11c-.22.34-.74-.07-1-.22a10.2,10.2,0,0,1-1.69-.92c-.43-.34-.37-.85-.36-1.37,0-.36-.11-1.05.33-1.09.21,0,.46.19.64.25a4.09,4.09,0,0,0,.86.17,4.43,4.43,0,0,0,.81.07c.22,0,.39-.17.61-.2a10.14,10.14,0,0,1-.08,1.74C-1.95,52.28-1.82,53.15-2,53.47Zm-3.8-5.77c-.1.08-.14.22-.26.29-.3-.38-.12-1.09-.07-1.53a12.55,12.55,0,0,1,.43-1.91,30.83,30.83,0,0,1,1.52-3.67c.28.58-.13,1.32-.27,1.89s-.34,1.4-.47,2.11-.2,1.43-.31,2.15a.8.8,0,0,1-.2.54C-5.58,47.67-5.71,47.62-5.83,47.7Zm.06,3.35a.54.54,0,0,1,0,.45C-5.92,51.44-5.88,51.14-5.77,51.05Zm3.21,21.47A12.09,12.09,0,0,1-5.15,72a12.79,12.79,0,0,1-2.58-1.11,8.09,8.09,0,0,1-2.11-1.7c-.19-.24-.24-.58.15-.46s.7.61.95.79a11,11,0,0,0,2.37,1.43A12.72,12.72,0,0,0-.93,72C-1.18,72.72-1.86,72.58-2.56,72.52ZM3.65,62c-.63,1.38-1.4,2.71-2,4.09A34,34,0,0,1-.27,69.76c-.19.29-.41.57-.58.86a3.71,3.71,0,0,1-.25.53c-.26.31-.75.24-1.1.21A11.3,11.3,0,0,1-9,68.21c-.74-.8-.21-2.29,0-3.25.22-1.27.38-2.61.69-3.86s.55-2.5.85-3.75c.17-.7.35-1.41.53-2.12a4,4,0,0,1,.49-1.52c1.56,1.5,3.7,2.2,5.68,2.91,1,.38,2,.89,3.09,1.26a8,8,0,0,0,3.3.25C4.83,59.37,4.24,60.72,3.65,62Zm.41-4.31a10,10,0,0,1-3-1c-.94-.39-1.89-.72-2.85-1a21.55,21.55,0,0,1-2.66-1.26c-.6-.3-1.81-.94-1.88-1.72a1.46,1.46,0,0,1,.1-.47c.12-.11.25,0,.41.06.37.2.72.48,1.08.69A29.74,29.74,0,0,0,.32,55.66a20,20,0,0,0,5.89,1.08C6,57.65,4.86,57.78,4.06,57.71Zm2.3-1.64a.57.57,0,0,1,.37-.46C6.73,56,6.59,56,6.36,56.07Zm2.65-4a10.13,10.13,0,0,1-.88,1L6.24,54.94c-.49.51-.88,1.12-1.65,1.07A12.52,12.52,0,0,1,2,55.53c0-.38.5-.44.77-.59a5.39,5.39,0,0,0,.79-.64c.6-.57,1.22-1.14,1.87-1.65a18.42,18.42,0,0,0,1.89-1.54c.2-.2.45-.54.76-.49s.55.37.71.51.38.27.42.41S9.15,51.88,9,52.06Zm1.28-1.8c-.35,0-.91-.67-.78-1A.55.55,0,0,1,10.3,49c.23.12.77.33.74.65A.85.85,0,0,1,10.29,50.26Z"/></g></g><path class="cls-4" d="M26.27,96.41l-4.29,0,0,5.06,4.84,0v3.17l-8.49,0,.09-18.76,8.15,0v3.18L22,89l0,4.32,4.28,0Z"/><path class="cls-4" d="M29.36,86.19a16.39,16.39,0,0,1,3.7-.35,7.18,7.18,0,0,1,5.19,1.7c1.61,1.45,2.44,3.93,2.42,7.58s-1,6.48-2.66,7.91c-1.25,1.22-3.12,1.8-5.74,1.78a27.69,27.69,0,0,1-3-.2Zm3.57,15.59a2.18,2.18,0,0,0,.64.06c1.75,0,3.29-1.71,3.31-6.88,0-3.84-1-6.18-3.17-6.19a2.13,2.13,0,0,0-.72.08Z"/><path class="cls-4" d="M46.56,86,46.5,98.18c0,2.75.82,3.59,1.76,3.6s1.82-.75,1.83-3.58L50.15,86l3.65,0-.06,11.54c0,4.82-1.85,7.42-5.46,7.41-3.93,0-5.45-2.73-5.42-7.43L42.92,86Z"/><path class="cls-4" d="M65.84,104.56A7.27,7.27,0,0,1,63,105c-4.79,0-7-4-7-9.3,0-7.06,4-9.8,7.61-9.78a5,5,0,0,1,2.53.51l-.62,3.06a3.6,3.6,0,0,0-1.7-.37c-2.06,0-3.93,1.76-3.95,6.41,0,4.48,1.66,6.24,3.89,6.25a6.37,6.37,0,0,0,1.75-.27Z"/><path class="cls-4" d="M71.29,100.58l-.86,4.28H66.9l4.15-18.74,4.37,0L79,104.91l-3.54,0-.78-4.29Zm3-2.82-.6-3.93c-.19-1.14-.43-3-.59-4.26h-.08c-.2,1.25-.49,3.2-.69,4.28l-.72,3.9Z"/><path class="cls-4" d="M29.62,128.94a9,9,0,0,1-3.5.53c-5.89,0-8.68-4.9-8.64-11.44,0-8.71,4.89-12.07,9.37-12a6.23,6.23,0,0,1,3.12.63l-.77,3.77a4.4,4.4,0,0,0-2.09-.46c-2.54,0-4.84,2.17-4.87,7.89,0,5.51,2.05,7.68,4.79,7.7a8,8,0,0,0,2.16-.34Z"/><path class="cls-4" d="M36.55,106.23l-.08,15c0,3.4,1,4.43,2.17,4.44s2.24-.92,2.25-4.41l.08-15,4.48,0-.07,14.21c0,5.93-2.27,9.14-6.72,9.12-4.83,0-6.7-3.36-6.67-9.15l.07-14.25Z"/><path class="cls-4" d="M49.33,106.64a24.39,24.39,0,0,1,5.1-.42c2.16,0,4.25.29,5.85,1.67A5.3,5.3,0,0,1,62,112.08a5.36,5.36,0,0,1-3.38,5v.13a5.54,5.54,0,0,1,4.08,5.54A6.2,6.2,0,0,1,61,127.28c-1.37,1.5-3.71,2.31-7.58,2.3a33.23,33.23,0,0,1-4.17-.26Zm4.39,19.41a4.09,4.09,0,0,0,1,.07,3.14,3.14,0,0,0,3.34-3.44,3.31,3.31,0,0,0-3.34-3.55h-1Zm.05-10.24h1a3,3,0,0,0,2.86-3.24c0-1.68-.78-3-2.63-3a3.39,3.39,0,0,0-1.16.13Z"/><path class="cls-4" d="M79.45,117.57c0,8.71-3.14,12.22-7.53,12.2-5.24,0-7.26-5.59-7.23-11.93s2.55-11.73,7.66-11.71C77.93,106.16,79.48,112.3,79.45,117.57Zm-10.1.37c0,5.24,1,7.92,2.77,7.93s2.61-3.42,2.64-8.11c0-4-.58-7.71-2.6-7.72C70.38,110,69.37,113,69.35,117.94Z"/><path class="cls-4" d="M69.22,59.23,65.13,58a1.36,1.36,0,0,0-1.69.89,1.34,1.34,0,0,0,.89,1.68l4.09,1.27a1.14,1.14,0,0,0,.4.06,1.34,1.34,0,0,0,.4-2.63Z"/><path class="cls-4" d="M61,56.69l-4.1-1.27A1.34,1.34,0,1,0,56.15,58l4.09,1.27a1.39,1.39,0,0,0,.4.06,1.35,1.35,0,0,0,.4-2.63Z"/><path class="cls-4" d="M76.45,27.76a.34.34,0,0,0,0-.1h0s0,0,0-.07l0-.1a.32.32,0,0,0,0-.09l0-.09,0-.08a.56.56,0,0,1,0-.08l0-.07L76.14,27s0-.05-.06-.07L76,26.86,76,26.81l-.08-.06-.08-.05-.06,0h0l-.08,0-.09,0h0L42,16.25a1.32,1.32,0,0,0-1.17.18L17.75,32.78h0l0,0a1.66,1.66,0,0,0-.19.18l0,0a1.14,1.14,0,0,0-.15.23.08.08,0,0,0,0,0,1.09,1.09,0,0,0-.1.25.06.06,0,0,1,0,0,2.48,2.48,0,0,0,0,.27v0l0,34.61a1.34,1.34,0,0,0,1,1.28L51.7,80.11h.12a1.27,1.27,0,0,0,.28,0h.2l.07,0,.14,0,.07,0,.12,0,.08,0,.09-.06L76,63.57a1.33,1.33,0,0,0,.57-1.1l-.06-34.61h0A.28.28,0,0,0,76.45,27.76ZM73.31,60.51a1.34,1.34,0,0,0-1.1,2.42L53.44,76.22l0-19.85a1.31,1.31,0,0,0,0-1.87V44.89L73.78,30.46l0,30.21ZM22,66.44a1.35,1.35,0,0,0-1.88-.32l-.18.13,0-30.55,8.82,2.71,12,3.71v3.56A1.34,1.34,0,0,0,42.05,47h0a1.34,1.34,0,0,0,1.34-1.35V43l7.29,2.25,0,8.28-2-.6a1.35,1.35,0,0,0-.8,2.57l2.75.85,0,20.7L21.88,68.1A1.35,1.35,0,0,0,22,66.44ZM40.66,19.85v.48A1.34,1.34,0,0,0,42,21.68h0a1.36,1.36,0,0,0,1.35-1.35v-.85l28.76,8.86L51.8,42.72l-8.47-2.61-21.8-6.72Z"/><path class="cls-4" d="M24.73,65.83a1.34,1.34,0,0,0,.78-.25l3.86-2.74a1.34,1.34,0,0,0-1.55-2.19L24,63.38a1.35,1.35,0,0,0,.78,2.45Z"/><path class="cls-4" d="M32.46,60.36a1.34,1.34,0,0,0,.78-.25l3.86-2.74a1.34,1.34,0,1,0-1.56-2.19l-3.86,2.73a1.35,1.35,0,0,0,.78,2.45Z"/><path class="cls-4" d="M40.19,54.88a1.37,1.37,0,0,0,.77-.24l1.34-1,1.57.48a1.12,1.12,0,0,0,.4.07,1.35,1.35,0,0,0,.4-2.63l-1.26-.4V49.9a1.35,1.35,0,0,0-1.35-1.34h0a1.34,1.34,0,0,0-1.34,1.34v1.61l-1.31.93a1.35,1.35,0,0,0-.32,1.88A1.32,1.32,0,0,0,40.19,54.88Z"/><path class="cls-4" d="M43.38,37.23V33A1.35,1.35,0,0,0,42,31.66h0A1.34,1.34,0,0,0,40.69,33v4.22A1.36,1.36,0,0,0,42,38.57h0A1.33,1.33,0,0,0,43.38,37.23Z"/><path class="cls-4" d="M42,30.12h0a1.34,1.34,0,0,0,1.34-1.34V24.55A1.34,1.34,0,0,0,42,23.21h0a1.34,1.34,0,0,0-1.35,1.35v4.22A1.34,1.34,0,0,0,42,30.12Z"/></g></svg>